Lucknow-Italic[wght].glyphspackage
{
glyphname = exclam;
layers = (
{
hints = (
{
horizontal = 1;
place = (-9,188);
type = Stem;
},
{
place = (84,209);
type = Stem;
},
{
place = (104,167);
type = Stem;
}
);
layerId = "7A4E2608-894C-42C3-A821-B6FEA079E459";
shapes = (
{
closed = 1;
nodes = (
(321,706,o),
(298,752,o),
(245,752,cs),
(190,752,o),
(154,706,o),
(143,626,cs),
(136,573,o),
(132,521,o),
(132,470,cs),
(132,419,o),
(136,376,o),
(144,343,cs),
(152,310,o),
(163,293,o),
(179,293,cs),
(194,293,o),
(211,310,o),
(228,343,cs),
(246,376,o),
(262,419,o),
(277,471,cs),
(291,522,o),
(303,574,o),
(310,626,cs)
);
},
{
closed = 1;
nodes = (
(200,-9,o),
(248,30,o),
(256,85,cs),
(264,141,o),
(226,179,o),
(165,179,cs),
(104,179,o),
(55,140,o),
(47,85,cs),
(39,30,o),
(79,-9,o),
(139,-9,cs)
);
}
);
width = 377;
},
{
hints = (
{
horizontal = 1;
place = (-9,133);
type = Stem;
}
);
layerId = "2FEAAE27-63B5-41AA-B98F-0872FA373B5B";
shapes = (
{
closed = 1;
nodes = (
(260,723,o),
(243,752,o),
(208,752,cs),
(173,752,o),
(147,723,o),
(138,658,cs),
(127,583,o),
(121,514,o),
(117,451,cs),
(112,387,o),
(113,338,o),
(115,302,c),
(119,265,o),
(125,247,o),
(136,247,cs),
(147,247,o),
(160,265,o),
(173,302,c),
(187,338,o),
(200,388,o),
(214,452,cs),
(228,515,o),
(241,584,o),
(251,658,cs)
);
},
{
closed = 1;
nodes = (
(144,-9,o),
(175,17,o),
(181,57,cs),
(186,96,o),
(163,124,o),
(121,124,cs),
(81,124,o),
(49,97,o),
(43,57,cs),
(38,19,o),
(62,-9,o),
(103,-9,cs)
);
}
);
width = 306;
},
{
hints = (
{
horizontal = 1;
place = (-9,105);
type = Stem;
},
{
place = (84,102);
type = Stem;
},
{
place = (90,86);
type = Stem;
}
);
layerId = "BBA9C4CC-16BF-4D96-9809-7FD759381829";
shapes = (
{
closed = 1;
nodes = (
(230,731,o),
(215,752,o),
(189,752,cs),
(164,752,o),
(144,731,o),
(136,674,cs),
(123,587,o),
(115,510,o),
(109,441,cs),
(102,371,o),
(101,318,o),
(101,281,cs),
(102,242,o),
(106,223,o),
(115,223,cs),
(123,223,o),
(134,242,o),
(145,281,cs),
(157,319,o),
(169,372,o),
(183,442,cs),
(197,511,o),
(210,588,o),
(222,674,cs)
);
},
{
closed = 1;
nodes = (
(116,-9,o),
(139,11,o),
(143,43,cs),
(147,73,o),
(131,96,o),
(99,96,cs),
(69,96,o),
(46,75,o),
(41,43,cs),
(37,13,o),
(53,-9,o),
(85,-9,cs)
);
}
);
width = 270;
}
);
unicode = 33;
}
{
glyphname = quotedbl;
layers = (
{
layerId = "5719F410-C0E5-43AE-88FA-B4FFDEE24CB8";
shapes = (
{
closed = 1;
nodes = (
(146.857,391,o),
(154.857,391,o),
(163.429,409,cs),
(176.429,437,o),
(196.857,482,o),
(221.,546,cs),
(246.,609,o),
(261.857,657,o),
(266.857,692,cs),
(274.,742,o),
(249.714,775,o),
(204.714,775,cs),
(161.714,775,o),
(127.,742,o),
(119.857,692,cs),
(114.857,657,o),
(116.,609,o),
(123.,546,cs),
(129.857,482,o),
(136.429,437,o),
(142.429,409,cs)
);
},
{
closed = 1;
nodes = (
(356.857,391,o),
(364.857,391,o),
(373.429,409,cs),
(386.429,437,o),
(406.857,482,o),
(431.,546,cs),
(456.,609,o),
(471.857,657,o),
(476.857,692,cs),
(484.,742,o),
(459.714,775,o),
(414.714,775,cs),
(371.714,775,o),
(337.,742,o),
(329.857,692,cs),
(324.857,657,o),
(326.,609,o),
(333.,546,cs),
(339.857,482,o),
(346.429,437,o),
(352.429,409,cs)
);
}
);
width = 482;
},
{
layerId = "749AE4FF-5243-4D3F-AC67-AE9DCC0EE297";
shapes = (
{
closed = 1;
nodes = (
(119,439,o),
(127,439,o),
(134,457,c),
(143,471,o),
(153,504,o),
(166,552,cs),
(180,600,o),
(189,642,o),
(194,680,cs),
(198,710,o),
(185,728,o),
(163,728,cs),
(140,728,o),
(122,710,o),
(118,680,cs),
(113,642,o),
(110,600,o),
(109,552,cs),
(109,504,o),
(109,471,o),
(113,457,cs)
);
},
{
closed = 1;
nodes = (
(281,439,o),
(289,439,o),
(296,457,c),
(305,471,o),
(315,504,o),
(328,552,cs),
(342,600,o),
(351,642,o),
(356,680,cs),
(360,710,o),
(347,728,o),
(325,728,cs),
(302,728,o),
(284,710,o),
(280,680,cs),
(275,642,o),
(272,600,o),
(271,552,cs),
(271,504,o),
(271,471,o),
(275,457,cs)
);
}
);
width = 363;
},
{
layerId = "9DBD663E-71C9-4E39-B4BC-5CF5923FD470";
shapes = (
{
closed = 1;
nodes = (
(119,439,o),
(127,439,o),
(134,457,c),
(143,471,o),
(153,504,o),
(166,552,c),
(180,600,o),
(189,642,o),
(194,680,cs),
(198,710,o),
(185,728,o),
(163,728,cs),
(140,728,o),
(122,710,o),
(118,680,cs),
(113,642,o),
(110,600,o),
(109,552,cs),
(109,504,o),
(109,471,o),
(113,457,cs)
);
},
{
closed = 1;
nodes = (
(281,439,o),
(289,439,o),
(296,457,c),
(305,471,o),
(315,504,o),
(328,552,c),
(342,600,o),
(351,642,o),
(356,680,cs),
(360,710,o),
(347,728,o),
(325,728,cs),
(302,728,o),
(284,710,o),
(280,680,cs),
(275,642,o),
(272,600,o),
(271,552,cs),
(271,504,o),
(271,471,o),
(275,457,cs)
);
}
);
width = 363;
}
);
unicode = 34;
}
{
glyphname = numbersign;
layers = (
{
hints = (
{
horizontal = 1;
place = (0,21);
target = up;
type = BottomGhost;
},
{
horizontal = 1;
place = (147,136);
type = Stem;
},
{
horizontal = 1;
place = (419,136);
type = Stem;
},
{
place = (240,156);
type = Stem;
},
{
place = (526,156);
type = Stem;
}
);
layerId = "7A4E2608-894C-42C3-A821-B6FEA079E459";
shapes = (
{
closed = 1;
nodes = (
(289,700,l),
(191,0,l),
(347,0,l),
(445,700,l)
);
},
{
closed = 1;
nodes = (
(575,700,l),
(477,0,l),
(633,0,l),
(731,700,l)
);
},
{
closed = 1;
nodes = (
(125,555,l),
(106,419,l),
(836,419,l),
(855,555,l)
);
},
{
closed = 1;
nodes = (
(87,283,l),
(68,147,l),
(798,147,l),
(817,283,l)
);
}
);
width = 922;
},
{
hints = (
{
horizontal = 1;
place = (0,21);
target = up;
type = BottomGhost;
},
{
horizontal = 1;
place = (166,89);
type = Stem;
},
{
horizontal = 1;
place = (447,89);
type = Stem;
}
);
layerId = "2FEAAE27-63B5-41AA-B98F-0872FA373B5B";
shapes = (
{
closed = 1;
nodes = (
(317,700,l),
(219,0,l),
(320,0,l),
(418,700,l)
);
},
{
closed = 1;
nodes = (
(602,700,l),
(504,0,l),
(605,0,l),
(703,700,l)
);
},
{
closed = 1;
nodes = (
(125,536,l),
(113,447,l),
(837,447,l),
(850,536,l)
);
},
{
closed = 1;
nodes = (
(86,255,l),
(73,166,l),
(798,166,l),
(810,255,l)
);
}
);
width = 922;
},
{
hints = (
{
horizontal = 1;
place = (0,21);
target = up;
type = BottomGhost;
},
{
horizontal = 1;
place = (176,65);
type = Stem;
},
{
horizontal = 1;
place = (461,65);
type = Stem;
},
{
place = (282,74);
type = Stem;
},
{
place = (566,74);
type = Stem;
}
);
layerId = "BBA9C4CC-16BF-4D96-9809-7FD759381829";
shapes = (
{
closed = 1;
nodes = (
(331,700,l),
(233,0,l),
(307,0,l),
(405,700,l)
);
},
{
closed = 1;
nodes = (
(615,700,l),
(517,0,l),
(591,0,l),
(689,700,l)
);
},
{
closed = 1;
nodes = (
(125,526,l),
(116,461,l),
(838,461,l),
(847,526,l)
);
},
{
closed = 1;
nodes = (
(85,241,l),
(76,176,l),
(798,176,l),
(807,241,l)
);
}
);
width = 922;
}
);
unicode = 35;
}
{
glyphname = dollar;
layers = (
{
hints = (
{
horizontal = 1;
place = (-10,62);
type = Stem;
},
{
horizontal = 1;
place = (648,62);
type = Stem;
},
{
place = (63,166);
type = Stem;
},
{
place = (238,126);
type = Stem;
},
{
place = (259,126);
type = Stem;
},
{
place = (388,167);
type = Stem;
}
);
layerId = "7A4E2608-894C-42C3-A821-B6FEA079E459";
shapes = (
{
closed = 1;
nodes = (
(176,-94,l),
(302,-94,l),
(322,52,l),
(196,52,l)
);
},
{
closed = 1;
nodes = (
(301,648,l),
(427,648,l),
(448,794,l),
(322,794,l)
);
},
{
closed = 1;
nodes = (
(380,564,o),
(418,554,o),
(458,534,cs),
(497,514,o),
(532,489,o),
(561,459,c),
(586,637,l),
(545,682,o),
(458,710,o),
(365,710,cs),
(266,710,o),
(183,673,o),
(132,609,cs),
(106,576,o),
(90,539,o),
(84,496,cs),
(70,397,o),
(115,345,o),
(220,302,cs),
(243,292,l),
(293,272,o),
(328,256,o),
(345,245,cs),
(363,233,o),
(370,218,o),
(367,201,cs),
(362,162,o),
(325,136,o),
(268,136,cs),
(193,136,o),
(112,177,o),
(48,241,c),
(23,63,l),
(48,40,o),
(81,23,o),
(122,10,cs),
(163,-4,o),
(205,-10,o),
(248,-10,cs),
(349,-10,o),
(435,26,o),
(487,90,cs),
(512,122,o),
(528,159,o),
(534,201,cs),
(542,256,o),
(530,299,o),
(500,331,cs),
(469,362,o),
(422,391,o),
(359,417,cs),
(315,435,o),
(286,450,o),
(271,462,cs),
(255,473,o),
(249,488,o),
(251,506,cs),
(256,541,o),
(293,564,o),
(344,564,cs)
);
}
);
width = 618;
},
{
hints = (
{
horizontal = 1;
place = (-10,46);
type = Stem;
},
{
horizontal = 1;
place = (664,46);
type = Stem;
}
);
layerId = "2FEAAE27-63B5-41AA-B98F-0872FA373B5B";
shapes = (
{
closed = 1;
nodes = (
(183,-94,l),
(262,-94,l),
(280,36,l),
(201,36,l)
);
},
{
closed = 1;
nodes = (
(310,664,l),
(389,664,l),
(408,794,l),
(329,794,l)
);
},
{
closed = 1;
nodes = (
(369,619,o),
(407,609,o),
(441,589,cs),
(476,568,o),
(505,538,o),
(530,498,c),
(547,621,l),
(508,677,o),
(427,710,o),
(342,710,cs),
(253,710,o),
(178,677,o),
(133,620,cs),
(110,591,o),
(97,558,o),
(91,519,cs),
(78,426,o),
(126,366,o),
(224,325,c),
(248,316,l),
(301,294,o),
(340,274,o),
(364,256,cs),
(388,237,o),
(397,213,o),
(393,185,cs),
(384,121,o),
(336,81,o),
(259,81,cs),
(176,81,o),
(101,126,o),
(47,209,c),
(30,86,l),
(54,56,o),
(85,33,o),
(125,16,cs),
(165,-2,o),
(206,-10,o),
(248,-10,cs),
(336,-10,o),
(410,24,o),
(455,83,cs),
(477,113,o),
(491,147,o),
(496,185,cs),
(503,237,o),
(492,280,o),
(461,310,cs),
(430,341,o),
(383,369,o),
(324,394,c),
(276,412,o),
(241,432,o),
(222,451,c),
(200,469,o),
(192,493,o),
(195,522,c),
(203,580,o),
(256,619,o),
(329,619,cs)
);
}
);
width = 586;
},
{
hints = (
{
horizontal = 1;
place = (-10,38);
type = Stem;
},
{
horizontal = 1;
place = (672,38);
type = Stem;
},
{
place = (69,73);
type = Stem;
},
{
place = (249,55);
type = Stem;
},
{
place = (270,55);
type = Stem;
},
{
place = (430,71);
type = Stem;
}
);
layerId = "BBA9C4CC-16BF-4D96-9809-7FD759381829";
shapes = (
{
closed = 1;
nodes = (
(187,-94,l),
(242,-94,l),
(259,28,l),
(204,28,l)
);
},
{
closed = 1;
nodes = (
(315,672,l),
(370,672,l),
(388,794,l),
(333,794,l)
);
},
{
closed = 1;
nodes = (
(364,647,o),
(401,637,o),
(433,616,cs),
(465,595,o),
(492,562,o),
(515,518,c),
(528,613,l),
(489,674,o),
(411,710,o),
(330,710,cs),
(246,710,o),
(175,679,o),
(133,625,cs),
(112,599,o),
(100,567,o),
(95,531,cs),
(82,440,o),
(131,377,o),
(226,337,c),
(251,328,l),
(305,305,o),
(346,283,o),
(373,261,cs),
(400,239,o),
(411,210,o),
(406,177,cs),
(395,101,o),
(342,53,o),
(254,53,cs),
(168,53,o),
(96,101,o),
(47,193,c),
(34,98,l),
(57,64,o),
(87,38,o),
(127,19,cs),
(166,-1,o),
(206,-10,o),
(248,-10,cs),
(329,-10,o),
(397,23,o),
(439,80,cs),
(460,108,o),
(472,141,o),
(477,177,cs),
(484,228,o),
(473,270,o),
(441,300,cs),
(410,331,o),
(364,358,o),
(307,382,c),
(256,401,o),
(219,423,o),
(197,445,cs),
(173,467,o),
(163,496,o),
(167,530,cs),
(177,599,o),
(238,647,o),
(322,647,cs)
);
}
);
width = 570;
}
);
unicode = 36;
}
{
glyphname = percent;
layers = (
{
hints = (
{
horizontal = 1;
place = (0,115);
type = Stem;
},
{
horizontal = 1;
place = (220,115);
type = Stem;
},
{
horizontal = 1;
place = (375,115);
type = Stem;
},
{
horizontal = 1;
place = (595,115);
type = Stem;
},
{
place = (92,115);
type = Stem;
},
{
place = (307,115);
type = Stem;
},
{
place = (542,115);
type = Stem;
},
{
place = (757,115);
type = Stem;
}
);
layerId = "7A4E2608-894C-42C3-A821-B6FEA079E459";
shapes = (
{
closed = 1;
nodes = (
(265,490,o),
(253,495,o),
(244,506,cs),
(236,517,o),
(232,529,o),
(234,543,cs),
(236,557,o),
(243,569,o),
(255,580,cs),
(266,590,o),
(280,595,o),
(292,595,cs),
(305,595,o),
(316,590,o),
(325,580,cs),
(333,569,o),
(336,557,o),
(334,543,cs),
(332,529,o),
(326,517,o),
(314,506,cs),
(303,495,o),
(290,490,o),
(277,490,cs)
);
},
{
closed = 1;
nodes = (
(249,710,o),
(191,678,o),
(154,627,cs),
(135,601,o),
(124,573,o),
(119,543,cs),
(111,483,o),
(135,428,o),
(182,398,cs),
(205,383,o),
(231,375,o),
(261,375,cs),
(321,375,o),
(378,407,o),
(416,459,cs),
(434,485,o),
(445,513,o),
(449,543,cs),
(458,603,o),
(433,658,o),
(388,688,cs),
(364,703,o),
(339,710,o),
(308,710,cs)
);
},
{
closed = 1;
nodes = (
(661,115,o),
(650,120,o),
(641,131,cs),
(633,142,o),
(630,154,o),
(632,168,cs),
(634,182,o),
(640,194,o),
(652,205,cs),
(663,215,o),
(676,220,o),
(689,220,cs),
(702,220,o),
(714,215,o),
(723,205,cs),
(731,194,o),
(734,182,o),
(732,168,cs),
(730,154,o),
(724,142,o),
(712,131,cs),
(701,120,o),
(687,115,o),
(674,115,cs)
);
},
{
closed = 1;
nodes = (
(646,335,o),
(589,303,o),
(551,252,cs),
(533,226,o),
(521,198,o),
(517,168,cs),
(508,108,o),
(532,53,o),
(579,23,cs),
(603,8,o),
(628,0,o),
(658,0,cs),
(717,0,o),
(775,32,o),
(813,84,cs),
(831,110,o),
(842,138,o),
(847,168,cs),
(855,228,o),
(831,283,o),
(785,313,cs),
(761,328,o),
(735,335,o),
(705,335,cs)
);
},
{
closed = 1;
nodes = (
(694,700,l),
(121,0,l),
(269,0,l),
(842,700,l)
);
}
);
width = 964;
},
{
hints = (
{
horizontal = 1;
place = (0,83);
type = Stem;
},
{
horizontal = 1;
place = (252,83);
type = Stem;
},
{
horizontal = 1;
place = (375,84);
type = Stem;
},
{
horizontal = 1;
place = (627,83);
type = Stem;
}
);
layerId = "2FEAAE27-63B5-41AA-B98F-0872FA373B5B";
shapes = (
{
closed = 1;
nodes = (
(252,459,o),
(236,467,o),
(221,484,c),
(208,501,o),
(202,520,o),
(205,543,cs),
(209,566,o),
(220,586,o),
(238,603,c),
(257,619,o),
(276,627,o),
(297,627,cs),
(320,627,o),
(337,619,o),
(350,603,cs),
(364,586,o),
(369,566,o),
(366,543,cs),
(363,520,o),
(352,501,o),
(333,484,c),
(316,467,o),
(296,459,o),
(274,459,cs)
);
},
{
closed = 1;
nodes = (
(251,710,o),
(193,678,o),
(157,627,cs),
(138,601,o),
(127,573,o),
(122,543,c),
(114,483,o),
(138,428,o),
(184,398,cs),
(206,383,o),
(233,375,o),
(262,375,cs),
(322,375,o),
(379,407,o),
(417,459,cs),
(435,485,o),
(445,513,o),
(449,543,cs),
(458,603,o),
(433,658,o),
(389,688,c),
(365,703,o),
(340,710,o),
(309,710,cs)
);
},
{
closed = 1;
nodes = (
(646,83,o),
(629,91,o),
(616,108,cs),
(602,125,o),
(597,145,o),
(600,168,cs),
(603,190,o),
(614,210,o),
(632,227,cs),
(650,244,o),
(670,252,o),
(692,252,cs),
(713,252,o),
(731,244,o),
(744,227,cs),
(758,210,o),
(763,190,o),
(761,168,c),
(757,145,o),
(746,125,o),
(728,108,cs),
(710,91,o),
(689,83,o),
(668,83,cs)
);
},
{
closed = 1;
nodes = (
(645,335,o),
(588,303,o),
(550,252,c),
(532,226,o),
(521,198,o),
(517,168,cs),
(508,108,o),
(531,53,o),
(578,23,cs),
(601,8,o),
(627,0,o),
(657,0,cs),
(715,0,o),
(773,32,o),
(810,84,cs),
(828,110,o),
(839,138,o),
(844,168,c),
(852,228,o),
(828,283,o),
(782,313,cs),
(759,328,o),
(733,335,o),
(704,335,cs)
);
},
{
closed = 1;
nodes = (
(715,700,l),
(147,0,l),
(248,0,l),
(816,700,l)
);
}
);
width = 964;
},
{
hints = (
{
horizontal = 1;
place = (0,67);
type = Stem;
},
{
horizontal = 1;
place = (268,67);
type = Stem;
},
{
horizontal = 1;
place = (375,68);
type = Stem;
},
{
horizontal = 1;
place = (643,67);
type = Stem;
},
{
place = (97,67);
type = Stem;
},
{
place = (355,67);
type = Stem;
},
{
place = (542,67);
type = Stem;
},
{
place = (800,67);
type = Stem;
}
);
layerId = "BBA9C4CC-16BF-4D96-9809-7FD759381829";
shapes = (
{
closed = 1;
nodes = (
(246,443,o),
(227,453,o),
(210,473,cs),
(194,492,o),
(187,515,o),
(191,543,cs),
(195,571,o),
(208,594,o),
(230,614,cs),
(252,633,o),
(274,643,o),
(300,643,cs),
(327,643,o),
(347,633,o),
(363,614,cs),
(379,594,o),
(386,571,o),
(382,543,cs),
(378,515,o),
(365,492,o),
(343,473,cs),
(322,453,o),
(299,443,o),
(272,443,cs)
);
},
{
closed = 1;
nodes = (
(252,710,o),
(194,678,o),
(158,627,cs),
(139,601,o),
(129,573,o),
(124,543,cs),
(116,483,o),
(139,428,o),
(185,398,cs),
(207,383,o),
(234,375,o),
(263,375,cs),
(322,375,o),
(380,407,o),
(417,459,cs),
(435,485,o),
(445,513,o),
(449,543,cs),
(458,603,o),
(433,658,o),
(389,688,cs),
(366,703,o),
(340,710,o),
(310,710,cs)
);
},
{
closed = 1;
nodes = (
(638,67,o),
(619,77,o),
(603,97,cs),
(586,117,o),
(580,140,o),
(584,168,cs),
(587,194,o),
(601,218,o),
(622,238,cs),
(644,258,o),
(667,268,o),
(694,268,cs),
(719,268,o),
(739,258,o),
(755,238,cs),
(772,218,o),
(778,194,o),
(775,168,cs),
(771,140,o),
(757,117,o),
(736,97,cs),
(714,77,o),
(690,67,o),
(665,67,cs)
);
},
{
closed = 1;
nodes = (
(645,335,o),
(587,303,o),
(550,252,cs),
(532,226,o),
(521,198,o),
(517,168,cs),
(508,108,o),
(531,53,o),
(577,23,cs),
(600,8,o),
(627,0,o),
(656,0,cs),
(714,0,o),
(772,32,o),
(809,84,cs),
(827,110,o),
(837,138,o),
(842,168,cs),
(850,228,o),
(826,283,o),
(781,313,cs),
(758,328,o),
(732,335,o),
(703,335,cs)
);
},
{
closed = 1;
nodes = (
(725,700,l),
(160,0,l),
(238,0,l),
(803,700,l)
);
}
);
width = 964;
}
);
unicode = 37;
}
{
glyphname = ampersand;
layers = (
{
layerId = "5F1069EF-7233-42B2-A641-1D5303479095";
shapes = (
{
closed = 1;
nodes = (
(428,138,l),
(282,322,l),
(269,337,o),
(258,352,o),
(249,365,cs),
(240,378,o),
(232,389,o),
(225,400,cs),
(216,413,o),
(208,427,o),
(202,442,cs),
(199,450,o),
(197,457,o),
(195,465,cs),
(191,477,o),
(189,489,o),
(189,502,c),
(188,515,o),
(189,528,o),
(191,542,cs),
(192,549,o),
(194,556,o),
(196,563,cs),
(202,584,o),
(212,604,o),
(227,623,cs),
(231,628,o),
(235,633,o),
(240,638,cs),
(258,656,o),
(280,672,o),
(307,686,cs),
(334,699,o),
(363,706,o),
(396,709,cs),
(404,710,o),
(412,710,o),
(421,710,cs),
(446,710,o),
(468,707,o),
(488,702,cs),
(501,699,o),
(513,694,o),
(524,688,cs),
(538,680,o),
(550,671,o),
(560,661,cs),
(570,651,o),
(579,640,o),
(585,628,cs),
(598,603,o),
(602,575,o),
(597,545,c),
(592,504,o),
(574,468,o),
(544,435,cs),
(513,402,o),
(473,373,o),
(424,348,c),
(369,420,l),
(378,426,o),
(386,432,o),
(393,438,cs),
(408,450,o),
(420,462,o),
(430,474,cs),
(439,486,o),
(446,498,o),
(450,510,cs),
(453,517,o),
(454,523,o),
(455,529,c),
(455,529,o),
(455,529,o),
(455,529,c),
(457,544,o),
(454,558,o),
(446,569,cs),
(437,580,o),
(425,585,o),
(409,585,c),
(409,585,o),
(409,585,o),
(409,585,c),
(394,585,o),
(380,580,o),
(368,570,c),
(368,570,o),
(368,570,o),
(368,570,c),
(356,559,o),
(349,546,o),
(346,529,c),
(346,529,o),
(346,529,o),
(346,529,c),
(346,529,o),
(346,529,o),
(346,529,c),
(345,518,o),
(346,506,o),
(351,493,cs),
(353,486,o),
(357,479,o),
(361,472,cs),
(363,467,o),
(367,461,o),
(370,455,cs),
(381,438,o),
(396,419,o),
(414,398,cs),
(552,235,l),
(568,224,l),
(583,213,l),
(598,194,l),
(750,0,l),
(541,0,l),
(460,112,l)
);
},
{
closed = 1;
nodes = (
(204,-10,o),
(169,-2,o),
(139,13,cs),
(109,28,o),
(87,49,o),
(72,76,cs),
(60,97,o),
(54,122,o),
(55,149,c),
(55,156,o),
(56,163,o),
(57,170,cs),
(64,222,o),
(87,268,o),
(125,308,cs),
(162,348,o),
(216,383,o),
(285,414,c),
(353,330,l),
(312,309,o),
(283,289,o),
(264,271,c),
(264,271,o),
(264,271,o),
(264,271,c),
(245,253,o),
(233,233,o),
(230,210,c),
(230,210,o),
(230,210,o),
(230,210,c),
(227,189,o),
(233,171,o),
(247,158,c),
(260,144,o),
(279,137,o),
(304,136,cs),
(332,135,o),
(358,141,o),
(383,154,cs),
(407,166,o),
(433,184,o),
(461,207,c),
(543,107,l),
(494,69,o),
(447,40,o),
(400,20,cs),
(353,0,o),
(301,-10,o),
(244,-10,cs)
);
},
{
closed = 1;
nodes = (
(505,242,l),
(563,287,o),
(609,348,o),
(643,423,c),
(800,423,l),
(780,373,o),
(752,324,o),
(715,276,cs),
(678,228,o),
(636,185,o),
(590,147,c)
);
}
);
width = 863;
},
{
layerId = "8E1BB1C9-5399-4481-B652-0152E5DB95F4";
shapes = (
{
closed = 1;
nodes = (
(456,142,l),
(293,336,ls),
(278,353,o),
(265,370,o),
(251,386,c),
(243,397,o),
(235,406,o),
(229,415,cs),
(221,425,o),
(215,435,o),
(210,445,cs),
(207,451,o),
(204,457,o),
(202,463,c),
(196,474,o),
(193,486,o),
(190,499,cs),
(187,511,o),
(187,524,o),
(188,538,c),
(188,545,o),
(189,552,o),
(190,559,cs),
(195,582,o),
(203,603,o),
(215,622,cs),
(218,627,o),
(223,633,o),
(227,639,c),
(245,660,o),
(266,677,o),
(293,690,cs),
(319,702,o),
(349,709,o),
(382,710,c),
(391,710,o),
(399,710,o),
(406,709,cs),
(431,707,o),
(451,703,o),
(469,695,cs),
(479,691,o),
(488,686,o),
(495,681,cs),
(509,671,o),
(519,659,o),
(527,646,c),
(530,642,o),
(533,639,o),
(535,635,cs),
(546,610,o),
(549,583,o),
(545,552,cs),
(540,515,o),
(522,480,o),
(492,448,cs),
(461,416,o),
(420,386,o),
(369,359,c),
(327,412,l),
(345,423,o),
(361,433,o),
(374,442,cs),
(390,453,o),
(403,465,o),
(414,477,cs),
(424,489,o),
(433,501,o),
(438,514,cs),
(441,520,o),
(443,527,o),
(445,534,cs),
(446,538,o),
(447,543,o),
(448,548,cs),
(451,571,o),
(447,589,o),
(435,604,c),
(425,614,o),
(412,620,o),
(397,622,c),
(392,624,o),
(386,624,o),
(380,624,cs),
(362,624,o),
(347,621,o),
(333,613,cs),
(328,610,o),
(324,607,o),
(320,604,cs),
(307,593,o),
(299,580,o),
(294,564,c),
(292,560,o),
(291,554,o),
(290,548,cs),
(289,540,o),
(289,532,o),
(290,526,c),
(290,515,o),
(292,504,o),
(297,494,c),
(300,485,o),
(306,476,o),
(312,467,cs),
(317,459,o),
(324,450,o),
(331,440,c),
(346,423,o),
(361,404,o),
(379,385,c),
(522,220,l),
(538,204,l),
(549,196,l),
(560,185,l),
(715,0,l),
(576,0,l),
(477,126,l)
);
},
{
closed = 1;
nodes = (
(194,-10,o),
(161,-3,o),
(134,12,c),
(106,25,o),
(87,45,o),
(75,69,cs),
(63,92,o),
(59,117,o),
(62,146,c),
(62,153,o),
(63,160,o),
(65,167,cs),
(75,216,o),
(100,261,o),
(141,303,cs),
(178,341,o),
(227,375,o),
(290,407,c),
(338,347,l),
(288,321,o),
(251,295,o),
(225,270,cs),
(221,267,o),
(219,264,o),
(216,261,cs),
(198,242,o),
(184,222,o),
(177,199,c),
(173,190,o),
(171,180,o),
(169,170,c),
(166,143,o),
(172,121,o),
(187,105,cs),
(202,89,o),
(224,81,o),
(255,81,c),
(291,80,o),
(327,88,o),
(362,105,cs),
(397,121,o),
(435,147,o),
(476,183,c),
(528,122,l),
(483,80,o),
(436,47,o),
(386,25,c),
(336,1,o),
(285,-10,o),
(232,-10,cs)
);
},
{
closed = 1;
nodes = (
(497,199,l),
(565,262,o),
(617,337,o),
(654,423,c),
(756,423,l),
(735,372,o),
(707,323,o),
(672,275,cs),
(636,226,o),
(595,181,o),
(551,140,c)
);
}
);
width = 836;
},
{
layerId = "DD0681D4-613B-4E2A-9B2E-3AB0BAB5AD9A";
shapes = (
{
closed = 1;
nodes = (
(470,144,l),
(299,343,ls),
(283,361,o),
(268,379,o),
(252,397,cs),
(244,406,o),
(237,414,o),
(231,423,c),
(224,431,o),
(219,439,o),
(214,447,cs),
(211,452,o),
(208,457,o),
(205,462,cs),
(199,473,o),
(195,485,o),
(191,497,cs),
(187,509,o),
(186,522,o),
(186,536,cs),
(186,543,o),
(186,550,o),
(187,557,cs),
(191,581,o),
(198,602,o),
(209,621,cs),
(212,627,o),
(217,633,o),
(221,639,cs),
(238,662,o),
(259,680,o),
(286,692,cs),
(312,704,o),
(342,710,o),
(375,710,cs),
(384,710,o),
(392,710,o),
(399,709,cs),
(423,706,o),
(443,701,o),
(460,691,cs),
(468,687,o),
(475,682,o),
(481,677,cs),
(494,666,o),
(503,653,o),
(510,638,c),
(510,638,o),
(510,638,o),
(510,638,c),
(520,614,o),
(523,587,o),
(519,556,cs),
(514,520,o),
(496,486,o),
(466,455,cs),
(435,423,o),
(394,393,o),
(341,365,c),
(306,408,l),
(329,421,o),
(348,433,o),
(365,444,cs),
(381,455,o),
(395,467,o),
(406,479,cs),
(417,490,o),
(426,503,o),
(432,516,cs),
(435,522,o),
(438,529,o),
(440,536,cs),
(442,543,o),
(443,550,o),
(444,558,cs),
(448,584,o),
(443,605,o),
(429,621,cs),
(419,631,o),
(406,638,o),
(391,641,cs),
(383,643,o),
(374,644,o),
(365,644,cs),
(346,644,o),
(330,641,o),
(315,634,cs),
(308,630,o),
(302,626,o),
(296,621,cs),
(283,610,o),
(274,597,o),
(268,582,cs),
(265,575,o),
(263,567,o),
(262,558,cs),
(261,545,o),
(261,534,o),
(262,524,cs),
(263,513,o),
(265,503,o),
(270,494,c),
(274,484,o),
(280,474,o),
(287,465,cs),
(294,455,o),
(302,444,o),
(312,433,cs),
(328,415,o),
(344,396,o),
(361,378,c),
(507,212,l),
(523,194,l),
(532,187,l),
(541,180,l),
(697,0,l),
(594,0,l),
(485,133,l)
);
},
{
closed = 1;
nodes = (
(189,-10,o),
(157,-3,o),
(131,11,cs),
(105,24,o),
(87,43,o),
(76,66,cs),
(65,89,o),
(61,115,o),
(65,144,cs),
(66,151,o),
(67,158,o),
(69,165,cs),
(80,213,o),
(107,258,o),
(149,301,cs),
(186,337,o),
(233,371,o),
(292,403,c),
(330,356,l),
(276,327,o),
(235,298,o),
(205,270,cs),
(200,265,o),
(196,261,o),
(192,256,cs),
(174,236,o),
(160,216,o),
(151,194,cs),
(145,180,o),
(141,165,o),
(139,150,cs),
(135,120,o),
(141,96,o),
(157,79,cs),
(173,62,o),
(197,53,o),
(230,53,cs),
(271,53,o),
(312,62,o),
(352,80,cs),
(392,98,o),
(436,128,o),
(484,171,c),
(521,130,l),
(477,85,o),
(430,51,o),
(379,27,cs),
(328,2,o),
(277,-10,o),
(226,-10,cs)
);
},
{
closed = 1;
nodes = (
(493,177,l),
(566,249,o),
(621,331,o),
(660,423,c),
(734,423,l),
(713,372,o),
(685,323,o),
(650,274,cs),
(615,225,o),
(575,179,o),
(532,137,c)
);
}
);
width = 822;
}
);
unicode = 38;
}
{
glyphname = quotesingle;
layers = (
{
hints = (
{
place = (63,147);
type = Stem;
}
);
layerId = "7A4E2608-894C-42C3-A821-B6FEA079E459";
shapes = (
{
closed = 1;
nodes = (
(139,391,o),
(147,391,o),
(155,409,cs),
(168,437,o),
(189,482,o),
(213,546,cs),
(238,609,o),
(253,657,o),
(258,692,cs),
(265,742,o),
(241,775,o),
(196,775,cs),
(153,775,o),
(118,742,o),
(111,692,cs),
(106,657,o),
(108,609,o),
(115,546,cs),
(122,482,o),
(128,437,o),
(134,409,cs)
);
}
);
width = 272;
},
{
layerId = "2FEAAE27-63B5-41AA-B98F-0872FA373B5B";
shapes = (
{
closed = 1;
nodes = (
(120,423,o),
(128,423,o),
(136,441,c),
(146,460,o),
(160,497,o),
(176,550,cs),
(193,603,o),
(204,647,o),
(210,684,cs),
(215,721,o),
(198,744,o),
(168,744,cs),
(138,744,o),
(115,721,o),
(110,684,cs),
(105,647,o),
(103,603,o),
(106,550,cs),
(108,497,o),
(110,460,o),
(115,441,cs)
);
}
);
width = 225;
},
{
hints = (
{
place = (63,76);
type = Stem;
}
);
layerId = "BBA9C4CC-16BF-4D96-9809-7FD759381829";
shapes = (
{
closed = 1;
nodes = (
(111,439,o),
(119,439,o),
(126,457,c),
(135,471,o),
(145,504,o),
(158,552,cs),
(171,600,o),
(180,642,o),
(186,680,cs),
(190,710,o),
(176,728,o),
(154,728,cs),
(131,728,o),
(114,710,o),
(110,680,cs),
(104,642,o),
(101,600,o),
(101,552,cs),
(101,504,o),
(101,471,o),
(105,457,cs)
);
}
);
width = 202;
}
);
unicode = 39;
}
{
glyphname = parenright;
layers = (
{
layerId = "5719F410-C0E5-43AE-88FA-B4FFDEE24CB8";
shapes = (
{
closed = 1;
nodes = (
(384.857,454,o),
(370.286,555,o),
(325.143,631,c),
(278.714,705,o),
(225.714,761,o),
(165.571,795,c),
(125.,728,l),
(166.,693,o),
(199.429,640,o),
(223.571,571,cs),
(248.714,502,o),
(255.,420,o),
(241.429,325,cs),
(222.429,192,o),
(167.286,72,o),
(102.143,-13,c),
(69.286,-54,o),
(36.429,-88,o),
(5.,-112,c),
(26.429,-179,l),
(98.714,-135,o),
(169.714,-72,o),
(237.286,9,cs),
(303.857,90,o),
(348.,196,o),
(366.429,325,cs)
);
}
);
width = 424;
},
{
layerId = "749AE4FF-5243-4D3F-AC67-AE9DCC0EE297";
shapes = (
{
closed = 1;
nodes = (
(375.857,447,o),
(363.286,548,o),
(319.143,624,c),
(277.143,701,o),
(225.429,759,o),
(165.571,795,c),
(127.429,745,l),
(173.143,708,o),
(212.429,654,o),
(242.286,583,cs),
(271.286,513,o),
(279.,427,o),
(264.429,325,cs),
(244.286,184,o),
(181.571,60,o),
(109.143,-27,cs),
(73.143,-69,o),
(37.143,-104,o),
(2.571,-129,c),
(26.429,-179,l),
(97.857,-134,o),
(167.143,-69,o),
(233.143,15,cs),
(299.,98,o),
(340.714,201,o),
(358.429,325,cs)
);
}
);
width = 417;
},
{
layerId = "9DBD663E-71C9-4E39-B4BC-5CF5923FD470";
shapes = (
{
closed = 1;
nodes = (
(371.429,444,o),
(359.714,544,o),
(316.714,621,c),
(275.857,699,o),
(225.286,758,o),
(165.571,795,c),
(128.571,753,l),
(177.286,716,o),
(219.429,661,o),
(251.143,589,cs),
(283.,518,o),
(291.429,430,o),
(276.429,325,cs),
(255.714,180,o),
(188.714,54,o),
(113.143,-34,cs),
(75.,-77,o),
(38.,-112,o),
(1.429,-137,c),
(26.429,-179,l),
(98.,-133,o),
(165.429,-67,o),
(230.571,18,cs),
(296.571,102,o),
(337.143,204,o),
(354.429,325,cs)
);
}
);
width = 413;
}
);
unicode = 41;
}
{
glyphname = asterisk;
layers = (
{
layerId = "7A4E2608-894C-42C3-A821-B6FEA079E459";
shapes = (
{
closed = 1;
nodes = (
(374,792,ls),
(385,819,o),
(383,838,o),
(363,849,cs),
(345,860,o),
(325,860,o),
(303,849,cs),
(282,838,o),
(272,819,o),
(275,792,cs),
(290,635,l),
(231,478,l),
(221,452,o),
(225,434,o),
(244,424,cs),
(262,413,o),
(282,413,o),
(304,424,cs),
(325,434,o),
(334,452,o),
(330,478,c),
(315,635,l)
);
},
{
closed = 1;
nodes = (
(461,669,l),
(488,676,o),
(502,692,o),
(504,715,cs),
(507,738,o),
(499,756,o),
(482,769,cs),
(465,782,o),
(445,779,o),
(425,760,cs),
(298,647,l),
(144,603,ls),
(118,596,o),
(105,580,o),
(102,557,cs),
(100,534,o),
(108,516,o),
(125,503,cs),
(142,490,o),
(160,492,o),
(181,511,cs),
(308,624,l)
);
},
{
closed = 1;
nodes = (
(217,760,ls),
(201,779,o),
(183,782,o),
(162,769,cs),
(141,756,o),
(129,738,o),
(124,715,cs),
(120,692,o),
(129,676,o),
(154,669,c),
(295,624,l),
(391,511,ls),
(406,492,o),
(424,490,o),
(445,503,cs),
(466,516,o),
(478,534,o),
(482,557,cs),
(487,580,o),
(477,596,o),
(453,603,cs),
(311,647,l)
);
}
);
width = 525;
},
{
layerId = "2FEAAE27-63B5-41AA-B98F-0872FA373B5B";
shapes = (
{
closed = 1;
nodes = (
(349,793,l),
(355,815,o),
(353,830,o),
(340,839,cs),
(327,849,o),
(313,849,o),
(298,839,c),
(283,831,o),
(276,818,o),
(278,799,c),
(281,635,l),
(232,471,l),
(225,453,o),
(228,441,o),
(242,433,c),
(253,424,o),
(267,424,o),
(283,433,cs),
(298,442,o),
(305,457,o),
(304,477,c),
(301,635,l)
);
},
{
closed = 1;
nodes = (
(444,682,ls),
(465,690,o),
(477,702,o),
(480,719,cs),
(484,736,o),
(478,748,o),
(465,756,cs),
(452,764,o),
(436,761,o),
(418,746,c),
(286,645,l),
(135,589,ls),
(115,581,o),
(103,569,o),
(100,553,cs),
(97,536,o),
(103,524,o),
(116,516,cs),
(129,507,o),
(145,510,o),
(162,525,c),
(293,626,l)
);
},
{
closed = 1;
nodes = (
(194,746,l),
(180,761,o),
(165,764,o),
(149,756,cs),
(134,748,o),
(126,736,o),
(123,719,cs),
(121,702,o),
(130,690,o),
(149,682,cs),
(284,626,l),
(388,525,l),
(401,510,o),
(416,507,o),
(431,516,c),
(447,523,o),
(455,535,o),
(457,552,cs),
(459,569,o),
(451,581,o),
(432,589,cs),
(297,645,l)
);
}
);
width = 500;
},
{
layerId = "BBA9C4CC-16BF-4D96-9809-7FD759381829";
shapes = (
{
closed = 1;
nodes = (
(336,794,ls),
(340,813,o),
(338,826,o),
(328,834,cs),
(318,843,o),
(307,843,o),
(296,834,c),
(284,828,o),
(278,818,o),
(279,803,c),
(276,635,l),
(232,467,l),
(227,454,o),
(230,444,o),
(241,438,c),
(248,429,o),
(259,429,o),
(273,438,cs),
(285,446,o),
(291,459,o),
(291,476,cs),
(294,635,l)
);
},
{
closed = 1;
nodes = (
(435,688,l),
(453,697,o),
(465,707,o),
(468,721,cs),
(472,735,o),
(468,744,o),
(456,750,cs),
(445,755,o),
(432,752,o),
(415,739,c),
(280,644,l),
(131,582,ls),
(113,574,o),
(102,564,o),
(99,551,cs),
(96,537,o),
(100,528,o),
(111,522,cs),
(123,516,o),
(137,519,o),
(152,532,c),
(286,627,l)
);
},
{
closed = 1;
nodes = (
(182,739,l),
(170,752,o),
(156,755,o),
(143,750,cs),
(131,744,o),
(124,735,o),
(123,721,cs),
(122,707,o),
(131,697,o),
(147,688,c),
(278,627,l),
(386,532,l),
(399,519,o),
(412,516,o),
(424,522,cs),
(437,527,o),
(444,536,o),
(444,550,cs),
(445,564,o),
(438,574,o),
(421,582,cs),
(290,644,l)
);
}
);
width = 487;
}
);
unicode = 42;
}
{
glyphname = plus;
layers = (
{
layerId = "F0E59F11-1D58-42A6-80E9-36273FBB34FC";
shapes = (
{
closed = 1;
nodes = (
(624,251,l),
(79,251,l),
(97,377,l),
(642,377,l)
);
},
{
closed = 1;
nodes = (
(461,587,l),
(385,42,l),
(259,42,l),
(335,587,l)
);
}
);
width = 713;
},
{
layerId = "3B93B69D-E33D-48F3-A278-6EAB673A7F94";
shapes = (
{
closed = 1;
nodes = (
(627,267,l),
(82,267,l),
(95,361,l),
(640,361,l)
);
},
{
closed = 1;
nodes = (
(446,587,l),
(369,42,l),
(275,42,l),
(352,587,l)
);
}
);
width = 713;
},
{
layerId = "0D25A9BA-90DE-440E-BC4F-74EEDE6C6E67";
shapes = (
{
closed = 1;
nodes = (
(628,275,l),
(83,275,l),
(94,353,l),
(639,353,l)
);
},
{
closed = 1;
nodes = (
(438,587,l),
(361,42,l),
(283,42,l),
(360,587,l)
);
}
);
width = 713;
}
);
unicode = 43;
}
{
glyphname = comma;
layers = (
{
layerId = "AE25C586-C738-4B48-9E5B-2AB1177ED30E";
name = "#instance";
shapes = (
{
closed = 1;
nodes = (
(86,133,o),
(54,105,o),
(54,62,cs),
(54,36,o),
(67,31,o),
(92,25,cs),
(117,20,o),
(130,15,o),
(130,-10,cs),
(130,-58,o),
(101,-108,o),
(47,-156,c),
(34,-169,o),
(36,-181,o),
(48,-184,cs),
(53,-186,o),
(59,-185,o),
(67,-181,cs),
(113,-154,o),
(149,-120,o),
(177,-82,c),
(204,-43,o),
(219,-3,o),
(219,34,cs),
(219,94,o),
(184,133,o),
(131,133,cs)
);
}
);
width = 282;
},
{
layerId = "5719F410-C0E5-43AE-88FA-B4FFDEE24CB8";
shapes = (
{
closed = 1;
nodes = (
(90.,189,o),
(42.714,152,o),
(34.429,94,cs),
(30.429,66,o),
(42.286,58,o),
(70.571,46,cs),
(99.,35,o),
(114.429,24,o),
(109.571,-10,cs),
(102.714,-58,o),
(61.143,-111,o),
(-0.429,-157,cs),
(-18.286,-170,o),
(-18.857,-188,o),
(-5.714,-194,cs),
(-0.143,-197,o),
(8.,-196,o),
(16.571,-192,cs),
(78.,-161,o),
(130.286,-124,o),
(173.714,-79,cs),
(217.143,-34,o),
(243.,14,o),
(250.,63,cs),
(260.714,138,o),
(223.,189,o),
(153.,189,cs)
);
}
);
width = 346;
},
{
layerId = "749AE4FF-5243-4D3F-AC67-AE9DCC0EE297";
shapes = (
{
closed = 1;
nodes = (
(63.,133,o),
(27.,105,o),
(20.857,62,cs),
(17.143,36,o),
(29.429,31,o),
(53.571,25,cs),
(77.857,20,o),
(90.143,15,o),
(86.571,-10,cs),
(79.714,-58,o),
(43.571,-108,o),
(-17.286,-156,c),
(-32.143,-169,o),
(-31.857,-181,o),
(-20.286,-184,cs),
(-15.571,-186,o),
(-9.429,-185,o),
(-0.857,-181,cs),
(49.,-154,o),
(89.857,-120,o),
(123.286,-82,c),
(155.857,-43,o),
(176.571,-3,o),
(181.857,34,cs),
(190.429,94,o),
(161.,133,o),
(108.,133,cs)
);
}
);
width = 282;
},
{
layerId = "9DBD663E-71C9-4E39-B4BC-5CF5923FD470";
shapes = (
{
closed = 1;
nodes = (
(49.,105,o),
(18.714,82,o),
(13.571,46,cs),
(10.,21,o),
(22.429,17,o),
(45.143,15,cs),
(66.857,13,o),
(77.429,10,o),
(74.571,-10,cs),
(67.714,-58,o),
(34.857,-106,o),
(-25.286,-156,cs),
(-39.,-168,o),
(-38.286,-177,o),
(-27.571,-179,cs),
(-22.714,-180,o),
(-17.571,-179,o),
(-10.143,-176,c),
(34.429,-151,o),
(70.143,-118,o),
(98.,-84,c),
(125.143,-48,o),
(143.286,-12,o),
(147.857,20,cs),
(155.286,72,o),
(130.,105,o),
(85.,105,cs)
);
}
);
width = 250;
}
);
leftKerningGroup = comma2;
rightKerningGroup = comma;
unicode = 44;
}
{
glyphname = hyphen;
layers = (
{
hints = (
{
horizontal = 1;
place = (230,126);
type = Stem;
},
{
place = (72,318);
type = Stem;
}
);
layerId = "7A4E2608-894C-42C3-A821-B6FEA079E459";
shapes = (
{
closed = 1;
nodes = (
(55,230,l),
(373,230,l),
(391,356,l),
(73,356,l)
);
}
);
width = 461;
},
{
hints = (
{
horizontal = 1;
place = (245,95);
type = Stem;
}
);
layerId = "2FEAAE27-63B5-41AA-B98F-0872FA373B5B";
shapes = (
{
closed = 1;
nodes = (
(58,245,l),
(376,245,l),
(389,340,l),
(71,340,l)
);
}
);
width = 461;
},
{
hints = (
{
horizontal = 1;
place = (253,79);
type = Stem;
},
{
place = (72,318);
type = Stem;
}
);
layerId = "BBA9C4CC-16BF-4D96-9809-7FD759381829";
shapes = (
{
closed = 1;
nodes = (
(59,253,l),
(377,253,l),
(388,332,l),
(70,332,l)
);
}
);
width = 461;
}
);
unicode = 45;
}
{
glyphname = period;
layers = (
{
hints = (
{
horizontal = 1;
place = (-10,188);
type = Stem;
},
{
place = (63,209);
type = Stem;
}
);
layerId = "7A4E2608-894C-42C3-A821-B6FEA079E459";
shapes = (
{
closed = 1;
nodes = (
(179,-10,o),
(227,29,o),
(235,84,cs),
(243,139,o),
(205,178,o),
(144,178,cs),
(82,178,o),
(33,138,o),
(26,84,cs),
(18,29,o),
(58,-10,o),
(118,-10,cs)
);
}
);
width = 335;
},
{
hints = (
{
horizontal = 1;
place = (-10,133);
type = Stem;
}
);
layerId = "2FEAAE27-63B5-41AA-B98F-0872FA373B5B";
shapes = (
{
closed = 1;
nodes = (
(122,-10,o),
(154,17,o),
(160,56,cs),
(165,95,o),
(141,123,o),
(101,123,cs),
(59,123,o),
(27,96,o),
(22,56,cs),
(17,18,o),
(41,-10,o),
(83,-10,cs)
);
}
);
width = 264;
},
{
hints = (
{
horizontal = 1;
place = (-10,105);
type = Stem;
},
{
place = (63,102);
type = Stem;
}
);
layerId = "BBA9C4CC-16BF-4D96-9809-7FD759381829";
shapes = (
{
closed = 1;
nodes = (
(94,-10,o),
(118,11,o),
(122,42,cs),
(126,73,o),
(109,95,o),
(79,95,cs),
(48,95,o),
(24,74,o),
(20,42,cs),
(16,12,o),
(33,-10,o),
(65,-10,cs)
);
}
);
width = 228;
}
);
leftKerningGroup = comma2;
rightKerningGroup = comma;
unicode = 46;
}
{
glyphname = slash;
layers = (
{
layerId = "6377F2BA-02BD-49C5-9B81-A1BD44C27745";
shapes = (
{
closed = 1;
nodes = (
(433,792,l),
(571,792,l),
(97,-147,l),
(-40,-147,l)
);
}
);
width = 521;
},
{
layerId = "4D5D236C-3626-44C9-B9AA-2206EC1912DB";
shapes = (
{
closed = 1;
nodes = (
(417,792,l),
(492,792,l),
(40,-100,l),
(-33,-100,l)
);
}
);
width = 442;
},
{
layerId = "09BE0123-C991-42EB-87B9-55839D2F6983";
shapes = (
{
closed = 1;
nodes = (
(409,792,l),
(452,792,l),
(12,-76,l),
(-30,-76,l)
);
}
);
width = 402;
}
);
unicode = 47;
}
{
glyphname = zero;
layers = (
{
anchors = (
{
name = t.uni0335;
position = "{331, 350}";
}
);
layerId = "5719F410-C0E5-43AE-88FA-B4FFDEE24CB8";
shapes = (
{
closed = 1;
nodes = (
(368.571,-10,o),
(442.,21,o),
(501.143,85,cs),
(560.286,149,o),
(597.857,237,o),
(614.,350,cs),
(630.143,463,o),
(617.714,551,o),
(576.857,615,cs),
(536.,679,o),
(471.429,710,o),
(382.429,710,cs),
(264.429,710,o),
(172.143,652,o),
(110.714,544,c),
(80.857,489,o),
(60.571,424,o),
(50.,350,cs),
(28.571,200,o),
(58.857,90,o),
(134.571,32,cs),
(172.571,4,o),
(220.571,-10,o),
(279.571,-10,cs)
);
},
{
closed = 1;
nodes = (
(225.429,136,o),
(197.857,209,o),
(218.,350,cs),
(238.143,491,o),
(286.571,564,o),
(361.571,564,cs),
(436.571,564,o),
(465.857,489,o),
(446.,350,cs),
(426.143,211,o),
(375.429,136,o),
(300.429,136,cs)
);
}
);
width = 648;
},
{
anchors = (
{
name = t.uni0335;
position = "{331, 350}";
}
);
layerId = "749AE4FF-5243-4D3F-AC67-AE9DCC0EE297";
shapes = (
{
closed = 1;
nodes = (
(354.571,-10,o),
(423.,21,o),
(477.,84,cs),
(530.857,146,o),
(565.571,235,o),
(582.,350,cs),
(598.429,465,o),
(589.143,554,o),
(553.,616,cs),
(517.,679,o),
(457.429,710,o),
(375.429,710,cs),
(264.429,710,o),
(179.286,653,o),
(123.857,545,cs),
(96.286,492,o),
(76.714,425,o),
(66.,350,cs),
(44.143,197,o),
(69.571,88,o),
(138.429,31,cs),
(172.429,3,o),
(217.571,-10,o),
(272.571,-10,cs)
);
},
{
closed = 1;
nodes = (
(184.571,81,o),
(146.143,176,o),
(171.,350,cs),
(195.857,524,o),
(261.429,619,o),
(362.429,619,cs),
(461.429,619,o),
(502.714,523,o),
(478.,350,cs),
(453.286,177,o),
(384.571,81,o),
(285.571,81,cs)
);
}
);
width = 632;
},
{
anchors = (
{
name = t.uni0335;
position = "{331, 350}";
}
);
layerId = "9DBD663E-71C9-4E39-B4BC-5CF5923FD470";
shapes = (
{
closed = 1;
nodes = (
(347.571,-10,o),
(414.,21,o),
(464.857,83,cs),
(515.571,144,o),
(549.429,234,o),
(566.,350,cs),
(582.571,466,o),
(574.429,556,o),
(541.143,617,cs),
(508.,679,o),
(450.429,710,o),
(371.429,710,cs),
(264.429,710,o),
(182.429,654,o),
(130.,546,c),
(103.571,494,o),
(84.857,426,o),
(74.,350,cs),
(51.857,195,o),
(74.429,87,o),
(140.429,31,cs),
(172.429,3,o),
(215.571,-10,o),
(268.571,-10,cs)
);
},
{
closed = 1;
nodes = (
(164.571,53,o),
(119.857,160,o),
(147.,350,cs),
(174.143,540,o),
(249.429,647,o),
(362.429,647,cs),
(474.429,647,o),
(521.143,540,o),
(494.,350,cs),
(466.857,160,o),
(389.571,53,o),
(277.571,53,cs)
);
}
);
width = 624;
}
);
unicode = 48;
}
{
glyphname = one;
layers = (
{
hints = (
{
horizontal = 1;
place = (0,21);
target = up;
type = BottomGhost;
},
{
place = (225,167);
type = Stem;
}
);
layerId = "5F1069EF-7233-42B2-A641-1D5303479095";
shapes = (
{
closed = 1;
nodes = (
(80,595,l),
(61,459,l),
(249,517,l),
(176,0,l),
(343,0,l),
(443,710,l),
(433,710,l)
);
}
);
width = 482;
},
{
hints = (
{
horizontal = 1;
place = (0,21);
target = up;
type = BottomGhost;
}
);
layerId = "8E1BB1C9-5399-4481-B652-0152E5DB95F4";
shapes = (
{
closed = 1;
nodes = (
(82,611,l),
(70,522,l),
(258,586,l),
(176,0,l),
(280,0,l),
(380,710,l),
(370,710,l)
);
}
);
width = 435;
},
{
hints = (
{
horizontal = 1;
place = (0,21);
target = up;
type = BottomGhost;
},
{
place = (225,72);
type = Stem;
}
);
layerId = "DD0681D4-613B-4E2A-9B2E-3AB0BAB5AD9A";
shapes = (
{
closed = 1;
nodes = (
(83,619,l),
(74,554,l),
(263,620,l),
(176,0,l),
(248,0,l),
(348,710,l),
(338,710,l)
);
}
);
width = 411;
}
);
unicode = 49;
}
{
glyphname = two;
layers = (
{
layerId = "452014E6-FE56-49E1-9353-01B400A3FB86";
shapes = (
{
closed = 1;
nodes = (
(473,0,l),
(2,0,l),
(14,84,l),
(231,309,ls),
(259,337,o),
(282,363,o),
(300,387,cs),
(304,393,o),
(308,399,o),
(312,405,c),
(312,405,o),
(312,405,o),
(312,405,c),
(330,433,o),
(341,459,o),
(344,482,c),
(344,482,o),
(344,482,o),
(344,482,c),
(347,508,o),
(343,528,o),
(330,543,cs),
(317,557,o),
(298,564,o),
(272,564,cs),
(244,564,o),
(212,557,o),
(177,544,cs),
(142,530,o),
(106,512,o),
(71,490,c),
(93,648,l),
(108,657,o),
(125,666,o),
(143,673,cs),
(161,681,o),
(180,687,o),
(200,693,cs),
(242,704,o),
(280,710,o),
(314,710,cs),
(387,710,o),
(441,693,o),
(476,658,cs),
(511,623,o),
(525,575,o),
(516,513,cs),
(512,483,o),
(503,454,o),
(489,427,cs),
(482,414,o),
(474,400,o),
(465,386,cs),
(456,372,o),
(445,358,o),
(433,343,cs),
(422,328,o),
(408,313,o),
(393,297,cs),
(388,292,o),
(383,286,o),
(377,281,c),
(366,269,o),
(355,257,o),
(343,245,cs),
(337,238,o),
(330,232,o),
(324,225,c),
(246,147,l),
(494,147,l)
);
}
);
width = 555;
},
{
layerId = "75D2F12C-E99F-40C8-813D-9BB93C453F0E";
shapes = (
{
closed = 1;
nodes = (
(458,0,l),
(18,0,l),
(25,52,l),
(245,286,ls),
(271,314,o),
(294,340,o),
(313,363,cs),
(318,370,o),
(323,377,o),
(329,384,cs),
(336,393,o),
(343,402,o),
(348,410,cs),
(366,438,o),
(378,466,o),
(384,491,cs),
(386,498,o),
(387,504,o),
(388,510,cs),
(392,543,o),
(386,570,o),
(369,590,cs),
(351,610,o),
(325,619,o),
(291,619,cs),
(263,619,o),
(231,613,o),
(197,600,cs),
(163,587,o),
(129,569,o),
(95,546,c),
(109,648,l),
(123,657,o),
(137,665,o),
(153,673,cs),
(168,680,o),
(185,687,o),
(203,693,cs),
(240,704,o),
(275,710,o),
(309,710,cs),
(374,710,o),
(423,693,o),
(455,658,cs),
(489,622,o),
(502,576,o),
(493,518,cs),
(489,487,o),
(479,457,o),
(464,428,cs),
(456,413,o),
(447,399,o),
(438,384,cs),
(429,369,o),
(418,355,o),
(406,341,cs),
(397,329,o),
(386,318,o),
(374,304,cs),
(369,299,o),
(364,293,o),
(359,288,cs),
(348,275,o),
(336,262,o),
(324,249,cs),
(318,242,o),
(311,235,o),
(304,228,cs),
(177,91,l),
(471,91,l)
);
}
);
width = 555;
},
{
layerId = "2029F050-97EB-4300-B314-0D9E32070F1C";
shapes = (
{
closed = 1;
nodes = (
(450,0,l),
(26,0,l),
(31,36,l),
(252,275,ls),
(277,303,o),
(300,328,o),
(319,351,cs),
(325,359,o),
(331,366,o),
(337,373,cs),
(348,387,o),
(358,401,o),
(366,413,cs),
(384,441,o),
(397,469,o),
(404,496,cs),
(407,506,o),
(409,515,o),
(410,524,cs),
(415,561,o),
(408,591,o),
(388,614,cs),
(368,636,o),
(339,647,o),
(301,647,cs),
(272,647,o),
(240,641,o),
(207,628,cs),
(174,615,o),
(140,597,o),
(107,574,c),
(117,648,l),
(130,657,o),
(143,665,o),
(158,673,cs),
(172,680,o),
(188,687,o),
(205,693,cs),
(239,704,o),
(273,710,o),
(307,710,cs),
(368,710,o),
(414,693,o),
(445,658,cs),
(478,622,o),
(490,576,o),
(482,520,cs),
(477,489,o),
(467,458,o),
(452,428,c),
(443,413,o),
(434,398,o),
(425,383,cs),
(415,368,o),
(404,354,o),
(392,340,cs),
(384,330,o),
(375,320,o),
(365,308,cs),
(360,303,o),
(355,297,o),
(350,291,cs),
(339,278,o),
(327,265,o),
(314,251,cs),
(308,244,o),
(301,237,o),
(294,230,cs),
(142,63,l),
(459,63,l)
);
}
);
width = 555;
}
);
unicode = 50;
}
{
glyphname = three;
layers = (
{
layerId = "AE25C586-C738-4B48-9E5B-2AB1177ED30E";
name = "#instance";
shapes = (
{
closed = 1;
nodes = (
(389,390,o),
(417,407,o),
(440,435,c),
(464,462,o),
(477,493,o),
(477,531,cs),
(477,602,o),
(439,658,o),
(375,688,cs),
(343,703,o),
(305,710,o),
(263,710,cs),
(196,710,o),
(129,692,o),
(79,658,c),
(79,558,l),
(137,598,o),
(201,619,o),
(258,619,cs),
(327,619,o),
(372,580,o),
(372,523,cs),
(372,458,o),
(322,416,o),
(232,416,cs),
(185,416,l),
(185,329,l),
(232,329,ls),
(338,329,o),
(395,282,o),
(395,203,cs),
(395,127,o),
(338,81,o),
(258,81,cs),
(189,81,o),
(117,109,o),
(58,163,c),
(58,52,l),
(108,13,o),
(181,-10,o),
(263,-10,cs),
(358,-10,o),
(432,27,o),
(470,91,cs),
(490,123,o),
(500,160,o),
(500,200,cs),
(500,265,o),
(468,317,o),
(425,348,cs),
(404,364,o),
(381,375,o),
(359,380,c)
);
}
);
width = 557;
},
{
layerId = "5719F410-C0E5-43AE-88FA-B4FFDEE24CB8";
shapes = (
{
closed = 1;
nodes = (
(428.143,400,o),
(452.714,418,o),
(476.429,444,cs),
(500.,469,o),
(513.429,500,o),
(518.429,535,cs),
(528.286,604,o),
(497.143,659,o),
(434.286,688,cs),
(403.429,703,o),
(365.429,710,o),
(321.429,710,cs),
(253.429,710,o),
(170.714,691,o),
(115.,658,c),
(94.,511,l),
(165.857,545,o),
(232.571,564,o),
(279.571,564,cs),
(324.571,564,o),
(351.,539,o),
(345.429,500,cs),
(339.286,457,o),
(304.714,432,o),
(250.714,432,cs),
(188.714,432,l),
(170.714,306,l),
(232.714,306,ls),
(306.714,306,o),
(345.286,275,o),
(337.429,220,cs),
(330.286,170,o),
(282.429,136,o),
(218.429,136,cs),
(143.429,136,o),
(80.857,160,o),
(30.,210,c),
(7.429,52,l),
(51.143,15,o),
(127.571,-10,o),
(218.571,-10,cs),
(319.571,-10,o),
(403.857,27,o),
(455.429,94,cs),
(481.286,128,o),
(497.857,167,o),
(504.,210,cs),
(512.714,271,o),
(495.,322,o),
(462.714,355,c),
(445.,371,o),
(425.857,384,o),
(403.857,391,c)
);
}
);
width = 557;
},
{
layerId = "749AE4FF-5243-4D3F-AC67-AE9DCC0EE297";
shapes = (
{
closed = 1;
nodes = (
(402.714,390,o),
(433.143,407,o),
(460.143,435,c),
(488.,462,o),
(505.429,493,o),
(510.857,531,cs),
(521.,602,o),
(491.,658,o),
(431.286,688,cs),
(401.429,703,o),
(364.429,710,o),
(322.429,710,cs),
(255.429,710,o),
(185.857,692,o),
(131.,658,c),
(116.714,558,l),
(180.429,598,o),
(247.429,619,o),
(304.429,619,cs),
(373.429,619,o),
(412.857,580,o),
(404.714,523,cs),
(395.429,458,o),
(339.429,416,o),
(249.429,416,cs),
(202.429,416,l),
(190.,329,l),
(237.,329,ls),
(343.,329,o),
(393.286,282,o),
(382.,203,cs),
(371.143,127,o),
(307.571,81,o),
(227.571,81,cs),
(158.571,81,o),
(90.571,109,o),
(39.286,163,c),
(23.429,52,l),
(67.857,13,o),
(137.571,-10,o),
(219.571,-10,cs),
(314.571,-10,o),
(393.857,27,o),
(441.,91,cs),
(465.571,123,o),
(480.857,160,o),
(486.571,200,cs),
(495.857,265,o),
(471.286,317,o),
(432.714,348,cs),
(414.,364,o),
(392.571,375,o),
(371.286,380,c)
);
}
);
width = 557;
},
{
layerId = "9DBD663E-71C9-4E39-B4BC-5CF5923FD470";
shapes = (
{
closed = 1;
nodes = (
(390.,385,o),
(423.429,402,o),
(452.429,430,cs),
(482.429,458,o),
(501.,490,o),
(506.571,529,cs),
(516.857,601,o),
(488.,658,o),
(429.286,688,cs),
(400.429,703,o),
(364.429,710,o),
(323.429,710,cs),
(256.429,710,o),
(192.857,692,o),
(139.,658,c),
(128.143,582,l),
(187.286,625,o),
(255.429,647,o),
(317.429,647,cs),
(397.429,647,o),
(443.857,601,o),
(434.286,534,cs),
(423.429,458,o),
(357.286,408,o),
(249.286,408,cs),
(209.286,408,l),
(199.714,341,l),
(239.714,341,ls),
(361.714,341,o),
(417.714,285,o),
(404.714,194,cs),
(392.143,106,o),
(320.571,53,o),
(232.571,53,cs),
(165.571,53,o),
(96.,84,o),
(43.857,139,c),
(31.429,52,l),
(75.714,12,o),
(142.571,-10,o),
(220.571,-10,cs),
(312.571,-10,o),
(388.857,27,o),
(433.714,89,cs),
(457.286,121,o),
(472.286,156,o),
(477.857,195,cs),
(487.429,262,o),
(459.857,314,o),
(418.286,345,c),
(398.571,361,o),
(375.857,370,o),
(354.571,375,c)
);
}
);
width = 557;
}
);
unicode = 51;
}
{
glyphname = four;
layers = (
{
layerId = "5F1069EF-7233-42B2-A641-1D5303479095";
shapes = (
{
closed = 1;
nodes = (
(589,147,l),
(467,147,l),
(488,293,l),
(610,293,l)
);
},
{
closed = 1;
nodes = (
(371,538,l),
(388,528,l),
(164,277,l),
(158,293,l),
(354,293,l),
(333,147,l),
(-9,147,l),
(3,231,l),
(436,700,l),
(562,700,l),
(463,0,l),
(295,0,l)
);
}
);
width = 629;
},
{
layerId = "8E1BB1C9-5399-4481-B652-0152E5DB95F4";
shapes = (
{
closed = 1;
nodes = (
(538,186,l),
(417,186,l),
(430,277,l),
(551,277,l)
);
},
{
closed = 1;
nodes = (
(384,573,l),
(409,563,l),
(115,246,l),
(104,277,l),
(359,277,l),
(346,186,l),
(4,186,l),
(12,238,l),
(443,700,l),
(506,700,l),
(408,0,l),
(303,0,l)
);
}
);
width = 589;
},
{
layerId = "DD0681D4-613B-4E2A-9B2E-3AB0BAB5AD9A";
shapes = (
{
closed = 1;
nodes = (
(513,206,l),
(392,206,l),
(401,269,l),
(522,269,l)
);
},
{
closed = 1;
nodes = (
(390,591,l),
(420,580,l),
(90,230,l),
(77,269,l),
(362,269,l),
(353,206,l),
(11,206,l),
(16,242,l),
(447,700,l),
(478,700,l),
(380,0,l),
(307,0,l)
);
}
);
width = 569;
}
);
unicode = 52;
}
{
glyphname = five;
layers = (
{
layerId = "5719F410-C0E5-43AE-88FA-B4FFDEE24CB8";
shapes = (
{
closed = 1;
nodes = (
(286.571,445,o),
(271.429,444,o),
(262.286,443,c),
(286.,553,l),
(498.,553,l),
(519.,700,l),
(152.,700,l),
(75.286,310,l),
(115.143,316,o),
(158.714,320,o),
(204.714,320,cs),
(295.714,320,o),
(347.429,290,o),
(338.571,228,cs),
(334.571,200,o),
(320.429,178,o),
(297.,161,c),
(272.714,145,o),
(244.429,136,o),
(210.429,136,cs),
(148.429,136,o),
(86.286,156,o),
(37.,189,c),
(14.429,31,l),
(32.857,20,o),
(59.429,10,o),
(92.286,2,cs),
(126.143,-6,o),
(160.571,-10,o),
(199.571,-10,cs),
(300.571,-10,o),
(394.571,32,o),
(453.,105,cs),
(482.143,141,o),
(500.,182,o),
(506.571,228,cs),
(519.143,316,o),
(487.,385,o),
(420.857,419,c),
(388.429,437,o),
(349.571,445,o),
(304.571,445,cs)
);
}
);
width = 568;
},
{
layerId = "749AE4FF-5243-4D3F-AC67-AE9DCC0EE297";
shapes = (
{
closed = 1;
nodes = (
(256.571,438,o),
(235.143,435,o),
(213.286,429,c),
(251.,609,l),
(490.,609,l),
(503.,700,l),
(169.,700,l),
(95.,329,l),
(138.143,344,o),
(184.286,352,o),
(233.286,352,cs),
(332.286,352,o),
(387.714,299,o),
(376.,217,cs),
(370.143,176,o),
(352.429,143,o),
(320.857,118,cs),
(290.286,93,o),
(253.571,81,o),
(209.571,81,cs),
(141.571,81,o),
(78.714,110,o),
(40.429,157,c),
(24.714,47,l),
(40.571,32,o),
(64.571,18,o),
(97.,7,cs),
(129.286,-5,o),
(162.571,-10,o),
(199.571,-10,cs),
(297.571,-10,o),
(381.429,31,o),
(433.429,101,cs),
(459.286,135,o),
(474.857,174,o),
(481.,217,cs),
(493.,301,o),
(462.143,372,o),
(397.571,410,c),
(364.143,428,o),
(325.571,438,o),
(279.571,438,cs)
);
}
);
width = 552;
},
{
layerId = "9DBD663E-71C9-4E39-B4BC-5CF5923FD470";
shapes = (
{
closed = 1;
nodes = (
(242.,434,o),
(216.429,430,o),
(189.286,422,c),
(233.,637,l),
(486.,637,l),
(495.,700,l),
(177.,700,l),
(104.286,338,l),
(150.143,358,o),
(197.571,368,o),
(247.571,368,cs),
(350.571,368,o),
(408.429,304,o),
(395.143,211,cs),
(388.429,164,o),
(369.,126,o),
(332.857,97,c),
(298.571,67,o),
(257.571,53,o),
(209.571,53,cs),
(138.571,53,o),
(75.429,87,o),
(42.143,141,c),
(29.857,55,l),
(44.429,38,o),
(67.143,22,o),
(99.286,9,cs),
(131.429,-4,o),
(163.571,-10,o),
(199.571,-10,cs),
(295.571,-10,o),
(375.429,31,o),
(424.143,99,cs),
(447.857,132,o),
(462.286,170,o),
(468.143,211,cs),
(480.,294,o),
(450.286,366,o),
(385.857,405,c),
(352.429,423,o),
(314.,434,o),
(267.,434,cs)
);
}
);
width = 544;
}
);
unicode = 53;
}
{
glyphname = six;
layers = (
{
layerId = "5719F410-C0E5-43AE-88FA-B4FFDEE24CB8";
shapes = (
{
closed = 1;
nodes = (
(330,440,o),
(276,416,o),
(243,390,c),
(260,428,o),
(285,464,o),
(317,499,cs),
(346,529,o),
(449,596,o),
(490,614,c),
(405,710,l),
(395,710,l),
(271,650,o),
(167,559,o),
(102,445,c),
(67,387,o),
(47,328,o),
(38,268,cs),
(23,158,o),
(57,70,o),
(133,24,cs),
(171,1,o),
(218,-10,o),
(271,-10,cs),
(375,-10,o),
(463,30,o),
(517,102,cs),
(544,137,o),
(559,178,o),
(566,224,cs),
(578,309,o),
(550,378,o),
(492,414,cs),
(462,432,o),
(428,440,o),
(388,440,cs)
);
},
{
closed = 1;
nodes = (
(234,136,o),
(203,173,o),
(211,228,cs),
(219,286,o),
(263,325,o),
(318,325,cs),
(374,325,o),
(408,286,o),
(400,228,cs),
(392,173,o),
(349,136,o),
(291,136,cs)
);
}
);
width = 618;
},
{
layerId = "749AE4FF-5243-4D3F-AC67-AE9DCC0EE297";
shapes = (
{
closed = 1;
nodes = (
(286,433,o),
(216,397,o),
(178,346,c),
(195,401,o),
(227,455,o),
(271,506,cs),
(318,560,o),
(411,617,o),
(478,648,c),
(421,710,l),
(411,710,l),
(287,651,o),
(183,558,o),
(117,438,cs),
(82,377,o),
(61,314,o),
(52,251,cs),
(37,148,o),
(69,65,o),
(139,23,c),
(174,0,o),
(217,-10,o),
(267,-10,cs),
(363,-10,o),
(445,28,o),
(495,96,cs),
(520,130,o),
(535,170,o),
(541,213,cs),
(554,300,o),
(526,369,o),
(464,405,cs),
(433,423,o),
(398,433,o),
(355,433,cs)
);
},
{
closed = 1;
nodes = (
(198,81,o),
(150,134,o),
(162,214,cs),
(173,295,o),
(236,348,o),
(318,348,cs),
(401,348,o),
(448,295,o),
(437,214,cs),
(425,134,o),
(363,81,o),
(280,81,cs)
);
}
);
width = 611;
},
{
layerId = "9DBD663E-71C9-4E39-B4BC-5CF5923FD470";
shapes = (
{
closed = 1;
nodes = (
(264.286,429,o),
(185.429,388,o),
(146.286,324,c),
(163.429,388,o),
(197.286,450,o),
(248.857,510,c),
(305.571,578,o),
(392.571,627,o),
(471.,665,c),
(429.429,710,l),
(419.429,710,l),
(295.,651,o),
(190.571,557,o),
(124.143,435,cs),
(89.143,372,o),
(67.857,307,o),
(58.571,242,cs),
(44.429,143,o),
(75.,63,o),
(142.143,22,c),
(176,0,o),
(216.571,-10,o),
(264.571,-10,cs),
(356.571,-10,o),
(435.857,27,o),
(483.286,93,cs),
(507.143,127,o),
(522.714,166,o),
(528.714,208,cs),
(541.143,295,o),
(513.,364,o),
(450.143,400,cs),
(419.714,418,o),
(382.286,429,o),
(338.286,429,cs)
);
},
{
closed = 1;
nodes = (
(178.571,53,o),
(123.429,115,o),
(136.571,207,cs),
(149.857,300,o),
(221.429,360,o),
(317.429,360,cs),
(413.429,360,o),
(468.857,300,o),
(455.571,207,cs),
(442.429,115,o),
(369.571,53,o),
(273.571,53,cs)
);
}
);
width = 607;
}
);
rightKerningGroup = six;
unicode = 54;
}
{
glyphname = seven;
layers = (
{
layerId = "5F1069EF-7233-42B2-A641-1D5303479095";
shapes = (
{
closed = 1;
nodes = (
(48,31,l),
(275,442,ls),
(290,469,o),
(303,492,o),
(314,510,cs),
(324,528,o),
(333,542,o),
(341,553,c),
(58,553,l),
(79,700,l),
(582,700,l),
(199,-10,l)
);
}
);
width = 534;
},
{
layerId = "8E1BB1C9-5399-4481-B652-0152E5DB95F4";
shapes = (
{
closed = 1;
nodes = (
(79,22,l),
(293,413,ls),
(317,456,o),
(339,498,o),
(361,538,cs),
(381,573,o),
(395,597,o),
(405,609,c),
(67,609,l),
(80,700,l),
(551,700,l),
(176,-10,l)
);
}
);
width = 503;
},
{
layerId = "DD0681D4-613B-4E2A-9B2E-3AB0BAB5AD9A";
shapes = (
{
closed = 1;
nodes = (
(95,17,l),
(302,399,ls),
(330,450,o),
(357,501,o),
(385,552,cs),
(409,595,o),
(426,624,o),
(437,637,c),
(71,637,l),
(80,700,l),
(535,700,l),
(165,-10,l)
);
}
);
width = 487;
}
);
leftKerningGroup = _seven;
rightKerningGroup = _seven;
unicode = 55;
}
{
glyphname = eight;
layers = (
{
layerId = "F0E59F11-1D58-42A6-80E9-36273FBB34FC";
shapes = (
{
closed = 1;
nodes = (
(213,-10,o),
(170,-1,o),
(135,17,cs),
(99,35,o),
(73,61,o),
(57,94,cs),
(43,122,o),
(37,153,o),
(39,188,c),
(39,195,o),
(40,203,o),
(41,210,cs),
(46,244,o),
(59,276,o),
(82,306,cs),
(104,335,o),
(131,358,o),
(163,374,c),
(142,389,o),
(126,408,o),
(115,433,cs),
(104,458,o),
(101,484,o),
(105,511,cs),
(106,518,o),
(107,524,o),
(108,531,cs),
(115,563,o),
(129,591,o),
(149,616,c),
(172,647,o),
(203,670,o),
(240,686,cs),
(277,702,o),
(318,710,o),
(364,710,cs),
(410,710,o),
(449,702,o),
(480,686,cs),
(514,669,o),
(538,646,o),
(553,616,cs),
(567,586,o),
(571,551,o),
(566,511,cs),
(562,484,o),
(551,458,o),
(534,433,cs),
(530,428,o),
(526,423,o),
(522,419,cs),
(507,401,o),
(489,386,o),
(469,374,c),
(497,358,o),
(518,335,o),
(531,306,cs),
(544,276,o),
(549,244,o),
(544,210,cs),
(543,203,o),
(542,195,o),
(540,188,cs),
(533,153,o),
(518,122,o),
(497,94,c),
(497,94,o),
(497,94,o),
(497,94,c),
(471,60,o),
(438,34,o),
(398,17,cs),
(357,-1,o),
(312,-10,o),
(262,-10,cs)
);
},
{
closed = 1;
nodes = (
(298,136,o),
(311,138,o),
(323,142,cs),
(335,146,o),
(346,152,o),
(356,161,cs),
(367,170,o),
(375,182,o),
(381,195,cs),
(385,204,o),
(388,214,o),
(389,225,cs),
(393,252,o),
(388,274,o),
(374,290,cs),
(359,306,o),
(337,314,o),
(308,314,cs),
(280,314,o),
(256,306,o),
(237,290,cs),
(217,274,o),
(205,252,o),
(201,225,cs),
(198,198,o),
(204,177,o),
(219,161,cs),
(234,144,o),
(255,136,o),
(283,136,cs)
);
},
{
closed = 1;
nodes = (
(347,428,o),
(367,434,o),
(383,447,cs),
(399,459,o),
(408,475,o),
(411,496,cs),
(414,517,o),
(410,533,o),
(397,546,cs),
(384,558,o),
(366,564,o),
(343,564,cs),
(320,564,o),
(300,558,o),
(284,546,cs),
(267,533,o),
(257,517,o),
(254,496,cs),
(251,475,o),
(257,459,o),
(270,447,cs),
(283,434,o),
(301,428,o),
(324,428,cs)
);
}
);
width = 608;
},
{
layerId = "3B93B69D-E33D-48F3-A278-6EAB673A7F94";
shapes = (
{
closed = 1;
nodes = (
(211,-10,o),
(170,-1,o),
(137,16,cs),
(103,33,o),
(78,57,o),
(63,89,cs),
(48,119,o),
(43,152,o),
(47,191,cs),
(48,198,o),
(49,204,o),
(50,211,cs),
(57,245,o),
(72,275,o),
(94,302,cs),
(119,332,o),
(150,355,o),
(188,369,c),
(162,384,o),
(142,404,o),
(128,431,cs),
(117,454,o),
(112,479,o),
(113,506,c),
(114,513,o),
(114,519,o),
(115,526,cs),
(121,561,o),
(135,592,o),
(156,619,cs),
(179,649,o),
(208,671,o),
(243,687,cs),
(278,702,o),
(317,710,o),
(360,710,cs),
(405,710,o),
(442,702,o),
(471,687,cs),
(503,671,o),
(525,649,o),
(539,620,cs),
(552,591,o),
(556,557,o),
(551,519,cs),
(547,492,o),
(538,467,o),
(522,442,cs),
(518,437,o),
(514,432,o),
(509,426,cs),
(489,402,o),
(464,383,o),
(436,369,c),
(470,355,o),
(495,332,o),
(511,302,cs),
(525,275,o),
(531,245,o),
(528,211,c),
(528,204,o),
(527,198,o),
(525,191,c),
(520,156,o),
(508,125,o),
(490,99,cs),
(488,95,o),
(485,92,o),
(482,89,cs),
(458,57,o),
(426,33,o),
(388,16,cs),
(350,-2,o),
(307,-10,o),
(259,-10,cs)
);
},
{
closed = 1;
nodes = (
(293,81,o),
(312,84,o),
(330,90,cs),
(348,96,o),
(363,104,o),
(377,116,cs),
(391,127,o),
(402,141,o),
(411,157,cs),
(419,171,o),
(425,188,o),
(427,206,cs),
(432,243,o),
(424,274,o),
(403,297,c),
(380,319,o),
(348,330,o),
(307,330,cs),
(265,330,o),
(230,319,o),
(202,297,cs),
(174,274,o),
(157,243,o),
(152,206,cs),
(147,168,o),
(155,138,o),
(177,116,c),
(199,92,o),
(230,81,o),
(272,81,cs)
);
},
{
closed = 1;
nodes = (
(352,404,o),
(382,414,o),
(407,434,cs),
(431,453,o),
(445,479,o),
(450,512,cs),
(455,544,o),
(448,570,o),
(429,590,c),
(409,609,o),
(382,619,o),
(347,619,cs),
(311,619,o),
(281,609,o),
(257,590,cs),
(233,570,o),
(218,544,o),
(214,512,cs),
(209,479,o),
(216,453,o),
(235,434,cs),
(254,414,o),
(282,404,o),
(317,404,cs)
);
}
);
width = 600;
},
{
layerId = "0D25A9BA-90DE-440E-BC4F-74EEDE6C6E67";
shapes = (
{
closed = 1;
nodes = (
(210,-10,o),
(170,-1,o),
(138,16,c),
(105,32,o),
(81,55,o),
(66,86,cs),
(51,117,o),
(46,152,o),
(51,192,cs),
(52,199,o),
(53,205,o),
(55,212,cs),
(63,245,o),
(78,274,o),
(100,300,cs),
(127,331,o),
(160,354,o),
(200,367,c),
(172,381,o),
(150,402,o),
(135,430,cs),
(123,452,o),
(117,477,o),
(117,503,c),
(118,510,o),
(118,516,o),
(119,523,cs),
(124,560,o),
(138,593,o),
(160,621,cs),
(182,650,o),
(210,672,o),
(244,687,cs),
(278,702,o),
(316,710,o),
(358,710,cs),
(402,710,o),
(438,702,o),
(467,687,cs),
(497,672,o),
(519,650,o),
(532,622,cs),
(545,593,o),
(549,560,o),
(544,523,cs),
(540,496,o),
(531,471,o),
(516,447,cs),
(512,441,o),
(508,436,o),
(503,430,cs),
(480,402,o),
(452,381,o),
(419,367,c),
(456,354,o),
(483,331,o),
(501,300,cs),
(515,274,o),
(522,245,o),
(520,212,c),
(520,205,o),
(519,199,o),
(518,192,cs),
(514,158,o),
(503,127,o),
(486,101,cs),
(483,96,o),
(479,91,o),
(475,86,cs),
(451,55,o),
(420,32,o),
(383,15,cs),
(346,-2,o),
(304,-10,o),
(257,-10,cs)
);
},
{
closed = 1;
nodes = (
(290,53,o),
(312,57,o),
(333,64,cs),
(354,71,o),
(372,80,o),
(388,93,cs),
(403,105,o),
(416,120,o),
(426,138,cs),
(436,155,o),
(443,175,o),
(446,196,cs),
(452,239,o),
(442,274,o),
(417,300,c),
(391,325,o),
(354,338,o),
(306,338,cs),
(257,338,o),
(217,325,o),
(185,300,cs),
(152,274,o),
(133,239,o),
(127,196,cs),
(121,153,o),
(131,119,o),
(156,93,cs),
(181,66,o),
(217,53,o),
(266,53,cs)
);
},
{
closed = 1;
nodes = (
(355,392,o),
(390,404,o),
(419,427,cs),
(447,450,o),
(464,481,o),
(470,520,cs),
(475,558,o),
(467,589,o),
(445,612,cs),
(422,635,o),
(390,647,o),
(349,647,cs),
(307,647,o),
(272,635,o),
(244,612,cs),
(216,589,o),
(199,558,o),
(194,520,cs),
(188,481,o),
(196,450,o),
(218,427,cs),
(240,404,o),
(272,392,o),
(314,392,cs)
);
}
);
width = 596;
}
);
unicode = 56;
}
{
glyphname = nine;
layers = (
{
layerId = "AE25C586-C738-4B48-9E5B-2AB1177ED30E";
name = "#instance";
shapes = (
{
closed = 1;
nodes = (
(193.571,-10,l),
(203.571,-10,l),
(328.714,54,o),
(434.714,152,o),
(499.714,271,cs),
(533.429,332,o),
(555.429,395,o),
(564.429,458,cs),
(578.571,557,o),
(547.,637,o),
(480.,679,cs),
(447.,700,o),
(406.429,710,o),
(357.429,710,cs),
(265.429,710,o),
(187.143,673,o),
(139.714,607,cs),
(114.857,573,o),
(100.286,534,o),
(94.286,492,cs),
(81.857,405,o),
(108.,336,o),
(166.,301,cs),
(195.429,283,o),
(231.,273,o),
(271.,273,cs),
(353.,273,o),
(432.571,312,o),
(471.286,366,c),
(453.,315,o),
(421.286,261,o),
(372.143,204,cs),
(319.429,143,o),
(221.571,67,o),
(145.857,34,c)
);
},
{
closed = 1;
nodes = (
(207.571,340,o),
(154.143,400,o),
(167.429,493,cs),
(180.571,585,o),
(252.429,647,o),
(348.429,647,cs),
(444.429,647,o),
(499.571,585,o),
(486.429,493,cs),
(473.143,400,o),
(400.571,340,o),
(304.571,340,cs)
);
}
);
width = 607;
},
{
layerId = "5719F410-C0E5-43AE-88FA-B4FFDEE24CB8";
shapes = (
{
closed = 1;
nodes = (
(229,-10,l),
(239,-10,l),
(364,57,o),
(470,153,o),
(535,263,cs),
(568,320,o),
(588,376,o),
(596,432,cs),
(611,542,o),
(577,630,o),
(501,676,cs),
(464,699,o),
(416,710,o),
(363,710,cs),
(259,710,o),
(171,670,o),
(117,598,cs),
(90,563,o),
(75,522,o),
(68,476,cs),
(56,389,o),
(86,318,o),
(146,279,cs),
(175,259,o),
(210,249,o),
(251,249,cs),
(309,249,o),
(348,264,o),
(376,289,c),
(357,257,o),
(333,226,o),
(305,197,cs),
(261,153,o),
(188,106,o),
(131,81,c)
);
},
{
closed = 1;
nodes = (
(260,375,o),
(227,414,o),
(235,472,cs),
(243,527,o),
(285,564,o),
(343,564,cs),
(401,564,o),
(431,527,o),
(423,472,cs),
(415,414,o),
(371,375,o),
(316,375,cs)
);
}
);
width = 618;
},
{
layerId = "749AE4FF-5243-4D3F-AC67-AE9DCC0EE297";
shapes = (
{
closed = 1;
nodes = (
(206,-10,l),
(216,-10,l),
(341,55,o),
(447,152,o),
(511,268,cs),
(545,328,o),
(567,389,o),
(575,449,cs),
(590,552,o),
(557,635,o),
(487,678,cs),
(453,700,o),
(409,710,o),
(359,710,cs),
(263,710,o),
(182,672,o),
(132,604,cs),
(106,570,o),
(92,530,o),
(86,487,cs),
(73,400,o),
(101,330,o),
(159,294,cs),
(188,275,o),
(224,265,o),
(264,265,cs),
(338,265,o),
(404,296,o),
(440,340,c),
(421,296,o),
(392,249,o),
(350,202,cs),
(303,150,o),
(207,76,o),
(141,50,c)
);
},
{
closed = 1;
nodes = (
(225,352,o),
(179,405,o),
(190,486,cs),
(202,566,o),
(263,619,o),
(346,619,cs),
(429,619,o),
(477,566,o),
(465,486,cs),
(454,405,o),
(390,352,o),
(308,352,cs)
);
}
);
width = 611;
},
{
layerId = "9DBD663E-71C9-4E39-B4BC-5CF5923FD470";
shapes = (
{
closed = 1;
nodes = (
(193.571,-10,l),
(203.571,-10,l),
(328.714,54,o),
(434.714,152,o),
(499.714,271,cs),
(533.429,332,o),
(555.429,395,o),
(564.429,458,cs),
(578.571,557,o),
(547.,637,o),
(480.,679,cs),
(447.,700,o),
(406.429,710,o),
(357.429,710,cs),
(265.429,710,o),
(187.143,673,o),
(139.714,607,cs),
(114.857,573,o),
(100.286,534,o),
(94.286,492,cs),
(81.857,405,o),
(108.,336,o),
(166.,301,cs),
(195.429,283,o),
(231.,273,o),
(271.,273,cs),
(353.,273,o),
(432.571,312,o),
(471.286,366,c),
(453.,315,o),
(421.286,261,o),
(372.143,204,cs),
(319.429,143,o),
(221.571,67,o),
(145.857,34,c)
);
},
{
closed = 1;
nodes = (
(207.571,340,o),
(154.143,400,o),
(167.429,493,cs),
(180.571,585,o),
(252.429,647,o),
(348.429,647,cs),
(444.429,647,o),
(499.571,585,o),
(486.429,493,cs),
(473.143,400,o),
(400.571,340,o),
(304.571,340,cs)
);
}
);
width = 607;
}
);
leftKerningGroup = nine;
unicode = 57;
}
{
glyphname = colon;
layers = (
{
hints = (
{
horizontal = 1;
place = (-10,188);
type = Stem;
},
{
horizontal = 1;
place = (304,188);
type = Stem;
},
{
place = (63,209);
type = Stem;
}
);
layerId = "7A4E2608-894C-42C3-A821-B6FEA079E459";
shapes = (
{
closed = 1;
nodes = (
(223,304,o),
(271,343,o),
(279,398,cs),
(287,453,o),
(249,492,o),
(188,492,cs),
(126,492,o),
(78,452,o),
(70,398,cs),
(62,343,o),
(102,304,o),
(162,304,cs)
);
},
{
closed = 1;
nodes = (
(179,-10,o),
(227,29,o),
(235,84,cs),
(243,139,o),
(205,178,o),
(144,178,cs),
(82,178,o),
(33,138,o),
(26,84,cs),
(18,29,o),
(58,-10,o),
(118,-10,cs)
);
}
);
width = 335;
},
{
hints = (
{
horizontal = 1;
place = (-10,133);
type = Stem;
},
{
horizontal = 1;
place = (361,133);
type = Stem;
}
);
layerId = "2FEAAE27-63B5-41AA-B98F-0872FA373B5B";
shapes = (
{
closed = 1;
nodes = (
(174,361,o),
(206,388,o),
(212,427,cs),
(217,466,o),
(194,494,o),
(153,494,cs),
(112,494,o),
(80,467,o),
(74,427,cs),
(69,389,o),
(93,361,o),
(135,361,cs)
);
},
{
closed = 1;
nodes = (
(122,-10,o),
(154,17,o),
(160,56,cs),
(165,95,o),
(141,123,o),
(101,123,cs),
(59,123,o),
(27,96,o),
(22,56,cs),
(17,18,o),
(41,-10,o),
(83,-10,cs)
);
}
);
width = 264;
},
{
hints = (
{
horizontal = 1;
place = (-10,105);
type = Stem;
},
{
horizontal = 1;
place = (390,105);
type = Stem;
},
{
place = (63,102);
type = Stem;
}
);
layerId = "BBA9C4CC-16BF-4D96-9809-7FD759381829";
shapes = (
{
closed = 1;
nodes = (
(150,390,o),
(174,411,o),
(178,442,cs),
(182,473,o),
(166,495,o),
(136,495,cs),
(105,495,o),
(81,474,o),
(76,442,cs),
(72,412,o),
(89,390,o),
(121,390,cs)
);
},
{
closed = 1;
nodes = (
(94,-10,o),
(118,11,o),
(122,42,cs),
(126,73,o),
(109,95,o),
(79,95,cs),
(48,95,o),
(24,74,o),
(20,42,cs),
(16,12,o),
(33,-10,o),
(65,-10,cs)
);
}
);
width = 228;
}
);
leftKerningGroup = comma2;
rightKerningGroup = comma;
unicode = 58;
}
{
glyphname = equal;
layers = (
{
layerId = "5F1069EF-7233-42B2-A641-1D5303479095";
shapes = (
{
alignment = -1;
pos = (-22,125);
ref = minus;
},
{
alignment = -1;
pos = (-56,-115);
ref = minus;
}
);
width = 713;
},
{
layerId = "8E1BB1C9-5399-4481-B652-0152E5DB95F4";
shapes = (
{
closed = 1;
nodes = (
(604,392,l),
(59,392,l),
(72,486,l),
(617,486,l)
);
},
{
closed = 1;
nodes = (
(570,152,l),
(25,152,l),
(38,246,l),
(583,246,l)
);
}
);
width = 713;
},
{
layerId = "DD0681D4-613B-4E2A-9B2E-3AB0BAB5AD9A";
shapes = (
{
alignment = -1;
pos = (-23,125);
ref = minus;
},
{
alignment = -1;
pos = (-57,-115);
ref = minus;
}
);
width = 713;
}
);
unicode = 61;
}
{
glyphname = greater;
layers = (
{
layerId = "452014E6-FE56-49E1-9353-01B400A3FB86";
shapes = (
{
closed = 1;
nodes = (
(56,84,l),
(74,210,l),
(408,325,l),
(106,440,l),
(124,566,l),
(638,346,l),
(632,304,l)
);
}
);
width = 713;
},
{
layerId = "75D2F12C-E99F-40C8-813D-9BB93C453F0E";
shapes = (
{
closed = 1;
nodes = (
(56,84,l),
(71,186,l),
(464,325,l),
(109,464,l),
(124,566,l),
(638,346,l),
(632,304,l)
);
}
);
width = 713;
},
{
layerId = "2029F050-97EB-4300-B314-0D9E32070F1C";
shapes = (
{
closed = 1;
nodes = (
(56,84,l),
(69,174,l),
(492,325,l),
(111,476,l),
(124,566,l),
(638,346,l),
(632,304,l)
);
}
);
width = 713;
}
);
unicode = 62;
}
{
glyphname = question;
layers = (
{
layerId = "5719F410-C0E5-43AE-88FA-B4FFDEE24CB8";
shapes = (
{
closed = 1;
nodes = (
(215,266,l),
(222,270,o),
(227,276,o),
(233,283,cs),
(272,329,o),
(319,363,o),
(367,399,cs),
(398,423,o),
(432,449,o),
(458,480,cs),
(479,507,o),
(492,539,o),
(497,571,cs),
(514,691,o),
(434,754,o),
(321,754,cs),
(266,754,o),
(191,739,o),
(142,702,c),
(111,559,l),
(121,550,l),
(160,581,o),
(218,606,o),
(266,606,cs),
(301,606,o),
(331,590,o),
(326,551,cs),
(317,489,o),
(182,441,o),
(168,340,cs),
(165,319,o),
(172,280,o),
(192,266,c)
);
},
{
closed = 1;
nodes = (
(229,-10,o),
(282,25,o),
(290,84,cs),
(299,144,o),
(255,178,o),
(199,178,cs),
(143,178,o),
(89,143,o),
(81,84,cs),
(73,25,o),
(118,-10,o),
(173,-10,cs)
);
}
);
width = 541;
},
{
layerId = "749AE4FF-5243-4D3F-AC67-AE9DCC0EE297";
shapes = (
{
closed = 1;
nodes = (
(218,241,l),
(228,249,o),
(238,260,o),
(244,268,cs),
(284,325,o),
(338,366,o),
(390,412,c),
(415,433,o),
(438,455,o),
(459,480,cs),
(481,508,o),
(492,538,o),
(497,571,cs),
(514,691,o),
(434,754,o),
(321,754,cs),
(265,754,o),
(189,738,o),
(142,698,c),
(117,605,l),
(127,597,l),
(171,636,o),
(241,663,o),
(295,663,cs),
(354,663,o),
(400,630,o),
(391,566,cs),
(376,464,o),
(205,410,o),
(188,293,cs),
(186,279,o),
(188,252,o),
(199,241,c)
);
},
{
closed = 1;
nodes = (
(218,-10,o),
(251,15,o),
(257,56,cs),
(263,97,o),
(237,123,o),
(197,123,cs),
(158,123,o),
(125,96,o),
(119,56,cs),
(113,16,o),
(139,-10,o),
(178,-10,cs)
);
}
);
width = 541;
},
{
layerId = "9DBD663E-71C9-4E39-B4BC-5CF5923FD470";
shapes = (
{
closed = 1;
nodes = (
(220,229,l),
(231,239,o),
(243,252,o),
(249,260,c),
(290,323,o),
(349,368,o),
(402,419,cs),
(423,438,o),
(441,458,o),
(459,480,cs),
(481,508,o),
(492,538,o),
(497,571,cs),
(514,691,o),
(434,754,o),
(321,754,cs),
(264,754,o),
(189,738,o),
(141,696,c),
(121,628,l),
(131,621,l),
(177,663,o),
(252,691,o),
(310,691,cs),
(381,691,o),
(435,650,o),
(424,574,cs),
(406,451,o),
(215,395,o),
(198,270,cs),
(196,259,o),
(196,238,o),
(204,229,c)
);
},
{
closed = 1;
nodes = (
(213,-10,o),
(235,10,o),
(240,42,cs),
(244,73,o),
(228,95,o),
(196,95,cs),
(165,95,o),
(142,72,o),
(138,42,cs),
(134,12,o),
(150,-10,o),
(181,-10,cs)
);
}
);
width = 541;
}
);
unicode = 63;
}
{
glyphname = at;
layers = (
{
layerId = "5719F410-C0E5-43AE-88FA-B4FFDEE24CB8";
shapes = (
{
closed = 1;
nodes = (
(542,-10,o),
(594,21,o),
(631,77,cs),
(649,104,o),
(664,138,o),
(675,178,c),
(683,231,l),
(649,166,o),
(603,126,o),
(542,126,cs),
(511,126,o),
(486,136,o),
(470,157,cs),
(454,177,o),
(448,204,o),
(453,237,cs),
(458,270,o),
(472,297,o),
(496,318,cs),
(520,338,o),
(549,348,o),
(584,348,cs),
(602,348,o),
(635,347,o),
(683,344,cs),
(724,341,o),
(772,337,o),
(813,337,c),
(833,474,l),
(782,474,o),
(737,477,o),
(701,480,cs),
(659,483,o),
(626,484,o),
(603,484,cs),
(496,484,o),
(404,441,o),
(348,366,cs),
(320,329,o),
(303,286,o),
(296,237,cs),
(283,144,o),
(311,64,o),
(370,22,cs),
(399,1,o),
(433,-10,o),
(470,-10,cs)
);
},
{
closed = 1;
nodes = (
(557,-220,o),
(597,-216,o),
(636,-207,cs),
(675,-198,o),
(704,-187,o),
(723,-175,c),
(735,-93,l),
(676,-121,o),
(609,-136,o),
(524,-136,cs),
(361,-136,o),
(241,-70,o),
(189,45,cs),
(163,102,o),
(155,168,o),
(165,241,cs),
(187,390,o),
(279,514,o),
(421,580,cs),
(491,613,o),
(569,629,o),
(654,629,cs),
(806,629,o),
(918,569,o),
(967,465,cs),
(992,412,o),
(999,352,o),
(989,283,cs),
(977,199,o),
(943,141,o),
(904,114,cs),
(884,100,o),
(866,93,o),
(850,93,cs),
(799,93,o),
(782,118,o),
(792,189,cs),
(821,390,l),
(664,390,l),
(635,189,ls),
(615,48,o),
(667,-23,o),
(791,-23,cs),
(880,-23,o),
(966,31,o),
(1024,124,c),
(1051,171,o),
(1070,224,o),
(1078,283,cs),
(1103,454,o),
(1040,588,o),
(907,660,cs),
(840,695,o),
(760,713,o),
(666,713,cs),
(563,713,o),
(469,693,o),
(384,653,cs),
(300,613,o),
(230,557,o),
(176,486,cs),
(123,414,o),
(89,332,o),
(76,241,cs),
(51,61,o),
(118,-85,o),
(259,-162,cs),
(329,-201,o),
(415,-220,o),
(514,-220,cs)
);
}
);
width = 1164;
},
{
layerId = "749AE4FF-5243-4D3F-AC67-AE9DCC0EE297";
shapes = (
{
closed = 1;
nodes = (
(544,-10,o),
(603,20,o),
(643,65,cs),
(662,87,o),
(677,109,o),
(685,133,c),
(693,191,l),
(649,119,o),
(588,70,o),
(510,70,cs),
(467,70,o),
(434,85,o),
(412,116,cs),
(389,147,o),
(383,187,o),
(390,237,cs),
(397,287,o),
(418,327,o),
(453,358,c),
(489,388,o),
(533,403,o),
(585,403,cs),
(609,403,o),
(640,402,o),
(679,399,cs),
(714,396,o),
(752,393,o),
(789,393,c),
(801,474,l),
(765,474,o),
(727,476,o),
(693,479,cs),
(658,482,o),
(625,484,o),
(596,484,cs),
(491,484,o),
(402,441,o),
(347,366,cs),
(320,329,o),
(303,286,o),
(296,237,cs),
(282,139,o),
(309,62,o),
(370,21,cs),
(400,0,o),
(437,-10,o),
(478,-10,cs)
);
},
{
closed = 1;
nodes = (
(538,-220,o),
(576,-216,o),
(617,-207,cs),
(657,-198,o),
(687,-187,o),
(707,-175,c),
(716,-109,l),
(663,-136,o),
(587,-152,o),
(505,-152,cs),
(341,-152,o),
(223,-83,o),
(173,39,cs),
(146,100,o),
(139,169,o),
(150,248,cs),
(172,400,o),
(268,525,o),
(410,594,cs),
(481,628,o),
(557,645,o),
(640,645,cs),
(794,645,o),
(907,583,o),
(957,473,cs),
(982,418,o),
(989,355,o),
(978,283,cs),
(966,194,o),
(925,122,o),
(877,82,c),
(852,63,o),
(828,53,o),
(806,53,cs),
(762,53,o),
(745,81,o),
(754,149,cs),
(794,429,l),
(701,429,l),
(661,149,ls),
(645,34,o),
(686,-23,o),
(784,-23,cs),
(863,-23,o),
(942,31,o),
(995,124,cs),
(1021,171,o),
(1038,224,o),
(1046,283,cs),
(1071,454,o),
(1011,588,o),
(883,660,cs),
(818,695,o),
(741,713,o),
(650,713,cs),
(552,713,o),
(462,693,o),
(379,653,cs),
(298,613,o),
(230,558,o),
(177,487,cs),
(123,416,o),
(90,337,o),
(77,248,cs),
(51,63,o),
(115,-84,o),
(251,-162,cs),
(318,-201,o),
(401,-220,o),
(498,-220,cs)
);
}
);
width = 1132;
},
{
layerId = "9DBD663E-71C9-4E39-B4BC-5CF5923FD470";
shapes = (
{
closed = 1;
nodes = (
(545,-10,o),
(608,20,o),
(649,59,cs),
(669,78,o),
(683,95,o),
(690,111,c),
(698,171,l),
(650,95,o),
(581,42,o),
(494,42,cs),
(445,42,o),
(408,60,o),
(382,96,cs),
(357,132,o),
(350,179,o),
(358,237,cs),
(366,295,o),
(391,342,o),
(432,378,c),
(474,413,o),
(525,431,o),
(585,431,cs),
(613,431,o),
(643,429,o),
(677,426,cs),
(708,423,o),
(742,421,o),
(777,421,c),
(785,474,l),
(757,474,o),
(722,476,o),
(690,479,cs),
(657,482,o),
(624,484,o),
(592,484,cs),
(488,484,o),
(401,441,o),
(347,366,cs),
(320,329,o),
(303,286,o),
(296,237,cs),
(282,137,o),
(308,61,o),
(370,21,c),
(400,0,o),
(439,-10,o),
(482,-10,cs)
);
},
{
closed = 1;
nodes = (
(529,-220,o),
(566,-216,o),
(607,-207,cs),
(648,-198,o),
(678,-187,o),
(699,-175,c),
(707,-117,l),
(655,-144,o),
(576,-160,o),
(496,-160,cs),
(332,-160,o),
(214,-89,o),
(164,36,cs),
(138,99,o),
(131,170,o),
(143,252,cs),
(165,405,o),
(263,531,o),
(405,601,cs),
(476,636,o),
(551,653,o),
(633,653,cs),
(788,653,o),
(902,590,o),
(951,477,cs),
(976,421,o),
(983,357,o),
(972,283,cs),
(959,191,o),
(917,112,o),
(863,66,c),
(836,44,o),
(809,33,o),
(783,33,cs),
(743,33,o),
(726,62,o),
(735,129,cs),
(781,449,l),
(720,449,l),
(674,129,ls),
(660,27,o),
(695,-23,o),
(781,-23,cs),
(855,-23,o),
(930,31,o),
(981,124,cs),
(1006,171,o),
(1022,224,o),
(1030,283,cs),
(1055,454,o),
(996,588,o),
(871,660,c),
(807,695,o),
(732,713,o),
(642,713,cs),
(547,713,o),
(459,693,o),
(377,653,cs),
(297,613,o),
(230,558,o),
(177,488,cs),
(124,417,o),
(90,339,o),
(78,252,cs),
(51,64,o),
(113,-84,o),
(247,-162,cs),
(313,-201,o),
(394,-220,o),
(490,-220,cs)
);
}
);
width = 1116;
}
);
unicode = 64;
}
{
glyphname = A;
layers = (
{
anchors = (
{
name = mark0;
position = "{341, 80}";
},
{
name = mark1;
position = "{340, 670}";
},
{
name = mark0.1;
position = "{660, 0}";
}
);
layerId = "5F1069EF-7233-42B2-A641-1D5303479095";
shapes = (
{
closed = 1;
nodes = (
(568,131,l),
(212,131,l),
(230,257,l),
(586,257,l)
);
},
{
closed = 1;
nodes = (
(437,482,l),
(159,0,l),
(-30,0,l),
(404,700,l),
(530,700,l),
(767,0,l),
(578,0,l)
);
}
);
width = 817;
},
{
anchors = (
{
name = mark0;
position = "{341, 80}";
},
{
name = mark1;
position = "{340, 670}";
},
{
name = mark0.1;
position = "{660, 0}";
}
);
layerId = "8E1BB1C9-5399-4481-B652-0152E5DB95F4";
shapes = (
{
closed = 1;
nodes = (
(582,178,l),
(195,178,l),
(207,264,l),
(594,264,l)
);
},
{
closed = 1;
nodes = (
(440,561,l),
(96,0,l),
(-22,0,l),
(420,700,l),
(498,700,l),
(743,0,l),
(625,0,l)
);
}
);
width = 801;
},
{
anchors = (
{
name = mark0;
position = "{341, 80}";
},
{
name = mark1;
position = "{340, 670}";
},
{
name = mark0.1;
position = "{660, 0}";
}
);
layerId = "DD0681D4-613B-4E2A-9B2E-3AB0BAB5AD9A";
shapes = (
{
closed = 1;
nodes = (
(589,202,l),
(186,202,l),
(195,268,l),
(598,268,l)
);
},
{
closed = 1;
nodes = (
(441,601,l),
(64,0,l),
(-18,0,l),
(428,700,l),
(482,700,l),
(731,0,l),
(649,0,l)
);
}
);
width = 793;
}
);
leftKerningGroup = _A1;
rightKerningGroup = _A;
unicode = 65;
}
{
glyphname = B;
layers = (
{
layerId = "5719F410-C0E5-43AE-88FA-B4FFDEE24CB8";
shapes = (
{
closed = 1;
nodes = (
(309.,700,l),
(142.,700,l),
(42,0,l),
(209,0,l)
);
},
{
closed = 1;
nodes = (
(269.,700,l),
(248.,553,l),
(341.,553,ls),
(400.,553,o),
(431.571,529,o),
(426.,490,cs),
(419.714,446,o),
(381.714,418,o),
(321.714,418,cs),
(228.714,418,l),
(212.143,302,l),
(336.143,302,ls),
(371.143,302,o),
(399.143,295,o),
(418.143,281,cs),
(437.,266,o),
(444.286,247,o),
(440.857,223,cs),
(434.429,178,o),
(392.,147,o),
(335.,147,cs),
(190.,147,l),
(169,0,l),
(314,0,ls),
(418,0,o),
(505.286,37,o),
(558.571,102,cs),
(584.143,134,o),
(600.429,171,o),
(606.429,213,cs),
(613.286,261,o),
(603.143,302,o),
(576.,336,cs),
(547.857,370,o),
(505.857,391,o),
(450.,399,c),
(449.429,374,l),
(526.857,391,o),
(588.286,450,o),
(598.571,522,cs),
(606.571,578,o),
(588.857,622,o),
(546.286,653,cs),
(502.714,684,o),
(441.,700,o),
(362.,700,cs)
);
}
);
width = 660;
},
{
layerId = "749AE4FF-5243-4D3F-AC67-AE9DCC0EE297";
shapes = (
{
closed = 1;
nodes = (
(262.,700,l),
(158.,700,l),
(58,0,l),
(162,0,l)
);
},
{
closed = 1;
nodes = (
(237.,700,l),
(224.,609,l),
(341.,609,ls),
(431.,609,o),
(477.714,572,o),
(469.429,514,cs),
(460.286,450,o),
(406.,413,o),
(321.,413,cs),
(196.,413,l),
(184.714,334,l),
(317.714,334,ls),
(373.714,334,o),
(417.,322,o),
(447.857,300,cs),
(478.571,277,o),
(491.143,246,o),
(485.714,208,cs),
(475.857,139,o),
(407.,91,o),
(311.,91,cs),
(150.,91,l),
(137,0,l),
(298,0,ls),
(402,0,o),
(489.143,36,o),
(542.143,99,cs),
(567.571,130,o),
(583.714,166,o),
(589.429,206,cs),
(596.714,257,o),
(585.,301,o),
(554.,336,cs),
(523.,371,o),
(479.143,393,o),
(421.429,402,c),
(418.714,383,l),
(505.429,402,o),
(565.286,457,o),
(575.571,529,cs),
(583.143,582,o),
(566.,623,o),
(525.429,654,cs),
(483.857,685,o),
(424.,700,o),
(346.,700,cs)
);
}
);
width = 653;
},
{
layerId = "9DBD663E-71C9-4E39-B4BC-5CF5923FD470";
shapes = (
{
closed = 1;
nodes = (
(239.,700,l),
(166.,700,l),
(66,0,l),
(139,0,l)
);
},
{
closed = 1;
nodes = (
(221.,700,l),
(212.,637,l),
(341.,637,ls),
(446.,637,o),
(500.857,594,o),
(491.143,526,cs),
(480.571,452,o),
(417.714,411,o),
(320.714,411,cs),
(179.714,411,l),
(171.,350,l),
(308.,350,ls),
(375.,350,o),
(426.,336,o),
(463.143,309,cs),
(499.286,282,o),
(514.143,246,o),
(507.714,201,cs),
(496.143,120,o),
(414.,63,o),
(299.,63,cs),
(130.,63,l),
(121,0,l),
(290,0,ls),
(394,0,o),
(481.143,36,o),
(533.857,97,c),
(559.286,128,o),
(575.286,163,o),
(581.,203,cs),
(588.429,255,o),
(575.857,300,o),
(543.,336,cs),
(511.143,372,o),
(465.286,394,o),
(407.714,404,c),
(403.429,388,l),
(495.143,407,o),
(553.857,461,o),
(564.143,533,cs),
(571.429,584,o),
(555.143,624,o),
(514.571,655,cs),
(474.857,685,o),
(415.,700,o),
(338.,700,cs)
);
}
);
width = 649;
}
);
leftKerningGroup = B;
unicode = 66;
}
{
glyphname = C;
layers = (
{
anchors = (
{
name = mark0;
position = "{369, 0}";
},
{
name = mark1;
position = "{370, 668}";
}
);
layerId = "5F1069EF-7233-42B2-A641-1D5303479095";
shapes = (
{
closed = 1;
nodes = (
(640,63,l),
(615,42,o),
(580,24,o),
(533,10,cs),
(510,3,o),
(487,-3,o),
(463,-6,cs),
(439,-9,o),
(414,-10,o),
(389,-10,cs),
(350,-10,o),
(315,-6,o),
(282,1,cs),
(249,8,o),
(219,20,o),
(191,35,cs),
(136,65,o),
(97,107,o),
(73,161,cs),
(48,215,o),
(41,278,o),
(51,350,cs),
(61,421,o),
(86,484,o),
(126,539,cs),
(165,594,o),
(217,636,o),
(280,666,cs),
(335,691,o),
(395,706,o),
(461,709,cs),
(471,710,o),
(480,710,o),
(490,710,cs),
(530,710,o),
(567,706,o),
(600,698,c),
(608,695,o),
(616,693,o),
(624,691,c),
(663,678,o),
(696,660,o),
(721,637,c),
(695,459,l),
(683,478,o),
(667,495,o),
(648,510,cs),
(635,519,o),
(621,528,o),
(606,536,c),
(606,536,o),
(606,536,o),
(606,536,c),
(582,547,o),
(556,555,o),
(528,559,cs),
(510,562,o),
(490,564,o),
(469,564,cs),
(443,564,o),
(419,561,o),
(395,555,c),
(380,550,o),
(365,545,o),
(350,538,cs),
(313,520,o),
(284,495,o),
(262,462,cs),
(239,429,o),
(225,392,o),
(219,350,cs),
(213,308,o),
(217,271,o),
(231,239,c),
(231,239,o),
(231,239,o),
(231,239,c),
(245,206,o),
(267,181,o),
(298,163,cs),
(328,145,o),
(365,136,o),
(409,136,cs),
(435,136,o),
(461,138,o),
(485,143,cs),
(510,148,o),
(533,155,o),
(556,165,cs),
(573,172,o),
(590,181,o),
(605,190,cs),
(627,204,o),
(647,221,o),
(665,241,c)
);
}
);
width = 734;
},
{
anchors = (
{
name = mark0;
position = "{369, 0}";
},
{
name = mark1;
position = "{370, 668}";
}
);
layerId = "8E1BB1C9-5399-4481-B652-0152E5DB95F4";
shapes = (
{
closed = 1;
nodes = (
(664,70,l),
(634,47,o),
(593,28,o),
(543,13,cs),
(517,5,o),
(492,-2,o),
(466,-5,cs),
(440,-8,o),
(415,-10,o),
(389,-10,cs),
(351,-10,o),
(316,-6,o),
(284,1,cs),
(252,8,o),
(223,20,o),
(196,35,cs),
(142,65,o),
(103,107,o),
(80,161,c),
(55,215,o),
(48,278,o),
(58,350,cs),
(68,421,o),
(93,484,o),
(133,539,cs),
(172,594,o),
(223,636,o),
(285,666,cs),
(344,694,o),
(408,709,o),
(480,710,cs),
(490,710,o),
(499,710,o),
(509,709,c),
(548,708,o),
(585,701,o),
(620,691,cs),
(629,688,o),
(637,685,o),
(645,682,cs),
(680,668,o),
(711,651,o),
(736,630,c),
(719,514,l),
(706,531,o),
(689,546,o),
(670,560,c),
(657,568,o),
(644,577,o),
(629,584,c),
(625,587,o),
(620,589,o),
(615,591,cs),
(593,600,o),
(569,608,o),
(545,613,cs),
(523,617,o),
(500,619,o),
(477,619,cs),
(448,619,o),
(421,616,o),
(395,610,cs),
(372,605,o),
(350,596,o),
(329,585,cs),
(284,563,o),
(247,532,o),
(218,491,cs),
(189,450,o),
(171,403,o),
(163,350,cs),
(156,303,o),
(160,262,o),
(172,225,cs),
(174,220,o),
(176,214,o),
(178,210,cs),
(195,168,o),
(223,136,o),
(261,114,cs),
(299,92,o),
(346,81,o),
(401,81,cs),
(426,81,o),
(452,83,o),
(478,88,cs),
(503,93,o),
(529,100,o),
(555,110,cs),
(578,118,o),
(600,128,o),
(620,140,cs),
(643,153,o),
(663,168,o),
(680,186,c)
);
}
);
width = 757;
},
{
anchors = (
{
name = mark0;
position = "{369, 0}";
},
{
name = mark1;
position = "{370, 668}";
}
);
layerId = "DD0681D4-613B-4E2A-9B2E-3AB0BAB5AD9A";
shapes = (
{
closed = 1;
nodes = (
(676,74,l),
(643,50,o),
(600,30,o),
(548,15,c),
(521,6,o),
(494,-1,o),
(468,-5,c),
(441,-8,o),
(415,-10,o),
(389,-10,cs),
(351,-10,o),
(316,-6,o),
(285,1,cs),
(254,8,o),
(225,20,o),
(199,35,cs),
(145,65,o),
(106,107,o),
(83,161,cs),
(59,215,o),
(52,278,o),
(62,350,cs),
(72,421,o),
(97,484,o),
(137,539,cs),
(176,594,o),
(226,636,o),
(287,666,cs),
(348,695,o),
(415,710,o),
(490,710,cs),
(500,710,o),
(509,710,o),
(519,709,cs),
(557,707,o),
(594,699,o),
(630,687,cs),
(639,684,o),
(648,681,o),
(656,677,cs),
(689,663,o),
(718,646,o),
(743,626,c),
(731,542,l),
(717,558,o),
(700,572,o),
(681,585,cs),
(668,593,o),
(655,601,o),
(641,608,cs),
(634,612,o),
(627,615,o),
(620,618,cs),
(599,627,o),
(576,635,o),
(553,640,cs),
(529,645,o),
(505,647,o),
(481,647,cs),
(451,647,o),
(422,644,o),
(395,638,cs),
(368,632,o),
(342,622,o),
(318,609,c),
(269,585,o),
(228,551,o),
(196,506,cs),
(164,461,o),
(144,409,o),
(135,350,cs),
(128,301,o),
(131,257,o),
(143,218,cs),
(145,210,o),
(148,202,o),
(151,195,cs),
(170,149,o),
(201,114,o),
(243,90,cs),
(285,65,o),
(336,53,o),
(397,53,cs),
(422,53,o),
(448,55,o),
(474,60,cs),
(500,65,o),
(527,72,o),
(555,82,cs),
(581,91,o),
(605,102,o),
(628,115,cs),
(651,128,o),
(671,142,o),
(688,158,c)
);
}
);
width = 769;
}
);
leftKerningGroup = _C;
unicode = 67;
}
{
glyphname = D;
layers = (
{
anchors = (
{
name = m.uni0941_2;
position = "{338, 0}";
},
{
name = t.uni0946_1_3;
position = "{438, 702}";
}
);
layerId = "5719F410-C0E5-43AE-88FA-B4FFDEE24CB8";
shapes = (
{
closed = 1;
nodes = (
(142.,700,l),
(42,0,l),
(314,0,ls),
(462,0,o),
(593.286,58,o),
(675.286,163,cs),
(715.857,216,o),
(741.714,278,o),
(752.,350,cs),
(772.571,494,o),
(717.143,603,o),
(607.,658,cs),
(553.,686,o),
(489.,700,o),
(414.,700,cs)
);
},
{
closed = 1;
nodes = (
(230.,147,l),
(288.,553,l),
(383.,553,ls),
(474.,553,o),
(541.,518,o),
(571.143,456,cs),
(585.714,425,o),
(589.714,390,o),
(584.,350,cs),
(572.571,270,o),
(524.429,206,o),
(448.714,173,c),
(412.143,155,o),
(370.,147,o),
(325.,147,cs)
);
}
);
width = 786;
},
{
anchors = (
{
name = m.uni0941_2;
position = "{338, 0}";
},
{
name = t.uni0946_1_3;
position = "{438, 702}";
}
);
layerId = "749AE4FF-5243-4D3F-AC67-AE9DCC0EE297";
shapes = (
{
closed = 1;
nodes = (
(158.,700,l),
(58,0,l),
(291,0,ls),
(443,0,o),
(576.286,58,o),
(659.286,163,c),
(699.857,216,o),
(725.714,278,o),
(736.,350,cs),
(756.571,494,o),
(701.143,603,o),
(589.,658,cs),
(534.,686,o),
(466.,700,o),
(391.,700,cs)
);
},
{
closed = 1;
nodes = (
(175.,91,l),
(249.,609,l),
(367.,609,ls),
(488.,609,o),
(575.714,565,o),
(614.571,487,cs),
(634.,448,o),
(638.429,402,o),
(631.,350,cs),
(616.143,246,o),
(553.571,165,o),
(456.571,123,cs),
(408.571,102,o),
(354.,91,o),
(293.,91,cs)
);
}
);
width = 778;
},
{
anchors = (
{
name = m.uni0941_2;
position = "{338, 0}";
},
{
name = t.uni0946_1_3;
position = "{438, 702}";
}
);
layerId = "9DBD663E-71C9-4E39-B4BC-5CF5923FD470";
shapes = (
{
closed = 1;
nodes = (
(166.,700,l),
(66,0,l),
(279,0,ls),
(434,0,o),
(568.286,58,o),
(651.286,163,c),
(691.857,216,o),
(717.714,278,o),
(728.,350,cs),
(748.571,494,o),
(693.143,603,o),
(580.,658,cs),
(524.,686,o),
(455.,700,o),
(379.,700,cs)
);
},
{
closed = 1;
nodes = (
(148.,63,l),
(230.,637,l),
(359.,637,ls),
(495.,637,o),
(593.143,589,o),
(635.857,503,cs),
(657.571,459,o),
(663.286,408,o),
(655.,350,cs),
(638.429,234,o),
(568.714,145,o),
(461.,98,cs),
(406.714,75,o),
(346.,63,o),
(277.,63,cs)
);
}
);
width = 774;
}
);
leftKerningGroup = B;
rightKerningGroup = D;
unicode = 68;
}
{
glyphname = E;
layers = (
{
anchors = (
{
name = mark0;
position = "{264, 0}";
},
{
name = mark1;
position = "{254, 670}";
},
{
name = mark0.1;
position = "{382, 0}";
}
);
layerId = "F0E59F11-1D58-42A6-80E9-36273FBB34FC";
shapes = (
{
closed = 1;
nodes = (
(534,282,l),
(235,282,l),
(255,429,l),
(554,429,l)
);
},
{
closed = 1;
nodes = (
(515,147,l),
(494,0,l),
(44,0,l),
(142,700,l),
(592,700,l),
(572,553,l),
(242,553,l),
(295,600,l),
(225,100,l),
(185,147,l)
);
}
);
width = 610;
},
{
anchors = (
{
name = mark0;
position = "{264, 0}";
},
{
name = mark1;
position = "{254, 670}";
},
{
name = mark0.1;
position = "{382, 0}";
}
);
layerId = "3B93B69D-E33D-48F3-A278-6EAB673A7F94";
shapes = (
{
closed = 1;
nodes = (
(522,314,l),
(192,314,l),
(204,405,l),
(535,405,l)
);
},
{
closed = 1;
nodes = (
(491,91,l),
(478,0,l),
(60,0,l),
(158,700,l),
(576,700,l),
(564,609,l),
(203,609,l),
(256,656,l),
(170,44,l),
(130,91,l)
);
}
);
width = 609;
},
{
anchors = (
{
name = mark0;
position = "{264, 0}";
},
{
name = mark1;
position = "{254, 670}";
},
{
name = mark0.1;
position = "{382, 0}";
}
);
layerId = "0D25A9BA-90DE-440E-BC4F-74EEDE6C6E67";
shapes = (
{
closed = 1;
nodes = (
(516,330,l),
(170,330,l),
(179,393,l),
(525,393,l)
);
},
{
closed = 1;
nodes = (
(479,63,l),
(470,0,l),
(68,0,l),
(166,700,l),
(568,700,l),
(560,637,l),
(183,637,l),
(237,684,l),
(143,16,l),
(102,63,l)
);
}
);
width = 608;
}
);
leftKerningGroup = _B;
unicode = 69;
}
{
glyphname = F;
layers = (
{
layerId = "5719F410-C0E5-43AE-88FA-B4FFDEE24CB8";
shapes = (
{
closed = 1;
nodes = (
(531,423,l),
(253,423,l),
(233,277,l),
(511,277,l)
);
},
{
closed = 1;
nodes = (
(42,0,l),
(209,0,l),
(295,600,l),
(241,553,l),
(550,553,l),
(571,700,l),
(142,700,l)
);
}
);
width = 574;
},
{
layerId = "749AE4FF-5243-4D3F-AC67-AE9DCC0EE297";
shapes = (
{
closed = 1;
nodes = (
(514,407,l),
(204,407,l),
(191,316,l),
(501,316,l)
);
},
{
closed = 1;
nodes = (
(58,0,l),
(162,0,l),
(256,656,l),
(202,609,l),
(543,609,l),
(556,700,l),
(158,700,l)
);
}
);
width = 569;
},
{
layerId = "9DBD663E-71C9-4E39-B4BC-5CF5923FD470";
shapes = (
{
closed = 1;
nodes = (
(505,399,l),
(179,399,l),
(170,336,l),
(496,336,l)
);
},
{
closed = 1;
nodes = (
(66,0,l),
(139,0,l),
(237,684,l),
(182,637,l),
(539,637,l),
(548,700,l),
(166,700,l)
);
}
);
width = 567;
}
);
leftKerningGroup = B;
unicode = 70;
}
{
glyphname = G;
layers = (
{
anchors = (
{
name = m.uni0941_2;
position = "{386, -10}";
},
{
name = t.uni0946_1_3;
position = "{478, 713}";
}
);
layerId = "5719F410-C0E5-43AE-88FA-B4FFDEE24CB8";
shapes = (
{
closed = 1;
nodes = (
(733.429,402,l),
(429.429,402,l),
(410.,266,l),
(593.,266,l),
(552.714,313,l),
(523.143,106,l),
(560.429,171,l),
(518.857,146,o),
(475.429,136,o),
(407.429,136,cs),
(320.429,136,o),
(256.857,174,o),
(229.143,239,cs),
(215.714,271,o),
(212.,308,o),
(218.,350,cs),
(230.,434,o),
(275.714,502,o),
(344.857,538,cs),
(379.286,555,o),
(416.571,564,o),
(457.571,564,cs),
(506.571,564,o),
(553.429,556,o),
(596.429,542,c),
(639.143,526,o),
(676.286,506,o),
(707.571,480,c),
(730.,637,l),
(703.286,660,o),
(666.857,678,o),
(621.857,692,c),
(576.571,704,o),
(527.429,710,o),
(478.429,710,cs),
(328.429,710,o),
(202.571,648,o),
(124.,539,cs),
(85.143,484,o),
(60.143,421,o),
(50.,350,cs),
(29.571,207,o),
(80.429,94,o),
(189.,35,cs),
(243.571,4,o),
(309.571,-10,o),
(386.571,-10,cs),
(442.571,-10,o),
(498.429,-4,o),
(553.429,10,cs),
(608.429,24,o),
(650.857,41,o),
(685.,63,c)
);
}
);
width = 781;
},
{
anchors = (
{
name = m.uni0941_2;
position = "{386, -10}";
},
{
name = t.uni0946_1_3;
position = "{478, 713}";
}
);
layerId = "749AE4FF-5243-4D3F-AC67-AE9DCC0EE297";
shapes = (
{
closed = 1;
nodes = (
(734.857,363,l),
(455.857,363,l),
(443.143,274,l),
(666.143,274,l),
(624.857,321,l),
(589.143,71,l),
(623.714,131,l),
(563.286,100,o),
(481.571,81,o),
(406.571,81,cs),
(295.571,81,o),
(212.143,127,o),
(178.,210,c),
(159.714,250,o),
(154.429,297,o),
(162.,350,cs),
(177.143,456,o),
(237.286,541,o),
(326.571,585,c),
(371.,609,o),
(419.429,619,o),
(473.429,619,cs),
(519.429,619,o),
(566.286,611,o),
(611.,595,c),
(655.429,577,o),
(693.286,555,o),
(722.286,527,c),
(738.,637,l),
(710.143,659,o),
(673.714,677,o),
(627.714,691,cs),
(581.571,704,o),
(534.429,710,o),
(486.429,710,cs),
(336.429,710,o),
(209.571,648,o),
(132.,539,cs),
(92.143,484,o),
(67.143,421,o),
(57.,350,cs),
(36.571,207,o),
(87.429,94,o),
(197.,35,c),
(251.571,4,o),
(317.571,-10,o),
(393.571,-10,cs),
(450.571,-10,o),
(505.429,-4,o),
(561.429,10,cs),
(615.429,24,o),
(658.857,41,o),
(692.,63,c)
);
}
);
width = 804;
},
{
anchors = (
{
name = m.uni0941_2;
position = "{386, -10}";
},
{
name = t.uni0946_1_3;
position = "{478, 713}";
}
);
layerId = "9DBD663E-71C9-4E39-B4BC-5CF5923FD470";
shapes = (
{
closed = 1;
nodes = (
(736.,343,l),
(469.,343,l),
(459.714,278,l),
(702.714,278,l),
(661.429,325,l),
(622.571,53,l),
(655.857,111,l),
(585.,77,o),
(484.571,53,o),
(406.571,53,cs),
(282.571,53,o),
(189.857,104,o),
(151.857,195,c),
(131.143,239,o),
(125.571,291,o),
(134.,350,cs),
(150.714,467,o),
(218.143,561,o),
(318.,609,c),
(366.857,636,o),
(421.429,647,o),
(481.429,647,cs),
(526.429,647,o),
(572.286,639,o),
(617.857,622,c),
(664.143,603,o),
(701.857,580,o),
(729.714,551,c),
(742.,637,l),
(714.143,659,o),
(676.714,677,o),
(630.714,691,cs),
(584.571,704,o),
(537.429,710,o),
(490.429,710,cs),
(340.429,710,o),
(213.571,648,o),
(136.,539,cs),
(96.143,484,o),
(71.143,421,o),
(61.,350,cs),
(40.571,207,o),
(91.429,94,o),
(201.,35,c),
(255.571,4,o),
(321.571,-10,o),
(397.571,-10,cs),
(454.571,-10,o),
(509.429,-4,o),
(565.429,10,cs),
(619.429,24,o),
(662.857,41,o),
(696.,63,c)
);
}
);
width = 816;
}
);
leftKerningGroup = C;
rightKerningGroup = G;
unicode = 71;
}
{
glyphname = H;
layers = (
{
anchors = (
{
name = mark0;
position = "{351, 0}";
},
{
name = mark1;
position = "{345, 670}";
},
{
name = mark0.1;
position = "{344, 520}";
}
);
layerId = "6377F2BA-02BD-49C5-9B81-A1BD44C27745";
shapes = (
{
closed = 1;
nodes = (
(683,0,l),
(515,0,l),
(613,700,l),
(781,700,l)
);
},
{
closed = 1;
nodes = (
(572,287,l),
(235,287,l),
(256,434,l),
(593,434,l)
);
},
{
closed = 1;
nodes = (
(142,700,l),
(309,700,l),
(211,0,l),
(44,0,l)
);
}
);
width = 807;
},
{
anchors = (
{
name = mark0;
position = "{351, 0}";
},
{
name = mark1;
position = "{345, 670}";
},
{
name = mark0.1;
position = "{344, 520}";
}
);
layerId = "4D5D236C-3626-44C9-B9AA-2206EC1912DB";
shapes = (
{
closed = 1;
nodes = (
(667,0,l),
(562,0,l),
(660,700,l),
(765,700,l)
);
},
{
closed = 1;
nodes = (
(624,319,l),
(192,319,l),
(205,410,l),
(637,410,l)
);
},
{
closed = 1;
nodes = (
(158,700,l),
(262,700,l),
(164,0,l),
(60,0,l)
);
}
);
width = 807;
},
{
anchors = (
{
name = mark0;
position = "{351, 0}";
},
{
name = mark1;
position = "{345, 670}";
},
{
name = mark0.1;
position = "{344, 520}";
}
);
layerId = "09BE0123-C991-42EB-87B9-55839D2F6983";
shapes = (
{
closed = 1;
nodes = (
(659,0,l),
(586,0,l),
(684,700,l),
(757,700,l)
);
},
{
closed = 1;
nodes = (
(650,335,l),
(171,335,l),
(180,398,l),
(659,398,l)
);
},
{
closed = 1;
nodes = (
(166,700,l),
(239,700,l),
(141,0,l),
(68,0,l)
);
}
);
width = 807;
}
);
leftKerningGroup = _B;
unicode = 72;
}
{
glyphname = I;
layers = (
{
anchors = (
{
name = mark0;
position = "{103, 0}";
},
{
name = mark1;
position = "{98, 668}";
},
{
name = mark0.1;
position = "{119, 0}";
}
);
layerId = "452014E6-FE56-49E1-9353-01B400A3FB86";
shapes = (
{
closed = 1;
nodes = (
(211,0,l),
(44,0,l),
(142,700,l),
(309,700,l)
);
}
);
width = 335;
},
{
anchors = (
{
name = mark0;
position = "{103, 0}";
},
{
name = mark1;
position = "{98, 668}";
},
{
name = mark0.1;
position = "{119, 0}";
}
);
layerId = "75D2F12C-E99F-40C8-813D-9BB93C453F0E";
shapes = (
{
closed = 1;
nodes = (
(164,0,l),
(60,0,l),
(158,700,l),
(262,700,l)
);
}
);
width = 303;
},
{
anchors = (
{
name = mark0;
position = "{103, 0}";
},
{
name = mark1;
position = "{98, 668}";
},
{
name = mark0.1;
position = "{119, 0}";
}
);
layerId = "2029F050-97EB-4300-B314-0D9E32070F1C";
shapes = (
{
closed = 1;
nodes = (
(141,0,l),
(68,0,l),
(166,700,l),
(239,700,l)
);
}
);
width = 287;
}
);
leftKerningGroup = _B;
unicode = 73;
}
{
glyphname = J;
layers = (
{
anchors = (
{
name = b.uni0321_2;
position = "{12, 0}";
},
{
name = m.uni0302_1;
position = "{236, 670}";
}
);
hints = (
{
place = (167,168);
type = Stem;
}
);
layerId = "7A4E2608-894C-42C3-A821-B6FEA079E459";
shapes = (
{
closed = 1;
nodes = (
(216,700,l),
(153,246,ls),
(140,159,o),
(120,112,o),
(68,80,cs),
(42,63,o),
(4,49,o),
(-43,40,c),
(-2,-94,l),
(91,-81,o),
(163,-48,o),
(217,2,cs),
(270,52,o),
(303,123,o),
(316,214,cs),
(384,700,l)
);
}
);
width = 428;
},
{
anchors = (
{
name = b.uni0321_2;
position = "{13, 0}";
},
{
name = m.uni0302_1;
position = "{237, 670}";
}
);
hints = (
{
horizontal = 1;
place = (-79,89);
type = Stem;
}
);
layerId = "2FEAAE27-63B5-41AA-B98F-0872FA373B5B";
shapes = (
{
closed = 1;
nodes = (
(210,700,l),
(140,197,ls),
(129,120,o),
(106,77,o),
(59,47,c),
(35,33,o),
(2,20,o),
(-40,10,c),
(-11,-79,l),
(56,-67,o),
(112,-42,o),
(157,-2,cs),
(202,39,o),
(229,96,o),
(239,173,cs),
(313,700,l)
);
}
);
width = 372;
},
{
anchors = (
{
name = b.uni0321_2;
position = "{13, 0}";
},
{
name = m.uni0302_1;
position = "{238, 670}";
}
);
hints = (
{
horizontal = 1;
place = (-71,66);
type = Stem;
},
{
place = (158,71);
type = Stem;
}
);
layerId = "BBA9C4CC-16BF-4D96-9809-7FD759381829";
shapes = (
{
closed = 1;
nodes = (
(207,700,l),
(133,173,ls),
(123,100,o),
(99,59,o),
(54,31,c),
(32,18,o),
(1,5,o),
(-38,-5,c),
(-16,-71,l),
(39,-60,o),
(86,-39,o),
(127,-4,c),
(168,32,o),
(192,82,o),
(201,152,cs),
(278,700,l)
);
}
);
width = 344;
}
);
leftKerningGroup = J2;
rightKerningGroup = J;
unicode = 74;
}
{
glyphname = K;
layers = (
{
anchors = (
{
name = mark0;
position = "{294, 20}";
},
{
name = mark1;
position = "{278, 660}";
}
);
layerId = "F0E59F11-1D58-42A6-80E9-36273FBB34FC";
shapes = (
{
closed = 1;
nodes = (
(211,0,l),
(44,0,l),
(142,700,l),
(309,700,l)
);
},
{
closed = 1;
nodes = (
(714,0,l),
(505,0,l),
(243,371,l),
(571,700,l),
(781,700,l),
(431,371,l)
);
}
);
width = 765;
},
{
anchors = (
{
name = mark0;
position = "{294, 20}";
},
{
name = mark1;
position = "{278, 660}";
}
);
layerId = "3B93B69D-E33D-48F3-A278-6EAB673A7F94";
shapes = (
{
closed = 1;
nodes = (
(164,0,l),
(60,0,l),
(158,700,l),
(262,700,l)
);
},
{
closed = 1;
nodes = (
(635,0,l),
(497,0,l),
(219,371,l),
(564,700,l),
(702,700,l),
(344,371,l)
);
}
);
width = 686;
},
{
anchors = (
{
name = mark0;
position = "{294, 20}";
},
{
name = mark1;
position = "{278, 660}";
}
);
layerId = "0D25A9BA-90DE-440E-BC4F-74EEDE6C6E67";
shapes = (
{
closed = 1;
nodes = (
(141,0,l),
(68,0,l),
(166,700,l),
(239,700,l)
);
},
{
closed = 1;
nodes = (
(596,0,l),
(493,0,l),
(207,371,l),
(560,700,l),
(662,700,l),
(301,371,l)
);
}
);
width = 646;
}
);
leftKerningGroup = _B;
rightKerningGroup = _K;
unicode = 75;
}
{
glyphname = L;
layers = (
{
anchors = (
{
name = t.uni0946_1_3;
position = "{224, 702}";
},
{
name = t.uni0335_2;
position = "{188, 388}";
},
{
name = t.uni031B_3;
position = "{484, 792}";
}
);
layerId = "5719F410-C0E5-43AE-88FA-B4FFDEE24CB8";
shapes = (
{
closed = 1;
nodes = (
(183.,147,l),
(223.286,100,l),
(309.,700,l),
(142.,700,l),
(42,0,l),
(503,0,l),
(524.,147,l)
);
}
);
width = 566;
},
{
anchors = (
{
name = t.uni0946_1_3;
position = "{224, 702}";
},
{
name = t.uni0335_2;
position = "{188, 388}";
},
{
name = t.uni031B_3;
position = "{484, 792}";
}
);
layerId = "749AE4FF-5243-4D3F-AC67-AE9DCC0EE297";
shapes = (
{
closed = 1;
nodes = (
(128.,91,l),
(168.286,44,l),
(262.,700,l),
(158.,700,l),
(58,0,l),
(487,0,l),
(500.,91,l)
);
}
);
width = 550;
},
{
anchors = (
{
name = t.uni0946_1_3;
position = "{224, 702}";
},
{
name = t.uni0335_2;
position = "{188, 388}";
},
{
name = t.uni031B_3;
position = "{484, 792}";
}
);
layerId = "9DBD663E-71C9-4E39-B4BC-5CF5923FD470";
shapes = (
{
closed = 1;
nodes = (
(100.,63,l),
(141.286,16,l),
(239.,700,l),
(166.,700,l),
(66,0,l),
(479,0,l),
(488.,63,l)
);
}
);
width = 542;
}
);
leftKerningGroup = B;
rightKerningGroup = L;
unicode = 76;
}
{
glyphname = M;
layers = (
{
layerId = "5719F410-C0E5-43AE-88FA-B4FFDEE24CB8";
shapes = (
{
closed = 1;
nodes = (
(896.,700,l),
(750.,700,l),
(473.429,381,l),
(289.,700,l),
(142.,700,l),
(42,0,l),
(209,0,l),
(269.571,424,l),
(432.286,163,l),
(453.286,163,l),
(689.571,424,l),
(629,0,l),
(796,0,l)
);
}
);
width = 922;
},
{
layerId = "749AE4FF-5243-4D3F-AC67-AE9DCC0EE297";
shapes = (
{
closed = 1;
nodes = (
(880.,700,l),
(789.,700,l),
(469.,350,l),
(249.,700,l),
(158.,700,l),
(58,0,l),
(162,0,l),
(237.286,527,l),
(439.,210,l),
(460.,210,l),
(751.286,527,l),
(676,0,l),
(780,0,l)
);
}
);
width = 922;
},
{
layerId = "9DBD663E-71C9-4E39-B4BC-5CF5923FD470";
shapes = (
{
closed = 1;
nodes = (
(872.,700,l),
(809.,700,l),
(466.714,334,l),
(229.,700,l),
(166.,700,l),
(66,0,l),
(139,0,l),
(221.714,579,l),
(442.429,234,l),
(463.429,234,l),
(782.714,579,l),
(700,0,l),
(772,0,l)
);
}
);
width = 922;
}
);
unicode = 77;
}
{
glyphname = N;
layers = (
{
anchors = (
{
name = mark0;
position = "{375, 0}";
},
{
name = mark1;
position = "{345, 670}";
}
);
layerId = "F0E59F11-1D58-42A6-80E9-36273FBB34FC";
shapes = (
{
closed = 1;
nodes = (
(714,0,l),
(568,0,l),
(273,441,l),
(211,0,l),
(44,0,l),
(142,700,l),
(289,700,l),
(583,259,l),
(645,700,l),
(812,700,l)
);
}
);
width = 838;
},
{
anchors = (
{
name = mark0;
position = "{375, 0}";
},
{
name = mark1;
position = "{345, 670}";
}
);
layerId = "3B93B69D-E33D-48F3-A278-6EAB673A7F94";
shapes = (
{
closed = 1;
nodes = (
(699,0,l),
(615,0,l),
(238,528,l),
(164,0,l),
(60,0,l),
(158,700,l),
(242,700,l),
(618,172,l),
(692,700,l),
(797,700,l)
);
}
);
width = 838;
},
{
anchors = (
{
name = mark0;
position = "{375, 0}";
},
{
name = mark1;
position = "{345, 670}";
}
);
layerId = "0D25A9BA-90DE-440E-BC4F-74EEDE6C6E67";
shapes = (
{
closed = 1;
nodes = (
(691,0,l),
(639,0,l),
(221,571,l),
(141,0,l),
(68,0,l),
(166,700,l),
(218,700,l),
(636,129,l),
(716,700,l),
(789,700,l)
);
}
);
width = 838;
}
);
leftKerningGroup = _B;
unicode = 78;
}
{
glyphname = O;
layers = (
{
layerId = "5719F410-C0E5-43AE-88FA-B4FFDEE24CB8";
shapes = (
{
closed = 1;
nodes = (
(335.429,710,o),
(206.571,648,o),
(126.,539,cs),
(86.143,484,o),
(60.143,421,o),
(50.,350,cs),
(29.571,207,o),
(81.429,94,o),
(190.,35,c),
(243.571,4,o),
(309.571,-10,o),
(386.571,-10,cs),
(540.571,-10,o),
(669.429,52,o),
(750.,161,cs),
(790.857,216,o),
(814.857,279,o),
(825.,350,cs),
(845.429,493,o),
(793.571,606,o),
(686.,665,cs),
(631.429,696,o),
(565.429,710,o),
(489.429,710,cs)
);
},
{
closed = 1;
nodes = (
(320.429,136,o),
(256.857,174,o),
(229.143,239,cs),
(215.714,271,o),
(212.,308,o),
(218.,350,cs),
(230.,434,o),
(276.714,502,o),
(348.857,538,c),
(385.286,555,o),
(425.571,564,o),
(468.571,564,cs),
(555.571,564,o),
(619.286,527,o),
(646.,462,cs),
(659.429,430,o),
(664.,392,o),
(658.,350,cs),
(646.,266,o),
(598.429,199,o),
(526.286,163,c),
(489.857,146,o),
(450.429,136,o),
(407.429,136,cs)
);
}
);
width = 859;
},
{
layerId = "749AE4FF-5243-4D3F-AC67-AE9DCC0EE297";
shapes = (
{
closed = 1;
nodes = (
(338.429,710,o),
(211.571,648,o),
(133.,539,cs),
(93.143,484,o),
(67.143,421,o),
(57.,350,cs),
(36.571,207,o),
(87.429,94,o),
(195.,35,c),
(246.571,4,o),
(310.571,-10,o),
(386.571,-10,cs),
(536.571,-10,o),
(664.429,52,o),
(743.,161,cs),
(782.857,216,o),
(807.857,279,o),
(818.,350,cs),
(838.429,493,o),
(787.571,606,o),
(682.,665,cs),
(628.429,696,o),
(564.429,710,o),
(489.429,710,cs)
);
},
{
closed = 1;
nodes = (
(289.571,81,o),
(211.143,127,o),
(176.,210,cs),
(159.714,250,o),
(154.429,297,o),
(162.,350,cs),
(177.143,456,o),
(237.286,541,o),
(327.571,585,c),
(372.,609,o),
(422.429,619,o),
(476.429,619,cs),
(585.429,619,o),
(664.857,573,o),
(699.143,491,cs),
(715.429,451,o),
(720.571,403,o),
(713.,350,cs),
(697.857,244,o),
(637.714,159,o),
(548.286,114,cs),
(503.,91,o),
(453.571,81,o),
(399.571,81,cs)
);
}
);
width = 859;
},
{
layerId = "9DBD663E-71C9-4E39-B4BC-5CF5923FD470";
shapes = (
{
closed = 1;
nodes = (
(340.429,710,o),
(213.571,648,o),
(136.,539,cs),
(96.143,484,o),
(71.143,421,o),
(61.,350,cs),
(40.571,207,o),
(90.429,94,o),
(197.,35,c),
(248.571,4,o),
(311.571,-10,o),
(386.571,-10,cs),
(534.571,-10,o),
(661.429,52,o),
(740.,161,cs),
(778.857,216,o),
(803.857,279,o),
(814.,350,cs),
(834.429,493,o),
(784.571,606,o),
(680.,665,cs),
(626.429,696,o),
(563.429,710,o),
(489.429,710,cs)
);
},
{
closed = 1;
nodes = (
(274.571,53,o),
(187.857,104,o),
(149.857,195,cs),
(131.143,239,o),
(125.571,291,o),
(134.,350,cs),
(150.714,467,o),
(218.143,561,o),
(317.,609,c),
(365.857,636,o),
(420.429,647,o),
(480.429,647,cs),
(600.429,647,o),
(687.143,596,o),
(725.286,506,cs),
(743.857,461,o),
(749.429,409,o),
(741.,350,cs),
(724.286,233,o),
(657.857,139,o),
(559.857,90,c),
(510.143,64,o),
(454.571,53,o),
(395.571,53,cs)
);
}
);
width = 859;
}
);
leftKerningGroup = C;
rightKerningGroup = D;
unicode = 79;
}
{
glyphname = P;
layers = (
{
layerId = "6377F2BA-02BD-49C5-9B81-A1BD44C27745";
shapes = (
{
closed = 1;
nodes = (
(211,0,l),
(44,0,l),
(142,700,l),
(309,700,l)
);
},
{
closed = 1;
nodes = (
(393,700,ls),
(448,700,o),
(494,690,o),
(532,670,cs),
(611,630,o),
(646,556,o),
(633,460,cs),
(626,412,o),
(609,370,o),
(581,335,cs),
(525,263,o),
(434,221,o),
(326,221,cs),
(202,221,l),
(223,368,l),
(347,368,ls),
(379,368,o),
(405,376,o),
(426,393,cs),
(448,410,o),
(461,433,o),
(465,460,cs),
(469,488,o),
(462,511,o),
(445,528,cs),
(429,545,o),
(405,553,o),
(373,553,cs),
(249,553,l),
(269,700,l)
);
}
);
width = 650;
},
{
layerId = "4D5D236C-3626-44C9-B9AA-2206EC1912DB";
shapes = (
{
closed = 1;
nodes = (
(164,0,l),
(60,0,l),
(158,700,l),
(262,700,l)
);
},
{
closed = 1;
nodes = (
(386,700,ls),
(435,700,o),
(479,690,o),
(515,671,cs),
(589,631,o),
(623,561,o),
(610,468,cs),
(603,421,o),
(587,381,o),
(561,347,cs),
(508,278,o),
(421,237,o),
(321,237,cs),
(172,237,l),
(185,328,l),
(334,328,ls),
(380,328,o),
(418,341,o),
(450,366,c),
(481,392,o),
(500,426,o),
(506,468,cs),
(512,510,o),
(503,544,o),
(478,571,cs),
(454,596,o),
(420,609,o),
(374,609,cs),
(225,609,l),
(237,700,l)
);
}
);
width = 634;
},
{
layerId = "09BE0123-C991-42EB-87B9-55839D2F6983";
shapes = (
{
closed = 1;
nodes = (
(141,0,l),
(68,0,l),
(166,700,l),
(239,700,l)
);
},
{
closed = 1;
nodes = (
(382,700,ls),
(429,700,o),
(471,690,o),
(507,671,cs),
(578,632,o),
(611,564,o),
(598,472,cs),
(592,426,o),
(576,386,o),
(551,353,cs),
(499,285,o),
(415,245,o),
(318,245,cs),
(157,245,l),
(166,308,l),
(327,308,ls),
(380,308,o),
(425,323,o),
(462,353,cs),
(498,383,o),
(519,423,o),
(526,472,cs),
(533,521,o),
(523,561,o),
(495,592,cs),
(467,622,o),
(427,637,o),
(374,637,cs),
(213,637,l),
(221,700,l)
);
}
);
width = 626;
}
);
leftKerningGroup = _B;
unicode = 80;
}
{
glyphname = Q;
layers = (
{
layerId = "AE25C586-C738-4B48-9E5B-2AB1177ED30E";
name = "#instance";
shapes = (
{
closed = 1;
nodes = (
(540,-10,o),
(670,53,o),
(750,162,cs),
(790,216,o),
(815,279,o),
(825,350,cs),
(845,493,o),
(793,605,o),
(686,665,cs),
(631,695,o),
(566,710,o),
(489,710,cs),
(334,710,o),
(205,647,o),
(126,539,cs),
(85,484,o),
(60,421,o),
(50,350,cs),
(30,207,o),
(82,95,o),
(190,35,cs),
(244,5,o),
(310,-10,o),
(387,-10,cs)
);
},
{
closed = 1;
nodes = (
(320,136,o),
(256,174,o),
(229,239,cs),
(216,271,o),
(212,308,o),
(218,350,cs),
(230,434,o),
(277,501,o),
(350,537,cs),
(385,555,o),
(426,564,o),
(469,564,cs),
(556,564,o),
(619,526,o),
(647,462,c),
(660,429,o),
(664,392,o),
(658,350,cs),
(646,266,o),
(598,199,o),
(526,163,cs),
(491,145,o),
(450,136,o),
(407,136,cs)
);
},
{
closed = 1;
nodes = (
(676,-161,o),
(697,-158,o),
(718,-153,c),
(769,-15,l),
(749,-22,o),
(723,-25,o),
(694,-25,cs),
(645,-25,o),
(605,-12,o),
(576,15,c),
(479,99,l),
(384,1,l),
(485,-90,ls),
(543,-143,o),
(597,-161,o),
(654,-161,cs)
);
}
);
width = 859;
},
{
layerId = "5719F410-C0E5-43AE-88FA-B4FFDEE24CB8";
shapes = (
{
closed = 1;
nodes = (
(540,-10,o),
(670,53,o),
(750,162,cs),
(790,216,o),
(815,279,o),
(825,350,cs),
(845,493,o),
(793,605,o),
(686,665,cs),
(631,695,o),
(566,710,o),
(489,710,cs),
(334,710,o),
(205,647,o),
(126,539,cs),
(85,484,o),
(60,421,o),
(50,350,cs),
(30,207,o),
(82,95,o),
(190,35,cs),
(244,5,o),
(310,-10,o),
(387,-10,cs)
);
},
{
closed = 1;
nodes = (
(320,136,o),
(256,174,o),
(229,239,cs),
(216,271,o),
(212,308,o),
(218,350,cs),
(230,434,o),
(277,501,o),
(350,537,cs),
(385,555,o),
(426,564,o),
(469,564,cs),
(556,564,o),
(619,526,o),
(647,462,cs),
(660,429,o),
(664,392,o),
(658,350,cs),
(646,266,o),
(598,199,o),
(526,163,cs),
(491,145,o),
(450,136,o),
(407,136,cs)
);
},
{
closed = 1;
nodes = (
(676,-161,o),
(697,-158,o),
(718,-153,c),
(769,-15,l),
(749,-22,o),
(723,-25,o),
(694,-25,cs),
(645,-25,o),
(605,-12,o),
(576,15,c),
(479,99,l),
(384,1,l),
(485,-90,ls),
(543,-143,o),
(597,-161,o),
(654,-161,cs)
);
}
);
width = 859;
},
{
layerId = "749AE4FF-5243-4D3F-AC67-AE9DCC0EE297";
shapes = (
{
closed = 1;
nodes = (
(537,-10,o),
(665,53,o),
(743,162,cs),
(783,216,o),
(808,279,o),
(818,350,cs),
(838,493,o),
(788,605,o),
(682,665,cs),
(629,695,o),
(565,710,o),
(489,710,cs),
(339,710,o),
(211,647,o),
(133,539,cs),
(92,484,o),
(67,421,o),
(57,350,cs),
(37,207,o),
(89,95,o),
(195,35,cs),
(248,5,o),
(311,-10,o),
(387,-10,cs)
);
},
{
closed = 1;
nodes = (
(291,81,o),
(210,127,o),
(176,210,cs),
(159,250,o),
(154,297,o),
(162,350,cs),
(177,456,o),
(237,541,o),
(328,586,cs),
(372,608,o),
(422,619,o),
(476,619,cs),
(585,619,o),
(665,573,o),
(700,491,c),
(716,450,o),
(721,403,o),
(713,350,cs),
(698,244,o),
(638,159,o),
(548,114,cs),
(504,92,o),
(454,81,o),
(400,81,cs)
);
},
{
closed = 1;
nodes = (
(669,-161,o),
(690,-158,o),
(710,-153,c),
(739,-62,l),
(718,-69,o),
(693,-72,o),
(664,-72,cs),
(621,-72,o),
(578,-55,o),
(538,-20,cs),
(441,63,l),
(377,1,l),
(477,-90,ls),
(535,-143,o),
(587,-161,o),
(646,-161,cs)
);
}
);
width = 859;
},
{
layerId = "9DBD663E-71C9-4E39-B4BC-5CF5923FD470";
shapes = (
{
closed = 1;
nodes = (
(535,-10,o),
(662,53,o),
(740,162,cs),
(779,216,o),
(804,279,o),
(814,350,cs),
(834,493,o),
(785,605,o),
(680,665,cs),
(628,695,o),
(564,710,o),
(489,710,cs),
(341,710,o),
(214,647,o),
(136,539,cs),
(96,484,o),
(71,421,o),
(61,350,cs),
(41,207,o),
(92,95,o),
(197,35,cs),
(250,5,o),
(312,-10,o),
(387,-10,cs)
);
},
{
closed = 1;
nodes = (
(276,53,o),
(188,104,o),
(150,195,c),
(130,239,o),
(126,291,o),
(134,350,cs),
(151,467,o),
(218,561,o),
(317,611,cs),
(366,635,o),
(420,647,o),
(480,647,cs),
(600,647,o),
(688,596,o),
(726,506,cs),
(745,461,o),
(749,409,o),
(741,350,cs),
(724,233,o),
(658,139,o),
(560,90,cs),
(510,65,o),
(456,53,o),
(396,53,cs)
);
},
{
closed = 1;
nodes = (
(665,-161,o),
(686,-158,o),
(706,-153,c),
(724,-86,l),
(703,-93,o),
(677,-96,o),
(648,-96,cs),
(608,-96,o),
(564,-77,o),
(519,-38,cs),
(421,45,l),
(373,1,l),
(473,-90,ls),
(531,-143,o),
(582,-161,o),
(642,-161,cs)
);
}
);
width = 859;
}
);
leftKerningGroup = C;
rightKerningGroup = D;
unicode = 81;
}
{
glyphname = R;
layers = (
{
anchors = (
{
name = t.uni0946_1_3;
position = "{388, 713}";
}
);
layerId = "5719F410-C0E5-43AE-88FA-B4FFDEE24CB8";
shapes = (
{
closed = 1;
nodes = (
(142.,700,l),
(42,0,l),
(209,0,l),
(309.,700,l)
);
},
{
closed = 1;
nodes = (
(637,0,l),
(632.714,12,o),
(624.,35,o),
(614.,70,c),
(605.571,95,o),
(597.571,123,o),
(588.714,152,c),
(578.714,180,o),
(568.429,206,o),
(557.571,228,c),
(522.857,307,o),
(454.714,348,o),
(334.714,348,cs),
(322.714,348,l),
(257.143,253,l),
(266.143,253,ls),
(341.143,253,o),
(377.286,226,o),
(403.,154,c),
(414.714,124,o),
(424.429,94,o),
(432.286,65,cs),
(440.143,36,o),
(445.,14,o),
(447,0,c)
);
},
{
closed = 1;
nodes = (
(269.,700,l),
(248.,553,l),
(351.,553,ls),
(414.,553,o),
(450.714,516,o),
(442.714,460,cs),
(434.714,404,o),
(387.571,368,o),
(324.571,368,cs),
(221.571,368,l),
(205.143,253,l),
(298.143,253,l),
(328.,294,l),
(346.,294,ls),
(445.,294,o),
(525.286,331,o),
(572.857,391,cs),
(595.,420,o),
(609.857,454,o),
(615.143,491,cs),
(626.571,571,o),
(589.143,638,o),
(511.286,674,cs),
(472.857,692,o),
(426.,700,o),
(372.,700,cs)
);
}
);
width = 690;
},
{
anchors = (
{
name = t.uni0946_1_3;
position = "{388, 713}";
}
);
layerId = "749AE4FF-5243-4D3F-AC67-AE9DCC0EE297";
shapes = (
{
closed = 1;
nodes = (
(158.,700,l),
(58,0,l),
(162,0,l),
(262.,700,l)
);
},
{
closed = 1;
nodes = (
(602,0,l),
(597.571,11,o),
(593.429,24,o),
(587.857,41,cs),
(580.429,66,o),
(570.571,95,o),
(560.143,127,cs),
(548.714,159,o),
(537.857,188,o),
(526.286,212,cs),
(489.143,295,o),
(430.429,339,o),
(316.429,339,cs),
(274.429,339,l),
(221.429,276,l),
(262.429,276,ls),
(355.429,276,o),
(397.714,243,o),
(429.571,165,cs),
(443.714,131,o),
(455.143,99,o),
(463.571,67,cs),
(473.,35,o),
(477.857,13,o),
(479,0,c)
);
},
{
closed = 1;
nodes = (
(237.,700,l),
(224.,609,l),
(327.,609,ls),
(429.,609,o),
(481.143,561,o),
(470.,483,cs),
(459.143,407,o),
(393.429,360,o),
(291.429,360,cs),
(188.429,360,l),
(176.429,276,l),
(284.429,276,l),
(314.286,310,l),
(332.286,310,ls),
(422.286,310,o),
(494.429,346,o),
(537.714,404,cs),
(557.714,432,o),
(571.286,464,o),
(576.286,499,cs),
(587.286,576,o),
(554.429,640,o),
(478.429,675,cs),
(440.857,692,o),
(395.,700,o),
(340.,700,cs)
);
}
);
width = 654;
},
{
anchors = (
{
name = t.uni0946_1_3;
position = "{388, 713}";
}
);
layerId = "9DBD663E-71C9-4E39-B4BC-5CF5923FD470";
shapes = (
{
closed = 1;
nodes = (
(166.,700,l),
(66,0,l),
(139,0,l),
(239.,700,l)
);
},
{
closed = 1;
nodes = (
(584,0,l),
(580.429,10,o),
(577.714,19,o),
(574.714,26,c),
(567.429,52,o),
(557.571,81,o),
(546.429,115,cs),
(534.286,149,o),
(522.571,179,o),
(511.143,204,cs),
(472.286,289,o),
(417.714,334,o),
(306.714,334,cs),
(250.714,334,l),
(203.143,288,l),
(260.143,288,ls),
(363.143,288,o),
(407.857,251,o),
(442.429,171,cs),
(458.286,135,o),
(470.571,102,o),
(479.714,68,cs),
(489.,35,o),
(493.714,12,o),
(495,0,c)
);
},
{
closed = 1;
nodes = (
(221.,700,l),
(212.,637,l),
(315.,637,ls),
(437.,637,o),
(496.286,583,o),
(483.714,495,cs),
(471.429,409,o),
(396.857,356,o),
(274.857,356,cs),
(171.857,356,l),
(162.143,288,l),
(278.143,288,l),
(307.429,318,l),
(325.429,318,ls),
(411.429,318,o),
(479.571,354,o),
(519.571,410,cs),
(539.571,438,o),
(552.,469,o),
(556.857,503,cs),
(567.714,579,o),
(536.571,641,o),
(462.429,675,cs),
(424.857,692,o),
(379.,700,o),
(324.,700,cs)
);
}
);
width = 636;
}
);
leftKerningGroup = B;
rightKerningGroup = R;
unicode = 82;
}
{
glyphname = S;
layers = (
{
anchors = (
{
name = m.uni0941_2;
position = "{282, 0}";
},
{
name = t.uni0946_1_3;
position = "{277, 710}";
}
);
layerId = "AE25C586-C738-4B48-9E5B-2AB1177ED30E";
name = "#instance";
shapes = (
{
closed = 1;
nodes = (
(336,619,o),
(394,596,o),
(445,554,c),
(445,660,l),
(405,690,o),
(339,710,o),
(270,710,cs),
(188,710,o),
(122,678,o),
(87,624,cs),
(69,596,o),
(60,566,o),
(60,532,cs),
(60,457,o),
(96,405,o),
(193,345,cs),
(276,293,ls),
(336,256,o),
(366,215,o),
(367,171,cs),
(368,118,o),
(327,81,o),
(263,81,cs),
(190,81,o),
(122,114,o),
(60,179,c),
(60,63,l),
(113,18,o),
(183,-10,o),
(263,-10,cs),
(342,-10,o),
(408,24,o),
(445,83,cs),
(463,111,o),
(471,143,o),
(471,181,cs),
(471,261,o),
(426,325,o),
(333,381,cs),
(250,432,ls),
(189,469,o),
(165,502,o),
(165,542,cs),
(165,584,o),
(205,619,o),
(270,619,cs)
);
}
);
width = 532;
},
{
anchors = (
{
name = m.uni0941_2;
position = "{240, 0}";
},
{
name = t.uni0946_1_3;
position = "{336, 710}";
}
);
layerId = "5719F410-C0E5-43AE-88FA-B4FFDEE24CB8";
shapes = (
{
closed = 1;
nodes = (
(389.571,564,o),
(454.286,541,o),
(504.857,503,c),
(527.286,660,l),
(494.571,690,o),
(431.429,710,o),
(352.429,710,cs),
(257.429,710,o),
(177.571,676,o),
(128.857,615,cs),
(104.571,585,o),
(88.429,549,o),
(82.714,509,cs),
(72.571,438,o),
(102.143,386,o),
(179.143,330,cs),
(262.571,270,ls),
(307.,238,o),
(323.714,215,o),
(320.,189,cs),
(315.286,156,o),
(282.429,136,o),
(243.429,136,cs),
(177.429,136,o),
(107.429,171,o),
(43.,231,c),
(19.,63,l),
(64.857,20,o),
(141.571,-10,o),
(222.571,-10,cs),
(315.571,-10,o),
(396.714,26,o),
(444.857,90,cs),
(469.429,122,o),
(483.571,158,o),
(489.429,199,cs),
(501.,280,o),
(462.286,338,o),
(378.714,397,cs),
(295.,455,ls),
(266.,476,o),
(248.857,496,o),
(252.286,520,cs),
(255.857,545,o),
(288.571,564,o),
(331.571,564,cs)
);
}
);
width = 555;
},
{
anchors = (
{
name = m.uni0941_2;
position = "{240, 0}";
},
{
name = t.uni0946_1_3;
position = "{336, 710}";
}
);
layerId = "749AE4FF-5243-4D3F-AC67-AE9DCC0EE297";
shapes = (
{
closed = 1;
nodes = (
(382.429,619,o),
(437.143,596,o),
(482.143,554,c),
(497.286,660,l),
(461.571,690,o),
(398.429,710,o),
(329.429,710,cs),
(247.429,710,o),
(176.857,678,o),
(134.143,624,cs),
(112.143,596,o),
(98.857,566,o),
(94.,532,cs),
(83.286,457,o),
(111.857,405,o),
(200.286,345,cs),
(275.857,293,ls),
(330.571,256,o),
(354.714,215,o),
(349.429,171,cs),
(342.857,118,o),
(296.571,81,o),
(232.571,81,cs),
(159.571,81,o),
(96.286,114,o),
(43.571,179,c),
(27.,63,l),
(73.571,18,o),
(139.571,-10,o),
(219.571,-10,cs),
(298.571,-10,o),
(369.429,24,o),
(414.857,83,cs),
(436.857,111,o),
(449.429,143,o),
(454.857,181,cs),
(466.286,261,o),
(430.429,325,o),
(345.429,381,cs),
(269.714,432,ls),
(214.,469,o),
(194.714,502,o),
(200.429,542,cs),
(206.429,584,o),
(251.429,619,o),
(316.429,619,cs)
);
}
);
width = 532;
},
{
anchors = (
{
name = m.uni0941_2;
position = "{240, 0}";
},
{
name = t.uni0946_1_3;
position = "{336, 710}";
}
);
layerId = "9DBD663E-71C9-4E39-B4BC-5CF5923FD470";
shapes = (
{
closed = 1;
nodes = (
(379.429,647,o),
(429.,623,o),
(470.857,580,c),
(482.286,660,l),
(444.571,690,o),
(382.429,710,o),
(317.429,710,cs),
(242.429,710,o),
(177.,679,o),
(136.857,629,cs),
(116.,602,o),
(104.,574,o),
(99.571,543,cs),
(88.571,466,o),
(117.286,415,o),
(210.429,353,cs),
(282.571,305,ls),
(342.857,265,o),
(370.714,215,o),
(364.143,162,cs),
(356.143,99,o),
(303.571,53,o),
(226.571,53,cs),
(150.571,53,o),
(90.143,85,o),
(43.857,153,c),
(31.,63,l),
(78.429,17,o),
(138.571,-10,o),
(217.571,-10,cs),
(289.571,-10,o),
(356.286,23,o),
(399.286,79,cs),
(420.143,106,o),
(432.429,136,o),
(437.571,172,cs),
(448.857,251,o),
(414.571,319,o),
(328.286,373,c),
(257.,420,ls),
(188.429,465,o),
(167.143,505,o),
(174.,553,cs),
(181.143,603,o),
(233.429,647,o),
(308.429,647,cs)
);
}
);
width = 520;
}
);
leftKerningGroup = S;
unicode = 83;
}
{
glyphname = T;
layers = (
{
anchors = (
{
name = m.uni0941_2;
position = "{293, 0}";
},
{
name = t.uni0946_1_3;
position = "{392, 702}";
},
{
name = t.uni0335_2;
position = "{354, 356}";
}
);
layerId = "5719F410-C0E5-43AE-88FA-B4FFDEE24CB8";
shapes = (
{
closed = 1;
nodes = (
(466.571,627,l),
(298.571,627,l),
(209,0,l),
(377,0,l)
);
},
{
closed = 1;
nodes = (
(708.,700,l),
(79.,700,l),
(58.,553,l),
(687.,553,l)
);
}
);
width = 671;
},
{
anchors = (
{
name = m.uni0941_2;
position = "{293, 0}";
},
{
name = t.uni0946_1_3;
position = "{392, 702}";
},
{
name = t.uni0335_2;
position = "{354, 356}";
}
);
layerId = "749AE4FF-5243-4D3F-AC67-AE9DCC0EE297";
shapes = (
{
closed = 1;
nodes = (
(424.143,659,l),
(319.143,659,l),
(225,0,l),
(330,0,l)
);
},
{
closed = 1;
nodes = (
(676.,700,l),
(79.,700,l),
(66.,609,l),
(663.,609,l)
);
}
);
width = 639;
},
{
anchors = (
{
name = m.uni0941_2;
position = "{293, 0}";
},
{
name = t.uni0946_1_3;
position = "{392, 702}";
},
{
name = t.uni0335_2;
position = "{354, 356}";
}
);
layerId = "9DBD663E-71C9-4E39-B4BC-5CF5923FD470";
shapes = (
{
closed = 1;
nodes = (
(402.429,675,l),
(329.429,675,l),
(233,0,l),
(306,0,l)
);
},
{
closed = 1;
nodes = (
(660.,700,l),
(79.,700,l),
(70.,637,l),
(651.,637,l)
);
}
);
width = 623;
}
);
leftKerningGroup = T;
rightKerningGroup = T2;
unicode = 84;
}
{
glyphname = U;
layers = (
{
anchors = (
{
name = mark0;
position = "{348, -10}";
},
{
name = mark1;
position = "{349, 670}";
},
{
name = mark0.1;
position = "{441, 0}";
},
{
name = mark0.2;
position = "{614, 668}";
}
);
layerId = "6377F2BA-02BD-49C5-9B81-A1BD44C27745";
shapes = (
{
closed = 1;
nodes = (
(748,307,ls),
(739,240,o),
(717,183,o),
(683,136,cs),
(648,88,o),
(604,52,o),
(551,27,cs),
(497,2,o),
(436,-10,o),
(369,-10,cs),
(301,-10,o),
(244,2,o),
(198,27,cs),
(151,52,o),
(117,88,o),
(96,136,cs),
(75,183,o),
(69,240,o),
(78,307,cs),
(133,699,l),
(301,699,l),
(246,308,ls),
(241,274,o),
(244,244,o),
(254,218,cs),
(259,205,o),
(266,194,o),
(275,183,cs),
(302,152,o),
(340,136,o),
(389,136,cs),
(440,136,o),
(482,152,o),
(517,183,cs),
(552,214,o),
(573,255,o),
(580,308,cs),
(635,699,l),
(803,699,l)
);
}
);
width = 821;
},
{
anchors = (
{
name = mark0;
position = "{348, -10}";
},
{
name = mark1;
position = "{349, 670}";
},
{
name = mark0.1;
position = "{441, 0}";
},
{
name = mark0.2;
position = "{614, 668}";
}
);
layerId = "4D5D236C-3626-44C9-B9AA-2206EC1912DB";
shapes = (
{
closed = 1;
nodes = (
(729,291,ls),
(720,228,o),
(699,174,o),
(666,129,cs),
(634,84,o),
(592,49,o),
(541,26,cs),
(490,2,o),
(432,-10,o),
(368,-10,cs),
(303,-10,o),
(249,2,o),
(205,26,c),
(160,49,o),
(128,83,o),
(108,128,cs),
(88,172,o),
(82,227,o),
(91,291,cs),
(148,699,l),
(252,699,l),
(195,292,ls),
(190,257,o),
(191,226,o),
(199,199,cs),
(205,177,o),
(215,157,o),
(231,139,cs),
(263,100,o),
(313,81,o),
(380,81,cs),
(447,81,o),
(503,100,o),
(546,139,cs),
(589,177,o),
(616,228,o),
(624,292,c),
(682,699,l),
(786,699,l)
);
}
);
width = 817;
},
{
anchors = (
{
name = mark0;
position = "{348, -10}";
},
{
name = mark1;
position = "{349, 670}";
},
{
name = mark0.1;
position = "{441, 0}";
},
{
name = mark0.2;
position = "{614, 668}";
}
);
layerId = "09BE0123-C991-42EB-87B9-55839D2F6983";
shapes = (
{
closed = 1;
nodes = (
(719,283,ls),
(710,222,o),
(690,169,o),
(658,126,cs),
(627,82,o),
(586,48,o),
(536,25,cs),
(486,2,o),
(430,-10,o),
(367,-10,cs),
(304,-10,o),
(251,2,o),
(208,25,cs),
(165,48,o),
(133,81,o),
(114,124,cs),
(94,167,o),
(88,220,o),
(97,283,cs),
(156,699,l),
(228,699,l),
(169,284,ls),
(164,249,o),
(165,217,o),
(172,190,cs),
(178,163,o),
(190,138,o),
(209,117,c),
(244,74,o),
(300,53,o),
(376,53,cs),
(451,53,o),
(513,74,o),
(560,117,cs),
(608,159,o),
(637,215,o),
(646,284,cs),
(705,699,l),
(778,699,l)
);
}
);
width = 815;
}
);
leftKerningGroup = _U;
rightKerningGroup = _U;
unicode = 85;
}
{
glyphname = V;
layers = (
{
layerId = "6377F2BA-02BD-49C5-9B81-A1BD44C27745";
shapes = (
{
closed = 1;
nodes = (
(314,-10,l),
(68,700,l),
(268,700,l),
(394,262,l),
(645,700,l),
(844,700,l),
(398,-10,l)
);
}
);
width = 796;
},
{
layerId = "4D5D236C-3626-44C9-B9AA-2206EC1912DB";
shapes = (
{
closed = 1;
nodes = (
(322,-10,l),
(76,700,l),
(196,700,l),
(373,159,l),
(700,700,l),
(820,700,l),
(375,-10,l)
);
}
);
width = 780;
},
{
layerId = "09BE0123-C991-42EB-87B9-55839D2F6983";
shapes = (
{
closed = 1;
nodes = (
(326,-10,l),
(80,700,l),
(160,700,l),
(362,108,l),
(728,700,l),
(808,700,l),
(363,-10,l)
);
}
);
width = 772;
}
);
leftKerningGroup = _V;
rightKerningGroup = _V;
unicode = 86;
}
{
glyphname = W;
layers = (
{
anchors = (
{
name = m.uni0941_2;
position = "{592, 0}";
},
{
name = t.uni0946_1_3;
position = "{693, 700}";
}
);
layerId = "5719F410-C0E5-43AE-88FA-B4FFDEE24CB8";
shapes = (
{
closed = 1;
nodes = (
(1315.,700,l),
(1116.,700,l),
(876.857,272,l),
(781.,700,l),
(603.,700,l),
(384.857,272,l),
(268.,700,l),
(68.,700,l),
(302.571,-10,l),
(386.571,-10,l),
(665.,511,l),
(794.571,-10,l),
(878.571,-10,l)
);
}
);
width = 1268;
},
{
anchors = (
{
name = m.uni0941_2;
position = "{592, 0}";
},
{
name = t.uni0946_1_3;
position = "{693, 700}";
}
);
layerId = "749AE4FF-5243-4D3F-AC67-AE9DCC0EE297";
shapes = (
{
closed = 1;
nodes = (
(1292.,700,l),
(1172.,700,l),
(862.143,169,l),
(742.,700,l),
(626.,700,l),
(354.143,169,l),
(196.,700,l),
(76.,700,l),
(302.571,-10,l),
(354.571,-10,l),
(667.,574,l),
(810.571,-10,l),
(862.571,-10,l)
);
}
);
width = 1252;
},
{
anchors = (
{
name = m.uni0941_2;
position = "{592, 0}";
},
{
name = t.uni0946_1_3;
position = "{693, 700}";
}
);
layerId = "9DBD663E-71C9-4E39-B4BC-5CF5923FD470";
shapes = (
{
closed = 1;
nodes = (
(1280.,700,l),
(1200.,700,l),
(854.857,118,l),
(722.,700,l),
(638.,700,l),
(338.857,118,l),
(160.,700,l),
(80.,700,l),
(302.571,-10,l),
(338.571,-10,l),
(667.571,606,l),
(818.571,-10,l),
(854.571,-10,l)
);
}
);
width = 1244;
}
);
leftKerningGroup = V;
rightKerningGroup = V2;
unicode = 87;
}
{
glyphname = X;
layers = (
{
layerId = "F0E59F11-1D58-42A6-80E9-36273FBB34FC";
shapes = (
{
closed = 1;
nodes = (
(746,0,l),
(536,0,l),
(394,259,l),
(180,0,l),
(-30,0,l),
(305,371,l),
(89,700,l),
(299,700,l),
(426,483,l),
(613,700,l),
(823,700,l),
(515,371,l)
);
}
);
width = 796;
},
{
layerId = "3B93B69D-E33D-48F3-A278-6EAB673A7F94";
shapes = (
{
closed = 1;
nodes = (
(675,0,l),
(544,0,l),
(369,306,l),
(109,0,l),
(-22,0,l),
(305,371,l),
(97,700,l),
(228,700,l),
(387,436,l),
(621,700,l),
(752,700,l),
(452,371,l)
);
}
);
width = 733;
},
{
layerId = "0D25A9BA-90DE-440E-BC4F-74EEDE6C6E67";
shapes = (
{
closed = 1;
nodes = (
(639,0,l),
(548,0,l),
(356,330,l),
(73,0,l),
(-18,0,l),
(305,371,l),
(101,700,l),
(192,700,l),
(368,412,l),
(625,700,l),
(716,700,l),
(420,371,l)
);
}
);
width = 702;
}
);
unicode = 88;
}
{
glyphname = Y;
layers = (
{
anchors = (
{
name = mark0;
position = "{-40, 0}";
},
{
name = mark1;
position = "{251, 670}";
}
);
layerId = "5F1069EF-7233-42B2-A641-1D5303479095";
shapes = (
{
closed = 1;
nodes = (
(428,350,l),
(379,0,l),
(211,0,l),
(260,350,l),
(68,700,l),
(278,700,l),
(364,494,l),
(509,700,l),
(718,700,l)
);
}
);
width = 671;
},
{
anchors = (
{
name = mark0;
position = "{-40, 0}";
},
{
name = mark1;
position = "{251, 670}";
}
);
layerId = "8E1BB1C9-5399-4481-B652-0152E5DB95F4";
shapes = (
{
closed = 1;
nodes = (
(373,350,l),
(324,0,l),
(219,0,l),
(268,350,l),
(76,700,l),
(207,700,l),
(334,447,l),
(532,700,l),
(663,700,l)
);
}
);
width = 624;
},
{
anchors = (
{
name = mark0;
position = "{-40, 0}";
},
{
name = mark1;
position = "{251, 670}";
}
);
layerId = "DD0681D4-613B-4E2A-9B2E-3AB0BAB5AD9A";
shapes = (
{
closed = 1;
nodes = (
(345,350,l),
(296,0,l),
(223,0,l),
(272,350,l),
(80,700,l),
(171,700,l),
(319,423,l),
(544,700,l),
(635,700,l)
);
}
);
width = 600;
}
);
leftKerningGroup = _Y;
rightKerningGroup = _Y;
unicode = 89;
}
{
glyphname = Z;
layers = (
{
anchors = (
{
name = mark0;
position = "{293, 0}";
},
{
name = mark1;
position = "{273, 668}";
}
);
layerId = "6377F2BA-02BD-49C5-9B81-A1BD44C27745";
shapes = (
{
closed = 1;
nodes = (
(251,147,l),
(673,147,l),
(652,0,l),
(-19,0,l),
(464,592,l),
(480,553,l),
(90,553,l),
(110,700,l),
(750,700,l),
(266,108,l)
);
}
);
width = 713;
},
{
anchors = (
{
name = mark0;
position = "{293, 0}";
},
{
name = mark1;
position = "{273, 668}";
}
);
layerId = "4D5D236C-3626-44C9-B9AA-2206EC1912DB";
shapes = (
{
closed = 1;
nodes = (
(148,91,l),
(625,91,l),
(612,0,l),
(-3,0,l),
(545,647,l),
(560,609,l),
(106,609,l),
(118,700,l),
(710,700,l),
(163,53,l)
);
}
);
width = 689;
},
{
anchors = (
{
name = mark0;
position = "{293, 0}";
},
{
name = mark1;
position = "{273, 668}";
}
);
layerId = "09BE0123-C991-42EB-87B9-55839D2F6983";
shapes = (
{
closed = 1;
nodes = (
(97,63,l),
(601,63,l),
(592,0,l),
(5,0,l),
(585,675,l),
(600,637,l),
(114,637,l),
(122,700,l),
(690,700,l),
(112,25,l)
);
}
);
width = 677;
}
);
leftKerningGroup = _Z;
unicode = 90;
}
{
glyphname = bracketright;
layers = (
{
layerId = "F0E59F11-1D58-42A6-80E9-36273FBB34FC";
shapes = (
{
closed = 1;
nodes = (
(-1,-168,l),
(14,-63,l),
(163,-63,l),
(276,743,l),
(127,743,l),
(142,848,l),
(414,848,l),
(271,-168,l)
);
}
);
width = 398;
},
{
layerId = "3B93B69D-E33D-48F3-A278-6EAB673A7F94";
shapes = (
{
closed = 1;
nodes = (
(-1,-168,l),
(9,-95,l),
(166,-95,l),
(288,775,l),
(132,775,l),
(142,848,l),
(382,848,l),
(239,-168,l)
);
}
);
width = 366;
},
{
layerId = "0D25A9BA-90DE-440E-BC4F-74EEDE6C6E67";
shapes = (
{
closed = 1;
nodes = (
(-1,-168,l),
(7,-111,l),
(167,-111,l),
(294,791,l),
(134,791,l),
(142,848,l),
(366,848,l),
(223,-168,l)
);
}
);
width = 350;
}
);
unicode = 93;
}
{
glyphname = asciicircum;
layers = (
{
layerId = "452014E6-FE56-49E1-9353-01B400A3FB86";
shapes = (
{
closed = 1;
nodes = (
(393,744,l),
(492,493,l),
(377,493,l),
(325,629,l),
(228,493,l),
(113,493,l),
(288,744,l)
);
}
);
width = 547;
},
{
layerId = "75D2F12C-E99F-40C8-813D-9BB93C453F0E";
shapes = (
{
closed = 1;
nodes = (
(361,744,l),
(460,493,l),
(369,493,l),
(311,640,l),
(205,493,l),
(113,493,l),
(288,744,l)
);
}
);
width = 515;
},
{
layerId = "2029F050-97EB-4300-B314-0D9E32070F1C";
shapes = (
{
closed = 1;
nodes = (
(345,744,l),
(444,493,l),
(365,493,l),
(304,646,l),
(193,493,l),
(113,493,l),
(288,744,l)
);
}
);
width = 499;
}
);
unicode = 94;
}
{
glyphname = underscore;
layers = (
{
layerId = "5F1069EF-7233-42B2-A641-1D5303479095";
shapes = (
{
closed = 1;
nodes = (
(532,-105,l),
(520,-189,l),
(-57,-189,l),
(-45,-105,l)
);
}
);
width = 597;
},
{
layerId = "8E1BB1C9-5399-4481-B652-0152E5DB95F4";
shapes = (
{
closed = 1;
nodes = (
(529,-121,l),
(520,-189,l),
(-57,-189,l),
(-48,-121,l)
);
}
);
width = 597;
},
{
layerId = "DD0681D4-613B-4E2A-9B2E-3AB0BAB5AD9A";
shapes = (
{
closed = 1;
nodes = (
(528,-129,l),
(520,-189,l),
(-57,-189,l),
(-49,-129,l)
);
}
);
width = 597;
}
);
unicode = 95;
}
{
glyphname = a;
layers = (
{
anchors = (
{
name = m.uni0941_2;
position = "{273, 0}";
},
{
name = t.uni0946_1_3;
position = "{286, 511}";
},
{
name = m.uni0328_2;
position = "{508, -2}";
}
);
layerId = "AE25C586-C738-4B48-9E5B-2AB1177ED30E";
name = "#instance";
shapes = (
{
closed = 1;
nodes = (
(457,-11,o),
(496,0,o),
(518,11,c),
(518,79,l),
(503,73,o),
(488,70,o),
(474,70,cs),
(454,70,o),
(447,78,o),
(447,102,cs),
(447,321,ls),
(447,445,o),
(381,510,o),
(259,510,cs),
(224,510,o),
(189,505,o),
(154,494,cs),
(120,484,o),
(92,472,o),
(71,457,c),
(71,364,l),
(99,381,o),
(129,396,o),
(162,407,cs),
(194,418,o),
(224,424,o),
(254,424,cs),
(319,424,o),
(349,391,o),
(349,311,cs),
(349,82,ls),
(349,20,o),
(373,-11,o),
(426,-11,cs)
);
},
{
closed = 1;
nodes = (
(228,-11,o),
(270,1,o),
(310,24,cs),
(351,47,o),
(383,75,o),
(408,108,c),
(408,173,l),
(356,110,o),
(282,70,o),
(216,70,cs),
(175,70,o),
(149,90,o),
(149,125,cs),
(149,166,o),
(180,194,o),
(253,219,cs),
(308,238,o),
(360,250,o),
(408,254,c),
(408,311,l),
(370,309,o),
(301,299,o),
(234,280,cs),
(108,246,o),
(50,195,o),
(50,113,cs),
(50,38,o),
(105,-11,o),
(184,-11,cs)
);
}
);
width = 537;
},
{
anchors = (
{
name = m.uni0941_2;
position = "{231, 0}";
},
{
name = t.uni0946_1_3;
position = "{317, 511}";
},
{
name = m.uni0328_2;
position = "{466, -2}";
}
);
layerId = "5719F410-C0E5-43AE-88FA-B4FFDEE24CB8";
shapes = (
{
closed = 1;
nodes = (
(432.429,-11,o),
(478.857,-1,o),
(509.571,11,c),
(523.857,111,l),
(512.429,108,o),
(500.143,106,o),
(488.143,106,cs),
(468.143,106,o),
(461.714,117,o),
(465.,140,cs),
(490.857,321,ls),
(507.571,438,o),
(436.857,510,o),
(305.857,510,cs),
(262.857,510,o),
(223.143,505,o),
(186.714,495,cs),
(150.429,486,o),
(116.571,473,o),
(87.286,457,c),
(67.714,320,l),
(95.714,334,o),
(129.571,347,o),
(167.143,358,c),
(204.429,367,o),
(236.286,373,o),
(265.286,373,cs),
(317.286,373,o),
(336.286,352,o),
(330.429,311,cs),
(301.143,106,ls),
(289.571,25,o),
(318.429,-11,o),
(390.429,-11,cs)
);
},
{
closed = 1;
nodes = (
(181.429,-11,o),
(224,0,o),
(262.,21,cs),
(300.,42,o),
(333.857,69,o),
(364.429,101,c),
(376.429,185,l),
(322.,133,o),
(268.143,106,o),
(222.143,106,cs),
(193.143,106,o),
(176.571,123,o),
(180.286,149,cs),
(184.,175,o),
(209.143,197,o),
(249.429,213,cs),
(287.571,228,o),
(332.857,237,o),
(384.571,242,c),
(394.143,309,l),
(357.,308,o),
(303.143,302,o),
(235.857,286,cs),
(105.714,257,o),
(28.143,197,o),
(16.714,117,cs),
(5.857,41,o),
(54.429,-11,o),
(136.429,-11,cs)
);
}
);
width = 561;
},
{
anchors = (
{
name = m.uni0941_2;
position = "{231, 0}";
},
{
name = t.uni0946_1_3;
position = "{317, 511}";
},
{
name = m.uni0328_2;
position = "{466, -2}";
}
);
layerId = "749AE4FF-5243-4D3F-AC67-AE9DCC0EE297";
shapes = (
{
closed = 1;
nodes = (
(413.429,-11,o),
(454,0,o),
(477.571,11,c),
(487.286,79,l),
(471.429,73,o),
(456.,70,o),
(442.,70,cs),
(422.,70,o),
(416.143,78,o),
(419.571,102,cs),
(450.857,321,ls),
(468.571,445,o),
(411.857,510,o),
(289.857,510,cs),
(254.857,510,o),
(219.143,505,o),
(182.571,494,cs),
(147.143,484,o),
(117.429,472,o),
(94.286,457,c),
(81.,364,l),
(111.429,381,o),
(143.571,396,o),
(178.143,407,cs),
(211.714,418,o),
(242.571,424,o),
(272.571,424,cs),
(337.571,424,o),
(362.857,391,o),
(351.429,311,cs),
(318.714,82,ls),
(309.857,20,o),
(329.429,-11,o),
(382.429,-11,cs)
);
},
{
closed = 1;
nodes = (
(184.429,-11,o),
(228.143,1,o),
(271.429,24,cs),
(315.714,47,o),
(351.714,75,o),
(381.429,108,c),
(390.714,173,l),
(329.714,110,o),
(250.,70,o),
(184.,70,cs),
(143.,70,o),
(119.857,90,o),
(124.857,125,cs),
(130.714,166,o),
(165.714,194,o),
(242.286,219,cs),
(300.,238,o),
(353.714,250,o),
(402.286,254,c),
(410.429,311,l),
(372.143,309,o),
(301.714,299,o),
(232.,280,cs),
(101.143,246,o),
(35.857,195,o),
(24.143,113,cs),
(13.429,38,o),
(61.429,-11,o),
(140.429,-11,cs)
);
}
);
width = 537;
},
{
anchors = (
{
name = m.uni0941_2;
position = "{231, 0}";
},
{
name = t.uni0946_1_3;
position = "{317, 511}";
},
{
name = m.uni0328_2;
position = "{466, -2}";
}
);
layerId = "9DBD663E-71C9-4E39-B4BC-5CF5923FD470";
shapes = (
{
closed = 1;
nodes = (
(403.429,-11,o),
(442.143,1,o),
(461.571,11,c),
(469.,63,l),
(450.857,55,o),
(433.429,52,o),
(418.429,52,cs),
(398.429,52,o),
(393.429,59,o),
(396.857,83,cs),
(430.857,321,ls),
(449.,448,o),
(398.857,510,o),
(281.857,510,cs),
(250.857,510,o),
(217.143,505,o),
(180.571,494,cs),
(145.,483,o),
(117.286,471,o),
(98.286,457,c),
(88.143,386,l),
(119.714,404,o),
(150.143,421,o),
(183.714,432,c),
(215.429,444,o),
(246.286,450,o),
(276.286,450,cs),
(347.286,450,o),
(375.571,410,o),
(361.429,311,cs),
(327.,70,ls),
(319.571,18,o),
(334.429,-11,o),
(378.429,-11,cs)
);
},
{
closed = 1;
nodes = (
(186.429,-11,o),
(230.143,1,o),
(276.714,26,cs),
(323.143,50,o),
(360.143,78,o),
(390.,112,c),
(397.857,167,l),
(333.143,99,o),
(241.429,52,o),
(165.429,52,cs),
(117.429,52,o),
(91.429,73,o),
(97.143,113,cs),
(104.,161,o),
(143.429,192,o),
(238.714,222,cs),
(306.714,243,o),
(364.571,256,o),
(411.143,260,c),
(418.571,312,l),
(379.143,309,o),
(301.429,297,o),
(229.571,277,cs),
(98.429,241,o),
(39.714,194,o),
(27.857,111,cs),
(17.143,36,o),
(65.429,-11,o),
(142.429,-11,cs)
);
}
);
width = 525;
}
);
leftKerningGroup = a2;
rightKerningGroup = a;
unicode = 97;
}
{
glyphname = b;
layers = (
{
hints = (
{
horizontal = 1;
place = (-10,60);
type = Stem;
},
{
horizontal = 1;
place = (450,60);
type = Stem;
}
);
layerId = "B21811DC-AF90-4C9E-92F0-FA8919ABC9C4";
name = "#instance";
shapes = (
{
closed = 1;
nodes = (
(157,758,l),
(59,61,l),
(127,61,l),
(225,758,l)
);
},
{
closed = 1;
nodes = (
(56,42,l),
(115,10,o),
(170,-10,o),
(250,-10,cs),
(354,-10,o),
(444,34,o),
(499,114,cs),
(527,153,o),
(544,198,o),
(551,249,cs),
(566,353,o),
(536,434,o),
(471,478,c),
(438,499,o),
(399,510,o),
(353,510,cs),
(268,510,o),
(193,473,o),
(141,427,c),
(132,366,l),
(185,417,o),
(264,450,o),
(336,450,cs),
(389,450,o),
(427,432,o),
(454,396,c),
(480,359,o),
(490,310,o),
(481,249,cs),
(473,189,o),
(447,141,o),
(407,104,cs),
(367,68,o),
(316,50,o),
(257,50,cs),
(222,50,o),
(190,54,o),
(161,63,cs),
(131,72,o),
(100,85,o),
(64,102,c)
);
}
);
width = 625;
},
{
hints = (
{
horizontal = 1;
place = (-10,137);
type = Stem;
},
{
horizontal = 1;
place = (373,137);
type = Stem;
},
{
place = (71,158);
type = Stem;
},
{
place = (420,159);
type = Stem;
}
);
layerId = "7A4E2608-894C-42C3-A821-B6FEA079E459";
shapes = (
{
closed = 1;
nodes = (
(129,758,l),
(34,85,l),
(192,85,l),
(287,758,l)
);
},
{
closed = 1;
nodes = (
(28,42,l),
(81,10,o),
(153,-10,o),
(238,-10,cs),
(353,-10,o),
(450,34,o),
(509,114,c),
(540,153,o),
(558,198,o),
(565,249,cs),
(580,353,o),
(545,434,o),
(480,478,c),
(447,499,o),
(409,510,o),
(363,510,cs),
(277,510,o),
(205,465,o),
(161,392,c),
(151,317,l),
(193,352,o),
(246,373,o),
(300,373,cs),
(338,373,o),
(367,362,o),
(386,339,cs),
(404,316,o),
(411,286,o),
(406,249,cs),
(401,213,o),
(385,184,o),
(358,161,cs),
(330,138,o),
(295,127,o),
(255,127,cs),
(219,127,o),
(185,131,o),
(157,140,cs),
(128,148,o),
(92,161,o),
(47,180,c)
);
}
);
width = 614;
},
{
hints = (
{
horizontal = 1;
place = (-10,86);
type = Stem;
},
{
horizontal = 1;
place = (424,86);
type = Stem;
}
);
layerId = "2FEAAE27-63B5-41AA-B98F-0872FA373B5B";
shapes = (
{
closed = 1;
nodes = (
(148,758,l),
(51,69,l),
(149,69,l),
(246,758,l)
);
},
{
closed = 1;
nodes = (
(47,42,l),
(104,10,o),
(164,-10,o),
(246,-10,cs),
(354,-10,o),
(446,34,o),
(502,114,c),
(531,153,o),
(549,198,o),
(556,249,cs),
(571,353,o),
(539,434,o),
(474,478,c),
(441,499,o),
(402,510,o),
(356,510,cs),
(271,510,o),
(197,470,o),
(148,415,c),
(138,349,l),
(188,395,o),
(258,424,o),
(324,424,cs),
(372,424,o),
(407,408,o),
(431,377,cs),
(455,344,o),
(464,302,o),
(456,249,cs),
(449,197,o),
(426,156,o),
(391,123,c),
(355,92,o),
(309,76,o),
(256,76,cs),
(221,76,o),
(188,80,o),
(160,89,cs),
(130,98,o),
(97,111,o),
(58,128,c)
);
}
);
width = 621;
},
{
hints = (
{
horizontal = 1;
place = (-10,60);
type = Stem;
},
{
horizontal = 1;
place = (450,60);
type = Stem;
},
{
place = (99,68);
type = Stem;
},
{
place = (495,70);
type = Stem;
}
);
layerId = "BBA9C4CC-16BF-4D96-9809-7FD759381829";
shapes = (
{
closed = 1;
nodes = (
(157,758,l),
(59,61,l),
(127,61,l),
(225,758,l)
);
},
{
closed = 1;
nodes = (
(56,42,l),
(115,10,o),
(170,-10,o),
(250,-10,cs),
(354,-10,o),
(444,34,o),
(499,114,cs),
(527,153,o),
(544,198,o),
(551,249,cs),
(566,353,o),
(536,434,o),
(471,478,c),
(438,499,o),
(399,510,o),
(353,510,cs),
(268,510,o),
(193,473,o),
(141,427,c),
(132,366,l),
(185,417,o),
(264,450,o),
(336,450,cs),
(389,450,o),
(427,432,o),
(454,396,cs),
(480,359,o),
(490,310,o),
(481,249,cs),
(473,189,o),
(447,141,o),
(407,104,cs),
(367,68,o),
(316,50,o),
(257,50,cs),
(222,50,o),
(190,54,o),
(161,63,cs),
(131,72,o),
(100,85,o),
(64,102,c)
);
}
);
width = 625;
}
);
rightKerningGroup = b;
unicode = 98;
}
{
glyphname = c;
layers = (
{
anchors = (
{
name = m.uni0941_2;
position = "{315, -2}";
},
{
name = t.uni0946_1_3;
position = "{315, 509}";
}
);
layerId = "AE25C586-C738-4B48-9E5B-2AB1177ED30E";
name = "#instance";
shapes = (
{
closed = 1;
nodes = (
(509,144,l),
(466,101,o),
(400,75,o),
(328,75,cs),
(274,75,o),
(230,90,o),
(196,122,cs),
(163,154,o),
(146,197,o),
(146,250,cs),
(146,303,o),
(163,345,o),
(196,378,c),
(230,408,o),
(274,424,o),
(328,424,cs),
(398,424,o),
(459,400,o),
(503,358,c),
(503,452,l),
(461,487,o),
(396,510,o),
(320,510,cs),
(213,510,o),
(128,466,o),
(83,386,cs),
(60,347,o),
(48,302,o),
(48,250,cs),
(48,147,o),
(96,65,o),
(178,22,cs),
(219,0,o),
(268,-11,o),
(320,-11,cs),
(398,-11,o),
(471,14,o),
(509,50,c)
);
}
);
width = 553;
},
{
anchors = (
{
name = m.uni0941_2;
position = "{273, -2}";
},
{
name = t.uni0946_1_3;
position = "{346, 509}";
}
);
layerId = "5719F410-C0E5-43AE-88FA-B4FFDEE24CB8";
shapes = (
{
closed = 1;
nodes = (
(459.714,180,l),
(417.857,146,o),
(368.143,127,o),
(304.143,127,cs),
(263.143,127,o),
(230.857,139,o),
(210.,161,c),
(187.143,183,o),
(179.429,213,o),
(184.714,250,cs),
(190.,287,o),
(206.143,316,o),
(235.429,339,cs),
(262.571,361,o),
(298.286,373,o),
(339.286,373,cs),
(402.286,373,o),
(441.,357,o),
(476.143,330,c),
(495.857,468,l),
(466.,490,o),
(411.857,510,o),
(326.857,510,cs),
(226.857,510,o),
(136.429,465,o),
(80.143,386,c),
(50.571,347,o),
(33.143,302,o),
(25.714,250,cs),
(11.,147,o),
(47.429,66,o),
(122.143,22,cs),
(159,0,o),
(203.429,-11,o),
(252.429,-11,cs),
(338.429,-11,o),
(405.857,13,o),
(440.,42,c)
);
}
);
width = 529;
},
{
anchors = (
{
name = m.uni0941_2;
position = "{273, -2}";
},
{
name = t.uni0946_1_3;
position = "{346, 509}";
}
);
layerId = "749AE4FF-5243-4D3F-AC67-AE9DCC0EE297";
shapes = (
{
closed = 1;
nodes = (
(487.571,144,l),
(438.429,101,o),
(368.714,75,o),
(296.714,75,cs),
(242.714,75,o),
(200.857,90,o),
(171.429,122,cs),
(143.,154,o),
(132.143,197,o),
(139.714,250,cs),
(147.286,303,o),
(170.286,345,o),
(208.,378,c),
(246.286,408,o),
(292.571,424,o),
(346.571,424,cs),
(416.571,424,o),
(474.143,400,o),
(512.143,358,c),
(525.571,452,l),
(488.571,487,o),
(426.857,510,o),
(350.857,510,cs),
(243.857,510,o),
(152.571,466,o),
(96.143,386,cs),
(67.571,347,o),
(49.143,302,o),
(41.714,250,cs),
(27.,147,o),
(63.286,65,o),
(139.143,22,cs),
(177,0,o),
(224.429,-11,o),
(276.429,-11,cs),
(354.429,-11,o),
(431.,14,o),
(474.143,50,c)
);
}
);
width = 553;
},
{
anchors = (
{
name = m.uni0941_2;
position = "{273, -2}";
},
{
name = t.uni0946_1_3;
position = "{346, 509}";
}
);
layerId = "9DBD663E-71C9-4E39-B4BC-5CF5923FD470";
shapes = (
{
closed = 1;
nodes = (
(501.,126,l),
(449.286,79,o),
(369.,49,o),
(293.,49,cs),
(233.,49,o),
(185.429,66,o),
(152.714,103,cs),
(121.,140,o),
(109.,189,o),
(117.714,250,cs),
(126.429,311,o),
(152.429,360,o),
(194.714,397,c),
(237.714,432,o),
(290.286,450,o),
(350.286,450,cs),
(424.286,450,o),
(491.143,421,o),
(530.143,372,c),
(540.429,444,l),
(499.286,485,o),
(434.857,510,o),
(362.857,510,cs),
(252.857,510,o),
(160.571,466,o),
(104.143,386,cs),
(75.571,347,o),
(57.143,302,o),
(49.714,250,cs),
(35.,147,o),
(71.286,65,o),
(148.143,22,cs),
(186,0,o),
(234.429,-11,o),
(288.429,-11,cs),
(362.429,-11,o),
(443.143,15,o),
(490.714,54,c)
);
}
);
width = 565;
}
);
leftKerningGroup = c2;
rightKerningGroup = c;
unicode = 99;
}
{
glyphname = d;
layers = (
{
anchors = (
{
name = m.uni0941_2;
position = "{273, 0}";
},
{
name = t.uni0946_1_3;
position = "{212, 532}";
},
{
name = t.uni0335_2;
position = "{522, 628}";
},
{
name = t.uni031B_3;
position = "{771, 800}";
}
);
layerId = "AE25C586-C738-4B48-9E5B-2AB1177ED30E";
name = "#instance";
shapes = (
{
closed = 1;
nodes = (
(288.429,-11,o),
(340.714,26,o),
(372.,70,cs),
(388.143,92,o),
(401.286,114,o),
(411.714,138,c),
(422.286,212,l),
(388.286,156,o),
(344.143,127,o),
(294.143,127,cs),
(255.143,127,o),
(226.857,139,o),
(206.,161,cs),
(186.143,183,o),
(179.429,213,o),
(184.714,250,cs),
(190.,287,o),
(206.143,316,o),
(234.429,339,cs),
(261.571,361,o),
(295.286,373,o),
(334.286,373,cs),
(393.286,373,o),
(431.143,358,o),
(459.857,328,c),
(478.714,460,l),
(449.143,491,o),
(395.857,510,o),
(310.857,510,cs),
(218.857,510,o),
(132.429,465,o),
(78.,385,c),
(49.429,346,o),
(33.,301,o),
(25.714,250,cs),
(11.143,148,o),
(44.429,66,o),
(110.143,22,cs),
(142,0,o),
(179.429,-11,o),
(221.429,-11,cs)
);
},
{
closed = 1;
nodes = (
(458.286,758,l),
(350,0,l),
(508,0,l),
(616.286,758,l)
);
}
);
width = 614;
},
{
anchors = (
{
name = m.uni0941_2;
position = "{273, 0}";
},
{
name = t.uni0946_1_3;
position = "{212, 532}";
},
{
name = t.uni0335_2;
position = "{522, 628}";
},
{
name = t.uni031B_3;
position = "{771, 800}";
}
);
layerId = "5719F410-C0E5-43AE-88FA-B4FFDEE24CB8";
shapes = (
{
closed = 1;
nodes = (
(288.429,-11,o),
(340.714,26,o),
(372.,70,cs),
(388.143,92,o),
(401.286,114,o),
(411.714,138,c),
(422.286,212,l),
(388.286,156,o),
(344.143,127,o),
(294.143,127,cs),
(255.143,127,o),
(226.857,139,o),
(206.,161,cs),
(186.143,183,o),
(179.429,213,o),
(184.714,250,cs),
(190.,287,o),
(206.143,316,o),
(234.429,339,cs),
(261.571,361,o),
(295.286,373,o),
(334.286,373,cs),
(393.286,373,o),
(431.143,358,o),
(459.857,328,c),
(478.714,460,l),
(449.143,491,o),
(395.857,510,o),
(310.857,510,cs),
(218.857,510,o),
(132.429,465,o),
(78.,385,c),
(49.429,346,o),
(33.,301,o),
(25.714,250,cs),
(11.143,148,o),
(44.429,66,o),
(110.143,22,cs),
(142,0,o),
(179.429,-11,o),
(221.429,-11,cs)
);
},
{
closed = 1;
nodes = (
(458.286,758,l),
(350,0,l),
(508,0,l),
(616.286,758,l)
);
}
);
width = 614;
},
{
anchors = (
{
name = m.uni0941_2;
position = "{273, 0}";
},
{
name = t.uni0946_1_3;
position = "{212, 532}";
},
{
name = t.uni0335_2;
position = "{522, 628}";
},
{
name = t.uni031B_3;
position = "{771, 800}";
}
);
layerId = "749AE4FF-5243-4D3F-AC67-AE9DCC0EE297";
shapes = (
{
closed = 1;
nodes = (
(313.429,-11,o),
(380.,21,o),
(422.,63,c),
(443.857,83,o),
(458.,105,o),
(466.,126,c),
(474.286,184,l),
(419.857,111,o),
(354.714,75,o),
(278.714,75,cs),
(229.714,75,o),
(193.143,92,o),
(167.571,123,cs),
(141.143,155,o),
(132.143,197,o),
(139.714,250,cs),
(147.286,303,o),
(170.286,345,o),
(208.,378,c),
(245.286,408,o),
(291.571,424,o),
(345.571,424,cs),
(416.571,424,o),
(470.857,405,o),
(502.857,377,c),
(514.143,456,l),
(485.429,486,o),
(430.857,510,o),
(339.857,510,cs),
(237.857,510,o),
(148.571,466,o),
(94.143,386,cs),
(66.571,347,o),
(49.143,302,o),
(41.714,250,cs),
(27.,147,o),
(58.286,65,o),
(125.143,22,cs),
(159,0,o),
(198.429,-11,o),
(244.429,-11,cs)
);
},
{
closed = 1;
nodes = (
(509.286,758,l),
(401,0,l),
(501,0,l),
(609.286,758,l)
);
}
);
width = 621;
},
{
anchors = (
{
name = m.uni0941_2;
position = "{273, 0}";
},
{
name = t.uni0946_1_3;
position = "{212, 532}";
},
{
name = t.uni0335_2;
position = "{522, 628}";
},
{
name = t.uni031B_3;
position = "{771, 800}";
}
);
layerId = "9DBD663E-71C9-4E39-B4BC-5CF5923FD470";
shapes = (
{
closed = 1;
nodes = (
(325.429,-11,o),
(399.571,18,o),
(447.429,59,c),
(471.143,78,o),
(486.286,100,o),
(493.143,120,c),
(500.286,170,l),
(435.714,89,o),
(360.,49,o),
(271.,49,cs),
(217.,49,o),
(175.714,68,o),
(147.857,104,cs),
(119.143,141,o),
(109.,189,o),
(117.714,250,cs),
(126.429,311,o),
(152.429,360,o),
(194.714,397,c),
(237.714,432,o),
(290.286,450,o),
(351.286,450,cs),
(428.286,450,o),
(491.286,429,o),
(524.286,401,c),
(531.857,454,l),
(504.,483,o),
(447.857,510,o),
(353.857,510,cs),
(246.857,510,o),
(156.571,466,o),
(102.143,386,cs),
(74.571,347,o),
(57.143,302,o),
(49.714,250,cs),
(35.,147,o),
(65.286,65,o),
(133.143,22,cs),
(167,0,o),
(208.429,-11,o),
(256.429,-11,cs)
);
},
{
closed = 1;
nodes = (
(535.286,758,l),
(427,0,l),
(497,0,l),
(605.286,758,l)
);
}
);
width = 625;
}
);
leftKerningGroup = c2;
unicode = 100;
}
{
glyphname = e;
layers = (
{
anchors = (
{
name = mark0;
position = "{260, 0}";
},
{
name = mark1;
position = "{251, 480}";
},
{
name = mark0.1;
position = "{348, 0}";
}
);
layerId = "6377F2BA-02BD-49C5-9B81-A1BD44C27745";
shapes = (
{
closed = 1;
nodes = (
(402,266,l),
(405,277,o),
(407,288,o),
(407,298,c),
(406,307,o),
(405,317,o),
(403,326,c),
(396,344,o),
(386,358,o),
(371,368,cs),
(356,378,o),
(337,383,o),
(316,383,cs),
(286,383,o),
(260,374,o),
(237,355,cs),
(214,336,o),
(199,311,o),
(191,282,c),
(189,271,o),
(188,260,o),
(186,249,c),
(186,249,l),
(184,230,o),
(185,212,o),
(189,197,cs),
(193,182,o),
(201,169,o),
(213,159,cs),
(236,138,o),
(270,127,o),
(317,127,cs),
(334,127,o),
(351,128,o),
(366,130,cs),
(381,131,o),
(395,134,o),
(409,138,cs),
(422,141,o),
(437,146,o),
(452,151,cs),
(467,156,o),
(484,162,o),
(503,169,c),
(485,42,l),
(460,27,o),
(430,14,o),
(394,4,cs),
(357,-6,o),
(318,-11,o),
(276,-11,cs),
(220,-11,o),
(172,0,o),
(131,22,cs),
(90,43,o),
(61,74,o),
(43,113,cs),
(25,152,o),
(20,198,o),
(27,250,cs),
(34,303,o),
(52,348,o),
(81,386,cs),
(110,426,o),
(146,457,o),
(190,478,cs),
(233,499,o),
(281,510,o),
(334,510,cs),
(359,510,o),
(381,507,o),
(402,502,cs),
(423,497,o),
(442,488,o),
(459,477,cs),
(492,455,o),
(515,429,o),
(530,398,cs),
(533,391,o),
(536,384,o),
(538,377,cs),
(546,356,o),
(550,334,o),
(551,310,cs),
(552,279,o),
(548,248,o),
(540,218,c),
(134,218,l),
(146,297,l),
(441,297,l)
);
}
);
width = 583;
},
{
anchors = (
{
name = mark0;
position = "{260, 0}";
},
{
name = mark1;
position = "{251, 480}";
},
{
name = mark0.1;
position = "{348, 0}";
}
);
layerId = "4D5D236C-3626-44C9-B9AA-2206EC1912DB";
shapes = (
{
closed = 1;
nodes = (
(451,254,l),
(454,268,o),
(455,283,o),
(455,295,c),
(455,312,o),
(452,329,o),
(448,343,cs),
(439,370,o),
(425,391,o),
(403,405,cs),
(381,420,o),
(356,427,o),
(326,427,cs),
(282,427,o),
(243,413,o),
(211,386,cs),
(186,365,o),
(168,340,o),
(156,309,cs),
(151,294,o),
(147,279,o),
(144,263,cs),
(141,249,l),
(138,222,o),
(140,198,o),
(145,177,cs),
(150,155,o),
(160,137,o),
(174,122,cs),
(204,91,o),
(247,75,o),
(302,75,cs),
(322,75,o),
(342,77,o),
(362,81,cs),
(376,83,o),
(391,87,o),
(405,92,cs),
(419,97,o),
(432,103,o),
(446,108,c),
(464,117,o),
(481,127,o),
(498,137,c),
(486,50,l),
(463,34,o),
(434,19,o),
(397,7,cs),
(358,-5,o),
(319,-11,o),
(276,-11,cs),
(223,-11,o),
(178,0,o),
(141,22,c),
(103,43,o),
(75,74,o),
(58,113,cs),
(40,152,o),
(36,198,o),
(43,250,cs),
(50,302,o),
(68,347,o),
(96,386,c),
(123,426,o),
(158,457,o),
(200,478,cs),
(242,499,o),
(288,510,o),
(338,510,cs),
(364,510,o),
(388,507,o),
(409,501,cs),
(430,495,o),
(449,485,o),
(464,473,cs),
(492,452,o),
(512,428,o),
(526,401,cs),
(530,394,o),
(532,387,o),
(535,380,c),
(541,360,o),
(545,337,o),
(547,311,cs),
(549,283,o),
(546,254,o),
(540,226,c),
(103,226,l),
(113,293,l),
(504,293,l)
);
}
);
width = 589;
},
{
anchors = (
{
name = mark0;
position = "{260, 0}";
},
{
name = mark1;
position = "{251, 480}";
},
{
name = mark0.1;
position = "{348, 0}";
}
);
layerId = "09BE0123-C991-42EB-87B9-55839D2F6983";
shapes = (
{
closed = 1;
nodes = (
(475,248,l),
(478,264,o),
(479,280,o),
(479,294,cs),
(479,315,o),
(476,335,o),
(470,352,c),
(461,383,o),
(444,407,o),
(419,424,cs),
(394,441,o),
(365,449,o),
(331,449,cs),
(280,449,o),
(235,433,o),
(198,402,cs),
(172,380,o),
(153,354,o),
(139,322,cs),
(132,306,o),
(127,289,o),
(123,270,cs),
(119,249,l),
(115,218,o),
(117,191,o),
(123,167,cs),
(129,142,o),
(139,121,o),
(155,103,cs),
(188,67,o),
(235,49,o),
(294,49,cs),
(316,49,o),
(338,51,o),
(360,56,cs),
(374,59,o),
(389,64,o),
(403,69,cs),
(417,75,o),
(430,81,o),
(443,87,cs),
(462,97,o),
(480,109,o),
(496,121,c),
(486,54,l),
(465,37,o),
(436,22,o),
(398,9,cs),
(359,-5,o),
(319,-11,o),
(276,-11,cs),
(224,-11,o),
(181,0,o),
(146,22,c),
(109,43,o),
(82,74,o),
(65,113,cs),
(48,152,o),
(44,198,o),
(51,250,cs),
(58,302,o),
(76,347,o),
(103,386,cs),
(130,426,o),
(164,457,o),
(205,478,cs),
(246,499,o),
(291,510,o),
(340,510,cs),
(367,510,o),
(391,507,o),
(412,500,cs),
(433,494,o),
(452,484,o),
(467,471,cs),
(492,450,o),
(511,427,o),
(524,402,cs),
(528,395,o),
(530,389,o),
(533,382,c),
(539,362,o),
(543,339,o),
(545,312,cs),
(547,285,o),
(545,257,o),
(540,230,c),
(88,230,l),
(97,291,l),
(536,291,l)
);
}
);
width = 592;
}
);
leftKerningGroup = _c;
rightKerningGroup = _e;
unicode = 101;
}
{
glyphname = f;
layers = (
{
layerId = "AE25C586-C738-4B48-9E5B-2AB1177ED30E";
name = "#instance";
shapes = (
{
closed = 1;
nodes = (
(113,0,l),
(213,0,l),
(213,585,ls),
(213,672,o),
(254,714,o),
(338,714,cs),
(372,714,o),
(409,705,o),
(431,693,c),
(431,779,l),
(411,789,o),
(371,800,o),
(326,800,cs),
(188,800,o),
(113,723,o),
(113,585,cs)
);
},
{
closed = 1;
nodes = (
(410,500,l),
(193,500,l),
(193,414,l),
(410,414,l)
);
},
{
closed = 1;
nodes = (
(29,414,l),
(130,414,l),
(130,500,l),
(29,500,l)
);
}
);
width = 442;
},
{
layerId = "5719F410-C0E5-43AE-88FA-B4FFDEE24CB8";
shapes = (
{
closed = 1;
nodes = (
(64,0,l),
(223,0,l),
(302.,553,ls),
(312.429,626,o),
(352.714,663,o),
(422.714,663,cs),
(455.714,663,o),
(482.429,654,o),
(504.571,641,c),
(524.286,779,l),
(505.714,789,o),
(467.286,800,o),
(421.286,800,cs),
(265.286,800,o),
(165.714,712,o),
(143.,553,cs)
);
},
{
closed = 1;
nodes = (
(463.429,500,l),
(277.429,500,l),
(257.714,362,l),
(443.714,362,l)
);
},
{
closed = 1;
nodes = (
(30.714,362,l),
(132.714,362,l),
(152.429,500,l),
(50.429,500,l)
);
}
);
width = 466;
},
{
layerId = "749AE4FF-5243-4D3F-AC67-AE9DCC0EE297";
shapes = (
{
closed = 1;
nodes = (
(71,0,l),
(171,0,l),
(254.571,585,ls),
(267.,672,o),
(314.,714,o),
(398.,714,cs),
(432.,714,o),
(467.714,705,o),
(488.,693,c),
(500.286,779,l),
(481.714,789,o),
(443.286,800,o),
(398.286,800,cs),
(260.286,800,o),
(174.286,723,o),
(154.571,585,cs)
);
},
{
closed = 1;
nodes = (
(439.429,500,l),
(222.429,500,l),
(210.143,414,l),
(427.143,414,l)
);
},
{
closed = 1;
nodes = (
(46.143,414,l),
(147.143,414,l),
(159.429,500,l),
(58.429,500,l)
);
}
);
width = 442;
},
{
layerId = "9DBD663E-71C9-4E39-B4BC-5CF5923FD470";
shapes = (
{
closed = 1;
nodes = (
(75,0,l),
(145,0,l),
(230.857,601,ls),
(244.286,695,o),
(294.714,740,o),
(385.714,740,cs),
(419.714,740,o),
(460.429,731,o),
(479.714,719,c),
(488.286,779,l),
(469.714,789,o),
(431.286,800,o),
(386.286,800,cs),
(258.286,800,o),
(179.143,729,o),
(160.857,601,cs)
);
},
{
closed = 1;
nodes = (
(427.429,500,l),
(194.429,500,l),
(185.857,440,l),
(418.857,440,l)
);
},
{
closed = 1;
nodes = (
(53.857,440,l),
(153.857,440,l),
(162.429,500,l),
(62.429,500,l)
);
}
);
width = 430;
}
);
leftKerningGroup = f2;
rightKerningGroup = f;
unicode = 102;
}
{
glyphname = g;
layers = (
{
anchors = (
{
name = m.uni0941_2;
position = "{195, -257}";
},
{
name = t.uni0946_1_3;
position = "{313, 500}";
}
);
layerId = "5719F410-C0E5-43AE-88FA-B4FFDEE24CB8";
shapes = (
{
closed = 1;
nodes = (
(389.429,500,l),
(297.429,500,o),
(243.714,495,o),
(199.857,482,cs),
(119.286,457,o),
(64.857,398,o),
(55.,329,cs),
(44.,252,o),
(76.571,200,o),
(134.429,171,c),
(94.714,152,o),
(73.286,128,o),
(68.857,97,cs),
(64.143,64,o),
(89.143,36,o),
(130.143,22,c),
(88.143,15,o),
(51.143,1,o),
(19.857,-22,c),
(-12.286,-44,o),
(-31.429,-73,o),
(-36.429,-108,cs),
(-44.429,-164,o),
(-11.429,-213,o),
(62.857,-239,cs),
(99.,-252,o),
(143.143,-258,o),
(196.143,-258,cs),
(306.143,-258,o),
(394.286,-222,o),
(443.143,-167,cs),
(467.143,-139,o),
(482.429,-109,o),
(487.143,-76,cs),
(495.429,-18,o),
(471.429,24,o),
(424.571,53,cs),
(389.571,74,o),
(354.857,83,o),
(290.,98,cs),
(258.143,106,o),
(241.143,113,o),
(243.429,129,cs),
(245.857,146,o),
(257.857,153,o),
(288.714,159,cs),
(295.857,160,o),
(301.,161,o),
(304.,161,c),
(348.143,169,o),
(380.714,180,o),
(409.,196,cs),
(442.857,216,o),
(467.286,247,o),
(472.714,285,cs),
(479.429,332,o),
(458.286,380,o),
(385.857,405,c)
);
},
{
closed = 1;
nodes = (
(321.,-126,o),
(279.286,-152,o),
(216.286,-152,cs),
(154.286,-152,o),
(120.,-126,o),
(125.571,-87,cs),
(130.857,-50,o),
(172.,-21,o),
(230.,-21,cs),
(298.,-21,o),
(332.143,-48,o),
(326.571,-87,cs)
);
},
{
closed = 1;
nodes = (
(217.286,254,o),
(196.,280,o),
(200.714,313,cs),
(205.714,348,o),
(236.286,373,o),
(276.286,373,cs),
(318.286,373,o),
(339.714,348,o),
(334.714,313,cs),
(330.,280,o),
(300.286,254,o),
(259.286,254,cs)
);
},
{
closed = 1;
nodes = (
(569.429,500,l),
(389.429,500,l),
(374.429,395,l),
(434.286,373,o),
(484.714,362,o),
(528.714,362,cs),
(549.714,362,l)
);
}
);
width = 551;
},
{
anchors = (
{
name = m.uni0941_2;
position = "{195, -257}";
},
{
name = t.uni0946_1_3;
position = "{313, 500}";
}
);
layerId = "749AE4FF-5243-4D3F-AC67-AE9DCC0EE297";
shapes = (
{
closed = 1;
nodes = (
(373.429,500,l),
(287.429,500,o),
(238.857,496,o),
(196.714,481,cs),
(119.714,453,o),
(71.857,398,o),
(62.,329,cs),
(50.714,250,o),
(92.714,201,o),
(148.571,179,c),
(105.857,160,o),
(82.286,135,o),
(77.571,102,cs),
(72.857,69,o),
(95.857,41,o),
(137.143,29,c),
(93.286,23,o),
(55.571,11,o),
(22.429,-11,cs),
(-10.857,-34,o),
(-30.,-63,o),
(-35.286,-100,cs),
(-43.714,-159,o),
(-10.,-210,o),
(60.,-238,c),
(96.143,-251,o),
(138.143,-258,o),
(189.143,-258,cs),
(288.143,-258,o),
(370.714,-226,o),
(419.143,-174,c),
(443.,-147,o),
(456.857,-120,o),
(461.429,-88,cs),
(469.429,-32,o),
(446.857,13,o),
(397.714,40,cs),
(360.571,60,o),
(318.143,71,o),
(242.857,83,cs),
(195.,91,o),
(177.571,102,o),
(180.429,122,cs),
(183.,140,o),
(205.714,152,o),
(235.571,158,cs),
(240.714,159,o),
(245.857,160,o),
(248.857,160,c),
(307.571,172,o),
(335.571,179,o),
(368.,196,cs),
(414.571,221,o),
(450.429,262,o),
(457.714,313,cs),
(466.143,372,o),
(439.429,423,o),
(372.429,444,c)
);
},
{
closed = 1;
nodes = (
(354.286,-145,o),
(298.286,-180,o),
(205.286,-180,cs),
(110.286,-180,o),
(57.286,-145,o),
(65.,-91,cs),
(72.714,-37,o),
(134.286,2,o),
(226.286,2,cs),
(318.286,2,o),
(370.143,-34,o),
(362.,-91,cs)
);
},
{
closed = 1;
nodes = (
(185.,231,o),
(150.429,269,o),
(158.286,324,cs),
(166.429,381,o),
(211.571,417,o),
(273.571,417,cs),
(338.571,417,o),
(372.429,381,o),
(364.286,324,cs),
(356.429,269,o),
(312.,231,o),
(247.,231,cs)
);
},
{
closed = 1;
nodes = (
(553.429,500,l),
(373.429,500,l),
(364.286,436,l),
(407.,420,o),
(449.143,414,o),
(503.143,414,cs),
(541.143,414,l)
);
}
);
width = 534;
},
{
anchors = (
{
name = m.uni0941_2;
position = "{195, -257}";
},
{
name = t.uni0946_1_3;
position = "{313, 500}";
}
);
layerId = "9DBD663E-71C9-4E39-B4BC-5CF5923FD470";
shapes = (
{
closed = 1;
nodes = (
(365.429,500,l),
(282.429,500,o),
(236.857,496,o),
(194.714,481,c),
(119.429,451,o),
(75.857,398,o),
(66.,329,cs),
(54.571,249,o),
(100.857,202,o),
(155.143,183,c),
(111.429,164,o),
(86.714,138,o),
(82.,105,cs),
(77.143,71,o),
(99.286,44,o),
(140.714,33,c),
(95.857,27,o),
(58.286,16,o),
(24.143,-6,cs),
(-10.143,-29,o),
(-29.286,-58,o),
(-34.714,-96,cs),
(-43.286,-156,o),
(-9.714,-208,o),
(58.143,-237,c),
(94.143,-251,o),
(135.143,-258,o),
(185.143,-258,cs),
(279.143,-258,o),
(359.429,-228,o),
(406.714,-177,cs),
(431.429,-151,o),
(444.143,-125,o),
(448.571,-94,cs),
(456.429,-39,o),
(434.143,8,o),
(384.857,34,cs),
(346.571,53,o),
(300.286,65,o),
(219.714,75,cs),
(162.857,83,o),
(145.714,96,o),
(149.,119,cs),
(151.571,137,o),
(179.714,152,o),
(208.571,158,cs),
(212.714,159,o),
(217.714,159,o),
(221.857,160,cs),
(286.857,174,o),
(312.429,178,o),
(348.,196,cs),
(400.857,223,o),
(442.571,270,o),
(450.714,327,cs),
(460.,392,o),
(429.429,444,o),
(366.143,463,c)
);
},
{
closed = 1;
nodes = (
(371.,-154,o),
(307.286,-194,o),
(199.286,-194,cs),
(88.286,-194,o),
(26.,-154,o),
(34.714,-93,cs),
(43.571,-31,o),
(116.,14,o),
(225.,14,cs),
(329.,14,o),
(389.143,-27,o),
(379.714,-93,cs)
);
},
{
closed = 1;
nodes = (
(168.429,220,o),
(127.571,263,o),
(137.,329,cs),
(146.714,397,o),
(198.714,439,o),
(271.714,439,cs),
(348.714,439,o),
(388.714,397,o),
(379.,329,cs),
(369.571,263,o),
(317.429,220,o),
(240.429,220,cs)
);
},
{
closed = 1;
nodes = (
(545.429,500,l),
(365.429,500,l),
(359.143,456,l),
(393.286,443,o),
(430.857,440,o),
(490.857,440,cs),
(536.857,440,l)
);
}
);
width = 526;
}
);
leftKerningGroup = g2;
rightKerningGroup = g;
unicode = 103;
}
{
glyphname = h;
layers = (
{
anchors = (
{
name = mark0;
position = "{288, 0}";
},
{
name = mark1;
position = "{118, 716}";
},
{
name = mark0.1;
position = "{114, 574}";
}
);
layerId = "F0E59F11-1D58-42A6-80E9-36273FBB34FC";
shapes = (
{
closed = 1;
nodes = (
(182,0,l),
(24,0,l),
(131,758,l),
(289,758,l)
);
},
{
closed = 1;
nodes = (
(206,394,l),
(219,411,o),
(234,426,o),
(249,440,cs),
(264,454,o),
(280,466,o),
(297,477,cs),
(314,488,o),
(331,497,o),
(350,502,cs),
(369,507,o),
(388,510,o),
(407,510,c),
(407,510,o),
(407,510,o),
(407,510,c),
(470,510,o),
(515,489,o),
(544,447,c),
(572,404,o),
(581,345,o),
(570,269,cs),
(532,0,l),
(373,0,l),
(411,269,ls),
(416,301,o),
(411,326,o),
(398,345,cs),
(385,364,o),
(363,373,o),
(334,373,c),
(334,373,o),
(334,373,o),
(334,373,c),
(325,373,o),
(315,372,o),
(306,370,cs),
(288,366,o),
(271,359,o),
(254,348,c),
(248,343,o),
(242,339,o),
(236,334,cs),
(218,318,o),
(203,300,o),
(190,277,c)
);
}
);
width = 624;
},
{
anchors = (
{
name = mark0;
position = "{288, 0}";
},
{
name = mark1;
position = "{118, 716}";
},
{
name = mark0.1;
position = "{114, 574}";
}
);
layerId = "3B93B69D-E33D-48F3-A278-6EAB673A7F94";
shapes = (
{
closed = 1;
nodes = (
(138,0,l),
(40,0,l),
(147,758,l),
(245,758,l)
);
},
{
closed = 1;
nodes = (
(165,386,l),
(178,403,o),
(192,418,o),
(208,433,cs),
(224,447,o),
(242,461,o),
(262,473,cs),
(279,483,o),
(296,492,o),
(313,498,cs),
(330,504,o),
(348,507,o),
(366,509,c),
(372,509,o),
(377,510,o),
(383,510,cs),
(444,510,o),
(488,490,o),
(515,450,cs),
(541,410,o),
(549,352,o),
(538,276,cs),
(499,0,l),
(401,0,l),
(440,276,ls),
(447,324,o),
(442,361,o),
(428,386,cs),
(413,412,o),
(386,424,o),
(349,424,cs),
(337,424,o),
(324,422,o),
(311,418,cs),
(296,413,o),
(280,407,o),
(264,399,cs),
(250,392,o),
(236,384,o),
(222,373,cs),
(216,368,o),
(210,364,o),
(204,359,cs),
(185,343,o),
(169,325,o),
(154,305,c)
);
}
);
width = 608;
},
{
anchors = (
{
name = mark0;
position = "{288, 0}";
},
{
name = mark1;
position = "{118, 716}";
},
{
name = mark0.1;
position = "{114, 574}";
}
);
layerId = "0D25A9BA-90DE-440E-BC4F-74EEDE6C6E67";
shapes = (
{
closed = 1;
nodes = (
(116,0,l),
(48,0,l),
(155,758,l),
(223,758,l)
);
},
{
closed = 1;
nodes = (
(145,382,l),
(157,399,o),
(171,414,o),
(188,429,cs),
(204,444,o),
(223,458,o),
(244,471,cs),
(261,481,o),
(278,490,o),
(295,496,cs),
(311,502,o),
(328,506,o),
(345,508,cs),
(354,509,o),
(362,510,o),
(371,510,cs),
(431,510,o),
(474,491,o),
(500,452,cs),
(525,413,o),
(533,356,o),
(522,279,cs),
(483,0,l),
(415,0,l),
(454,279,ls),
(462,336,o),
(458,378,o),
(443,407,cs),
(427,436,o),
(398,450,o),
(356,450,cs),
(338,450,o),
(319,447,o),
(300,440,cs),
(281,433,o),
(262,424,o),
(243,413,cs),
(231,405,o),
(218,396,o),
(206,386,cs),
(200,381,o),
(194,376,o),
(188,371,cs),
(169,355,o),
(152,338,o),
(136,319,c)
);
}
);
width = 600;
}
);
rightKerningGroup = _a1;
unicode = 104;
}
{
glyphname = i;
layers = (
{
anchors = (
{
name = m.uni0941_2;
position = "{147, 0}";
}
);
layerId = "AE25C586-C738-4B48-9E5B-2AB1177ED30E";
name = "#instance";
shapes = (
{
closed = 1;
nodes = (
(204,722,o),
(176,747,o),
(137,747,cs),
(98,747,o),
(72,721,o),
(72,683,cs),
(72,644,o),
(100,618,o),
(137,618,cs),
(177,618,o),
(204,645,o),
(204,683,cs)
);
},
{
closed = 1;
nodes = (
(188,0,l),
(188,500,l),
(89,500,l),
(89,0,l)
);
}
);
width = 275;
},
{
anchors = (
{
name = m.uni0941_2;
position = "{105, 0}";
}
);
layerId = "5719F410-C0E5-43AE-88FA-B4FFDEE24CB8";
shapes = (
{
closed = 1;
nodes = (
(299.143,729,o),
(266.,763,o),
(214.,763,cs),
(160.,763,o),
(119.,728,o),
(111.857,678,cs),
(104.714,628,o),
(137.857,594,o),
(189.857,594,cs),
(243.857,594,o),
(284.857,629,o),
(291.857,678,cs)
);
},
{
closed = 1;
nodes = (
(185,0,l),
(256.429,500,l),
(97.429,500,l),
(26,0,l)
);
}
);
width = 294;
},
{
anchors = (
{
name = m.uni0941_2;
position = "{105, 0}";
}
);
layerId = "749AE4FF-5243-4D3F-AC67-AE9DCC0EE297";
shapes = (
{
closed = 1;
nodes = (
(265.143,722,o),
(240.714,747,o),
(201.714,747,cs),
(162.714,747,o),
(133.,721,o),
(127.571,683,cs),
(122.,644,o),
(146.286,618,o),
(183.286,618,cs),
(223.286,618,o),
(254.143,645,o),
(259.571,683,cs)
);
},
{
closed = 1;
nodes = (
(146,0,l),
(217.429,500,l),
(118.429,500,l),
(47,0,l)
);
}
);
width = 275;
},
{
anchors = (
{
name = m.uni0941_2;
position = "{105, 0}";
}
);
layerId = "9DBD663E-71C9-4E39-B4BC-5CF5923FD470";
shapes = (
{
closed = 1;
nodes = (
(247.571,718,o),
(227.571,739,o),
(195.571,739,cs),
(163.571,739,o),
(139.429,717,o),
(134.857,685,cs),
(130.143,652,o),
(150.,630,o),
(180.,630,cs),
(213.,630,o),
(238.286,653,o),
(242.857,685,cs)
);
},
{
closed = 1;
nodes = (
(126,0,l),
(197.429,500,l),
(128.429,500,l),
(57,0,l)
);
}
);
width = 266;
}
);
leftKerningGroup = i2;
rightKerningGroup = i;
unicode = 105;
}
{
glyphname = j;
layers = (
{
layerId = "AE25C586-C738-4B48-9E5B-2AB1177ED30E";
name = "#instance";
shapes = (
{
closed = 1;
nodes = (
(197,500,l),
(99,500,l),
(99,-13,ls),
(99,-109,o),
(73,-151,o),
(9,-183,c),
(49,-258,l),
(100,-240,o),
(137,-213,o),
(162,-176,c),
(185,-138,o),
(197,-84,o),
(197,-13,cs)
);
},
{
closed = 1;
nodes = (
(212,722,o),
(184,747,o),
(146,747,cs),
(106,747,o),
(80,721,o),
(80,683,cs),
(80,644,o),
(108,618,o),
(146,618,cs),
(186,618,o),
(212,645,o),
(212,683,cs)
);
}
);
width = 284;
},
{
layerId = "5719F410-C0E5-43AE-88FA-B4FFDEE24CB8";
shapes = (
{
closed = 1;
nodes = (
(266.429,500,l),
(107.429,500,l),
(37.571,11,ls),
(25.286,-75,o),
(-2.,-112,o),
(-60.286,-142,c),
(10.143,-258,l),
(57.,-238,o),
(97.429,-207,o),
(131.286,-166,c),
(163.143,-125,o),
(185.571,-66,o),
(196.571,11,cs)
);
},
{
closed = 1;
nodes = (
(307.143,729,o),
(273.,763,o),
(222.,763,cs),
(168.,763,o),
(127.,728,o),
(119.857,678,cs),
(112.714,628,o),
(145.857,594,o),
(197.857,594,cs),
(251.857,594,o),
(292.857,629,o),
(299.857,678,cs)
);
}
);
width = 302;
},
{
layerId = "749AE4FF-5243-4D3F-AC67-AE9DCC0EE297";
shapes = (
{
closed = 1;
nodes = (
(226.429,500,l),
(128.429,500,l),
(55.143,-13,ls),
(41.429,-109,o),
(9.429,-151,o),
(-59.143,-183,c),
(-29.857,-258,l),
(23.714,-240,o),
(64.571,-213,o),
(94.857,-176,c),
(123.286,-138,o),
(143.,-84,o),
(153.143,-13,cs)
);
},
{
closed = 1;
nodes = (
(273.143,722,o),
(248.714,747,o),
(210.714,747,cs),
(170.714,747,o),
(141.,721,o),
(135.571,683,cs),
(130.,644,o),
(154.286,618,o),
(192.286,618,cs),
(232.286,618,o),
(262.143,645,o),
(267.571,683,cs)
);
}
);
width = 284;
},
{
layerId = "9DBD663E-71C9-4E39-B4BC-5CF5923FD470";
shapes = (
{
closed = 1;
nodes = (
(206.429,500,l),
(138.429,500,l),
(63.429,-25,ls),
(49.,-126,o),
(15.571,-171,o),
(-59.143,-204,c),
(-49.857,-258,l),
(6.571,-241,o),
(48.143,-216,o),
(76.143,-181,c),
(103.429,-144,o),
(121.714,-93,o),
(131.429,-25,cs)
);
},
{
closed = 1;
nodes = (
(255.571,718,o),
(236.571,739,o),
(204.571,739,cs),
(172.571,739,o),
(148.429,717,o),
(143.857,685,cs),
(139.143,652,o),
(158.,630,o),
(189.,630,cs),
(222.,630,o),
(246.286,653,o),
(250.857,685,cs)
);
}
);
width = 275;
}
);
unicode = 106;
}
{
glyphname = k;
layers = (
{
anchors = (
{
name = m.uni0941_2;
position = "{310, 0}";
},
{
name = t.uni0946_1_3;
position = "{300, 506}";
}
);
layerId = "AE25C586-C738-4B48-9E5B-2AB1177ED30E";
name = "#instance";
shapes = (
{
closed = 1;
nodes = (
(291,271,l),
(514,500,l),
(381,500,l),
(172,272,l),
(407,0,l),
(540,0,l)
);
},
{
closed = 1;
nodes = (
(178,758,l),
(80,758,l),
(80,0,l),
(178,0,l)
);
}
);
width = 540;
},
{
anchors = (
{
name = m.uni0941_2;
position = "{268, 0}";
},
{
name = t.uni0946_1_3;
position = "{330, 506}";
}
);
layerId = "5719F410-C0E5-43AE-88FA-B4FFDEE24CB8";
shapes = (
{
closed = 1;
nodes = (
(388.714,271,l),
(611.429,500,l),
(410.429,500,l),
(208.857,272,l),
(381,0,l),
(583,0,l)
);
},
{
closed = 1;
nodes = (
(288.286,758,l),
(130.286,758,l),
(22,0,l),
(180,0,l)
);
}
);
width = 624;
},
{
anchors = (
{
name = m.uni0941_2;
position = "{268, 0}";
},
{
name = t.uni0946_1_3;
position = "{330, 506}";
}
);
layerId = "749AE4FF-5243-4D3F-AC67-AE9DCC0EE297";
shapes = (
{
closed = 1;
nodes = (
(287.714,271,l),
(543.429,500,l),
(410.429,500,l),
(168.857,272,l),
(365,0,l),
(498,0,l)
);
},
{
closed = 1;
nodes = (
(244.286,758,l),
(146.286,758,l),
(38,0,l),
(136,0,l)
);
}
);
width = 540;
},
{
anchors = (
{
name = m.uni0941_2;
position = "{268, 0}";
},
{
name = t.uni0946_1_3;
position = "{330, 506}";
}
);
layerId = "9DBD663E-71C9-4E39-B4BC-5CF5923FD470";
shapes = (
{
closed = 1;
nodes = (
(237.714,271,l),
(509.429,500,l),
(410.429,500,l),
(148.857,272,l),
(357,0,l),
(456,0,l)
);
},
{
closed = 1;
nodes = (
(222.286,758,l),
(154.286,758,l),
(46,0,l),
(114,0,l)
);
}
);
width = 498;
}
);
rightKerningGroup = k;
unicode = 107;
}
{
glyphname = l;
layers = (
{
anchors = (
{
name = m.uni0941_2;
position = "{145, 0}";
},
{
name = t.uni0946_1_3;
position = "{147, 760}";
},
{
name = t.uni0335_2;
position = "{147, 385}";
},
{
name = t.uni031B_3;
position = "{374, 800}";
}
);
layerId = "AE25C586-C738-4B48-9E5B-2AB1177ED30E";
name = "#instance";
shapes = (
{
closed = 1;
nodes = (
(183,758,l),
(85,758,l),
(85,0,l),
(183,0,l)
);
}
);
width = 269;
},
{
anchors = (
{
name = m.uni0941_2;
position = "{103, 0}";
},
{
name = t.uni0946_1_3;
position = "{214, 760}";
},
{
name = t.uni0335_2;
position = "{160, 385}";
},
{
name = t.uni031B_3;
position = "{446, 800}";
}
);
layerId = "5719F410-C0E5-43AE-88FA-B4FFDEE24CB8";
shapes = (
{
closed = 1;
nodes = (
(293.286,758,l),
(134.286,758,l),
(26,0,l),
(185,0,l)
);
}
);
width = 294;
},
{
anchors = (
{
name = m.uni0941_2;
position = "{103, 0}";
},
{
name = t.uni0946_1_3;
position = "{214, 760}";
},
{
name = t.uni0335_2;
position = "{160, 385}";
},
{
name = t.uni031B_3;
position = "{446, 800}";
}
);
layerId = "749AE4FF-5243-4D3F-AC67-AE9DCC0EE297";
shapes = (
{
closed = 1;
nodes = (
(249.286,758,l),
(151.286,758,l),
(43,0,l),
(141,0,l)
);
}
);
width = 269;
},
{
anchors = (
{
name = m.uni0941_2;
position = "{103, 0}";
},
{
name = t.uni0946_1_3;
position = "{214, 760}";
},
{
name = t.uni0335_2;
position = "{160, 385}";
},
{
name = t.uni031B_3;
position = "{446, 800}";
}
);
layerId = "9DBD663E-71C9-4E39-B4BC-5CF5923FD470";
shapes = (
{
closed = 1;
nodes = (
(227.286,758,l),
(159.286,758,l),
(51,0,l),
(119,0,l)
);
}
);
width = 256;
}
);
unicode = 108;
}
{
glyphname = m;
layers = (
{
layerId = "5719F410-C0E5-43AE-88FA-B4FFDEE24CB8";
shapes = (
{
closed = 1;
nodes = (
(720,0,l),
(879,0,l),
(917.429,269,ls),
(939.,420,o),
(878.857,510,o),
(754.857,510,cs),
(675.857,510,o),
(602.857,475,o),
(553.429,402,cs),
(528.143,365,o),
(511.857,321,o),
(504.429,269,c),
(568.429,269,l),
(572.857,300,o),
(585.571,326,o),
(607.286,345,cs),
(628.,364,o),
(653.286,373,o),
(682.286,373,cs),
(739.286,373,o),
(767.571,333,o),
(758.429,269,cs)
);
},
{
closed = 1;
nodes = (
(93.429,500,l),
(22,0,l),
(180,0,l),
(251.429,500,l)
);
},
{
closed = 1;
nodes = (
(188.714,278,l),
(223.857,335,o),
(278.286,373,o),
(333.286,373,cs),
(392.286,373,o),
(418.571,333,o),
(409.429,269,cs),
(371,0,l),
(530,0,l),
(568.429,269,ls),
(579.143,344,o),
(570.571,403,o),
(541.714,446,cs),
(512.857,489,o),
(467.857,510,o),
(405.857,510,cs),
(365.857,510,o),
(328.143,498,o),
(293.857,475,cs),
(259.429,451,o),
(229.,420,o),
(203.714,383,c)
);
}
);
width = 974;
},
{
layerId = "749AE4FF-5243-4D3F-AC67-AE9DCC0EE297";
shapes = (
{
closed = 1;
nodes = (
(741,0,l),
(839,0,l),
(879.571,284,ls),
(900.571,431,o),
(840.857,510,o),
(722.857,510,cs),
(646.857,510,o),
(575.,476,o),
(525.286,401,cs),
(500.,364,o),
(483.143,316,o),
(475.286,261,c),
(526.286,261,l),
(533.143,309,o),
(551.857,349,o),
(582.143,379,cs),
(611.429,409,o),
(647.571,424,o),
(689.571,424,cs),
(761.571,424,o),
(795.,378,o),
(781.571,284,cs)
);
},
{
closed = 1;
nodes = (
(109.429,500,l),
(38,0,l),
(136,0,l),
(207.429,500,l)
);
},
{
closed = 1;
nodes = (
(148.714,313,l),
(207.286,380,o),
(276.571,424,o),
(340.571,424,cs),
(411.571,424,o),
(444.143,379,o),
(432.857,300,cs),
(390,0,l),
(489,0,l),
(531.857,300,ls),
(541.143,365,o),
(532.571,417,o),
(504.857,454,cs),
(477.143,491,o),
(435.857,510,o),
(381.857,510,cs),
(338.857,510,o),
(299.286,499,o),
(261.,476,cs),
(221.571,452,o),
(188.857,426,o),
(160.429,395,c)
);
}
);
width = 950;
},
{
layerId = "9DBD663E-71C9-4E39-B4BC-5CF5923FD470";
shapes = (
{
closed = 1;
nodes = (
(751,0,l),
(819,0,l),
(860.714,292,ls),
(881.286,436,o),
(821.857,510,o),
(706.857,510,cs),
(631.857,510,o),
(561.143,477,o),
(511.286,401,cs),
(485.857,363,o),
(468.857,314,o),
(460.714,257,c),
(505.714,257,l),
(513.857,314,o),
(534.429,360,o),
(569.571,396,cs),
(603.714,432,o),
(645.286,450,o),
(693.286,450,cs),
(772.286,450,o),
(808.286,401,o),
(792.714,292,cs)
);
},
{
closed = 1;
nodes = (
(117.429,500,l),
(46,0,l),
(114,0,l),
(185.429,500,l)
);
},
{
closed = 1;
nodes = (
(129.286,331,l),
(199.429,402,o),
(275.286,450,o),
(344.286,450,cs),
(421.286,450,o),
(457.429,402,o),
(445.143,316,cs),
(400,0,l),
(469,0,l),
(514.143,316,ls),
(522.714,376,o),
(513.571,424,o),
(486.429,458,cs),
(459.286,492,o),
(419.857,510,o),
(369.857,510,cs),
(325.857,510,o),
(285.286,499,o),
(244.,476,cs),
(202.714,453,o),
(168.286,429,o),
(139.286,401,c)
);
}
);
width = 938;
}
);
leftKerningGroup = m;
rightKerningGroup = a;
unicode = 109;
}
{
glyphname = n;
layers = (
{
anchors = (
{
name = m.uni0941_2;
position = "{326, 0}";
},
{
name = t.uni0946_1_3;
position = "{315, 509}";
}
);
layerId = "AE25C586-C738-4B48-9E5B-2AB1177ED30E";
name = "#instance";
shapes = (
{
closed = 1;
nodes = (
(178,500,l),
(80,500,l),
(80,0,l),
(178,0,l),
(178,415,l)
);
},
{
closed = 1;
nodes = (
(146,313,l),
(194,380,o),
(258,424,o),
(322,424,cs),
(393,424,o),
(432,379,o),
(432,300,cs),
(432,0,l),
(532,0,l),
(532,300,ls),
(532,431,o),
(460,510,o),
(351,510,cs),
(309,510,o),
(270,499,o),
(234,476,cs),
(198,453,o),
(170,426,o),
(146,395,c)
);
}
);
width = 601;
},
{
anchors = (
{
name = m.uni0941_2;
position = "{284, 0}";
},
{
name = t.uni0946_1_3;
position = "{346, 509}";
}
);
layerId = "5719F410-C0E5-43AE-88FA-B4FFDEE24CB8";
shapes = (
{
closed = 1;
nodes = (
(251.429,500,l),
(93.429,500,l),
(22,0,l),
(180,0,l),
(239.286,415,l)
);
},
{
closed = 1;
nodes = (
(188.571,277,l),
(223.,336,o),
(278.286,373,o),
(333.286,373,cs),
(391.286,373,o),
(418.571,333,o),
(409.429,269,cs),
(371,0,l),
(530,0,l),
(568.429,269,ls),
(590.,420,o),
(529.857,510,o),
(405.857,510,cs),
(366.857,510,o),
(329.286,499,o),
(294.857,475,cs),
(259.429,451,o),
(229.,420,o),
(203.714,383,c)
);
}
);
width = 624;
},
{
anchors = (
{
name = m.uni0941_2;
position = "{284, 0}";
},
{
name = t.uni0946_1_3;
position = "{346, 509}";
}
);
layerId = "749AE4FF-5243-4D3F-AC67-AE9DCC0EE297";
shapes = (
{
closed = 1;
nodes = (
(207.429,500,l),
(109.429,500,l),
(38,0,l),
(136,0,l),
(195.286,415,l)
);
},
{
closed = 1;
nodes = (
(148.714,313,l),
(206.286,380,o),
(276.571,424,o),
(340.571,424,cs),
(411.571,424,o),
(444.143,379,o),
(432.857,300,cs),
(390,0,l),
(490,0,l),
(532.857,300,ls),
(551.571,431,o),
(490.857,510,o),
(381.857,510,cs),
(339.857,510,o),
(299.286,499,o),
(260.,476,cs),
(220.714,453,o),
(188.857,426,o),
(160.429,395,c)
);
}
);
width = 601;
},
{
anchors = (
{
name = m.uni0941_2;
position = "{284, 0}";
},
{
name = t.uni0946_1_3;
position = "{346, 509}";
}
);
layerId = "9DBD663E-71C9-4E39-B4BC-5CF5923FD470";
shapes = (
{
closed = 1;
nodes = (
(185.429,500,l),
(117.429,500,l),
(46,0,l),
(114,0,l),
(173.286,415,l)
);
},
{
closed = 1;
nodes = (
(129.286,331,l),
(198.429,402,o),
(275.286,450,o),
(344.286,450,cs),
(421.286,450,o),
(457.429,402,o),
(445.143,316,cs),
(400,0,l),
(470,0,l),
(515.143,316,ls),
(532.286,436,o),
(471.857,510,o),
(369.857,510,cs),
(325.857,510,o),
(284.286,499,o),
(243.,476,cs),
(201.857,454,o),
(168.286,429,o),
(139.286,401,c)
);
}
);
width = 589;
}
);
leftKerningGroup = m;
rightKerningGroup = a;
unicode = 110;
}
{
glyphname = o;
layers = (
{
anchors = (
{
name = m.uni0941_2;
position = "{317, 0}";
},
{
name = t.uni0946_1_3;
position = "{317, 510}";
},
{
name = t.uni0335_2;
position = "{317, 249}";
},
{
name = m.uni0328_2;
position = "{411, 1}";
},
{
name = t.uni031B_3;
position = "{514, 421}";
}
);
layerId = "AE25C586-C738-4B48-9E5B-2AB1177ED30E";
name = "#instance";
shapes = (
{
closed = 1;
nodes = (
(215,510,o),
(129,466,o),
(83,386,cs),
(60,347,o),
(48,302,o),
(48,250,cs),
(48,147,o),
(97,65,o),
(180,22,cs),
(222,0,o),
(271,-11,o),
(325,-11,cs),
(436,-11,o),
(522,34,o),
(569,113,cs),
(592,152,o),
(603,198,o),
(603,250,cs),
(603,352,o),
(556,435,o),
(471,478,cs),
(429,500,o),
(380,510,o),
(325,510,cs)
);
},
{
closed = 1;
nodes = (
(272,75,o),
(228,92,o),
(196,123,cs),
(163,155,o),
(146,197,o),
(146,250,cs),
(146,303,o),
(163,345,o),
(196,378,c),
(228,408,o),
(272,424,o),
(325,424,cs),
(379,424,o),
(422,408,o),
(455,378,c),
(488,345,o),
(505,303,o),
(505,250,cs),
(505,197,o),
(488,155,o),
(455,123,cs),
(422,92,o),
(379,75,o),
(325,75,cs)
);
}
);
width = 652;
},
{
anchors = (
{
name = m.uni0941_2;
position = "{275, 0}";
},
{
name = t.uni0946_1_3;
position = "{348, 510}";
},
{
name = t.uni0335_2;
position = "{311, 249}";
},
{
name = m.uni0328_2;
position = "{369, 1}";
},
{
name = t.uni031B_3;
position = "{532, 421}";
}
);
layerId = "5719F410-C0E5-43AE-88FA-B4FFDEE24CB8";
shapes = (
{
closed = 1;
nodes = (
(234.857,510,o),
(139.571,466,o),
(81.143,386,c),
(50.571,347,o),
(33.143,302,o),
(25.714,250,cs),
(11.,147,o),
(50.286,65,o),
(129.143,22,cs),
(170,0,o),
(217.429,-11,o),
(274.429,-11,cs),
(387.429,-11,o),
(483.857,34,o),
(542.143,113,cs),
(571.714,152,o),
(589.286,198,o),
(596.714,250,cs),
(611.286,352,o),
(575.143,435,o),
(494.286,478,cs),
(453.429,500,o),
(404.857,510,o),
(348.857,510,cs)
);
},
{
closed = 1;
nodes = (
(255.143,127,o),
(226.857,139,o),
(206.,161,cs),
(186.143,183,o),
(179.429,213,o),
(184.714,250,cs),
(190.,287,o),
(205.143,316,o),
(231.429,339,c),
(258.571,361,o),
(290.286,373,o),
(329.286,373,cs),
(367.286,373,o),
(395.571,361,o),
(416.429,339,c),
(436.143,316,o),
(444.,287,o),
(438.714,250,cs),
(433.429,213,o),
(417.143,183,o),
(391.,161,cs),
(363.857,139,o),
(332.143,127,o),
(294.143,127,cs)
);
}
);
width = 635;
},
{
anchors = (
{
name = m.uni0941_2;
position = "{275, 0}";
},
{
name = t.uni0946_1_3;
position = "{348, 510}";
},
{
name = t.uni0335_2;
position = "{311, 249}";
},
{
name = m.uni0328_2;
position = "{369, 1}";
},
{
name = t.uni031B_3;
position = "{532, 421}";
}
);
layerId = "749AE4FF-5243-4D3F-AC67-AE9DCC0EE297";
shapes = (
{
closed = 1;
nodes = (
(245.857,510,o),
(153.571,466,o),
(96.143,386,cs),
(67.571,347,o),
(49.143,302,o),
(41.714,250,cs),
(27.,147,o),
(64.286,65,o),
(141.143,22,cs),
(180,0,o),
(227.429,-11,o),
(281.429,-11,cs),
(392.429,-11,o),
(484.857,34,o),
(543.143,113,cs),
(571.714,152,o),
(589.286,198,o),
(596.714,250,cs),
(611.286,352,o),
(576.143,435,o),
(497.286,478,cs),
(458.429,500,o),
(410.857,510,o),
(355.857,510,cs)
);
},
{
closed = 1;
nodes = (
(240.714,75,o),
(199.143,92,o),
(171.571,123,cs),
(143.143,155,o),
(132.143,197,o),
(139.714,250,cs),
(147.286,303,o),
(170.286,345,o),
(208.,378,c),
(244.286,408,o),
(290.571,424,o),
(343.571,424,cs),
(397.571,424,o),
(438.286,408,o),
(467.,378,c),
(495.286,345,o),
(506.286,303,o),
(498.714,250,cs),
(491.143,197,o),
(468.143,155,o),
(430.571,123,cs),
(393.143,92,o),
(347.714,75,o),
(293.714,75,cs)
);
}
);
width = 652;
},
{
anchors = (
{
name = m.uni0941_2;
position = "{275, 0}";
},
{
name = t.uni0946_1_3;
position = "{348, 510}";
},
{
name = t.uni0335_2;
position = "{311, 249}";
},
{
name = m.uni0328_2;
position = "{369, 1}";
},
{
name = t.uni031B_3;
position = "{532, 421}";
}
);
layerId = "9DBD663E-71C9-4E39-B4BC-5CF5923FD470";
shapes = (
{
closed = 1;
nodes = (
(251.857,510,o),
(160.571,466,o),
(104.143,386,cs),
(75.571,347,o),
(57.143,302,o),
(49.714,250,cs),
(35.,147,o),
(71.286,65,o),
(147.143,22,cs),
(185,0,o),
(232.429,-11,o),
(285.429,-11,cs),
(394.429,-11,o),
(485.857,34,o),
(543.143,113,cs),
(571.714,152,o),
(589.286,198,o),
(596.714,250,cs),
(611.286,352,o),
(576.143,435,o),
(499.286,478,cs),
(461.429,500,o),
(413.857,510,o),
(359.857,510,cs)
);
},
{
closed = 1;
nodes = (
(234.,49,o),
(185.714,68,o),
(153.857,104,cs),
(121.143,141,o),
(109.,189,o),
(117.714,250,cs),
(126.429,311,o),
(152.429,360,o),
(195.714,397,cs),
(237.714,432,o),
(291.286,450,o),
(351.286,450,cs),
(412.286,450,o),
(459.714,432,o),
(492.714,397,c),
(525.429,360,o),
(537.429,311,o),
(528.714,250,cs),
(520.,189,o),
(494.143,141,o),
(450.857,104,cs),
(407.714,68,o),
(355.,49,o),
(294.,49,cs)
);
}
);
width = 660;
}
);
leftKerningGroup = c2;
rightKerningGroup = b;
unicode = 111;
}
{
glyphname = p;
layers = (
{
hints = (
{
horizontal = 1;
place = (-10,86);
type = Stem;
},
{
horizontal = 1;
place = (424,86);
type = Stem;
}
);
layerId = "B21811DC-AF90-4C9E-92F0-FA8919ABC9C4";
name = "#instance";
shapes = (
{
closed = 1;
nodes = (
(357,-10,o),
(448,34,o),
(503,114,c),
(532,153,o),
(549,198,o),
(556,249,cs),
(570,352,o),
(536,433,o),
(472,478,c),
(440,499,o),
(402,510,o),
(359,510,cs),
(314,510,o),
(274,501,o),
(241,484,cs),
(207,466,o),
(179,443,o),
(155,415,c),
(145,344,l),
(195,395,o),
(252,424,o),
(324,424,cs),
(371,424,o),
(407,408,o),
(431,377,cs),
(455,344,o),
(464,302,o),
(456,249,cs),
(449,197,o),
(426,156,o),
(391,123,c),
(355,92,o),
(309,76,o),
(257,76,cs),
(188,76,o),
(125,107,o),
(75,158,c),
(63,74,l),
(102,25,o),
(168,-10,o),
(252,-10,cs)
);
},
{
closed = 1;
nodes = (
(5,-259,l),
(103,-259,l),
(209,500,l),
(111,500,l)
);
}
);
width = 621;
},
{
hints = (
{
horizontal = 1;
place = (-10,137);
type = Stem;
},
{
horizontal = 1;
place = (373,137);
type = Stem;
},
{
place = (71,158);
type = Stem;
},
{
place = (420,159);
type = Stem;
}
);
layerId = "7A4E2608-894C-42C3-A821-B6FEA079E459";
shapes = (
{
closed = 1;
nodes = (
(366,-10,o),
(456,34,o),
(512,114,cs),
(541,153,o),
(558,198,o),
(565,249,cs),
(579,350,o),
(542,433,o),
(479,477,cs),
(447,499,o),
(412,510,o),
(374,510,cs),
(325,510,o),
(286,498,o),
(257,474,cs),
(227,450,o),
(206,423,o),
(193,392,c),
(180,296,l),
(208,341,o),
(243,373,o),
(301,373,cs),
(338,373,o),
(367,362,o),
(386,339,cs),
(404,316,o),
(411,286,o),
(406,249,cs),
(401,213,o),
(385,184,o),
(358,161,cs),
(330,138,o),
(296,127,o),
(256,127,cs),
(183,127,o),
(121,161,o),
(74,222,c),
(53,74,l),
(89,26,o),
(157,-10,o),
(259,-10,cs)
);
},
{
closed = 1;
nodes = (
(-14,-259,l),
(144,-259,l),
(250,500,l),
(92,500,l)
);
}
);
width = 614;
},
{
hints = (
{
horizontal = 1;
place = (-10,86);
type = Stem;
},
{
horizontal = 1;
place = (424,86);
type = Stem;
}
);
layerId = "2FEAAE27-63B5-41AA-B98F-0872FA373B5B";
shapes = (
{
closed = 1;
nodes = (
(357,-10,o),
(448,34,o),
(503,114,c),
(532,153,o),
(549,198,o),
(556,249,cs),
(570,352,o),
(536,433,o),
(472,478,c),
(440,499,o),
(402,510,o),
(359,510,cs),
(314,510,o),
(274,501,o),
(241,484,cs),
(207,466,o),
(179,443,o),
(155,415,c),
(145,344,l),
(195,395,o),
(252,424,o),
(324,424,cs),
(371,424,o),
(407,408,o),
(431,377,cs),
(455,344,o),
(464,302,o),
(456,249,cs),
(449,197,o),
(426,156,o),
(391,123,c),
(355,92,o),
(309,76,o),
(257,76,cs),
(188,76,o),
(125,107,o),
(75,158,c),
(63,74,l),
(102,25,o),
(168,-10,o),
(252,-10,cs)
);
},
{
closed = 1;
nodes = (
(5,-259,l),
(103,-259,l),
(209,500,l),
(111,500,l)
);
}
);
width = 621;
},
{
hints = (
{
horizontal = 1;
place = (-10,60);
type = Stem;
},
{
horizontal = 1;
place = (450,60);
type = Stem;
},
{
place = (99,68);
type = Stem;
},
{
place = (495,70);
type = Stem;
}
);
layerId = "BBA9C4CC-16BF-4D96-9809-7FD759381829";
shapes = (
{
closed = 1;
nodes = (
(353,-10,o),
(444,34,o),
(499,114,cs),
(527,153,o),
(544,198,o),
(551,249,cs),
(566,353,o),
(533,434,o),
(469,478,c),
(436,499,o),
(397,510,o),
(351,510,cs),
(309,510,o),
(268,503,o),
(233,489,cs),
(197,474,o),
(165,454,o),
(136,427,c),
(128,369,l),
(188,422,o),
(257,450,o),
(335,450,cs),
(388,450,o),
(427,432,o),
(454,396,cs),
(481,359,o),
(490,310,o),
(481,249,cs),
(473,189,o),
(447,141,o),
(407,104,cs),
(367,68,o),
(316,50,o),
(257,50,cs),
(190,50,o),
(127,79,o),
(76,126,c),
(68,74,l),
(109,25,o),
(174,-10,o),
(248,-10,cs)
);
},
{
closed = 1;
nodes = (
(14,-259,l),
(82,-259,l),
(188,500,l),
(120,500,l)
);
}
);
width = 625;
}
);
rightKerningGroup = b;
unicode = 112;
}
{
glyphname = q;
layers = (
{
layerId = "AE25C586-C738-4B48-9E5B-2AB1177ED30E";
name = "#instance";
shapes = (
{
closed = 1;
nodes = (
(389,-10,o),
(461,25,o),
(494,83,c),
(494,156,l),
(452,109,o),
(383,76,o),
(310,76,cs),
(261,76,o),
(221,91,o),
(191,123,cs),
(162,155,o),
(146,197,o),
(146,249,cs),
(146,302,o),
(163,345,o),
(196,377,cs),
(230,409,o),
(273,424,o),
(328,424,cs),
(368,424,o),
(410,422,o),
(446,419,cs),
(484,415,o),
(515,413,o),
(542,413,c),
(542,500,l),
(513,500,o),
(482,502,o),
(447,505,c),
(393,508,o),
(353,510,o),
(328,510,cs),
(217,510,o),
(130,465,o),
(84,386,c),
(60,347,o),
(48,301,o),
(48,249,cs),
(48,148,o),
(91,65,o),
(167,22,cs),
(206,1,o),
(249,-10,o),
(299,-10,cs)
);
},
{
closed = 1;
nodes = (
(444,455,l),
(444,-259,l),
(542,-259,l),
(542,455,l)
);
}
);
width = 621;
},
{
layerId = "5719F410-C0E5-43AE-88FA-B4FFDEE24CB8";
shapes = (
{
closed = 1;
nodes = (
(341,-10,o),
(415,42,o),
(442,127,c),
(453,201,l),
(418,156,o),
(361,127,o),
(293,127,cs),
(256,127,o),
(227,138,o),
(207,161,cs),
(187,184,o),
(179,213,o),
(185,249,cs),
(190,286,o),
(207,316,o),
(235,339,cs),
(264,362,o),
(298,373,o),
(339,373,cs),
(380,373,o),
(426,370,o),
(466,367,cs),
(511,364,o),
(542,362,o),
(561,362,c),
(580,500,l),
(546,500,o),
(513,502,o),
(478,505,c),
(423,508,o),
(383,510,o),
(359,510,cs),
(242,510,o),
(143,465,o),
(82,386,cs),
(52,347,o),
(32,301,o),
(25,249,cs),
(10,148,o),
(41,65,o),
(109,22,cs),
(143,1,o),
(184,-10,o),
(232,-10,cs)
);
},
{
closed = 1;
nodes = (
(409,415,l),
(313,-259,l),
(472,-259,l),
(568,415,l)
);
}
);
width = 614;
},
{
layerId = "749AE4FF-5243-4D3F-AC67-AE9DCC0EE297";
shapes = (
{
closed = 1;
nodes = (
(346,-10,o),
(423,25,o),
(464,83,c),
(474,156,l),
(426,109,o),
(352,76,o),
(279,76,cs),
(230,76,o),
(192,91,o),
(167,123,cs),
(142,155,o),
(132,197,o),
(140,249,cs),
(147,302,o),
(170,345,o),
(208,377,cs),
(246,409,o),
(292,424,o),
(347,424,cs),
(387,424,o),
(428,422,o),
(464,419,cs),
(501,415,o),
(532,413,o),
(559,413,c),
(571,500,l),
(542,500,o),
(512,502,o),
(477,505,c),
(424,508,o),
(384,510,o),
(359,510,cs),
(248,510,o),
(154,465,o),
(97,386,c),
(68,347,o),
(49,301,o),
(42,249,cs),
(27,148,o),
(58,65,o),
(128,22,cs),
(164,1,o),
(206,-10,o),
(256,-10,cs)
);
},
{
closed = 1;
nodes = (
(467,455,l),
(365,-259,l),
(463,-259,l),
(565,455,l)
);
}
);
width = 621;
},
{
layerId = "9DBD663E-71C9-4E39-B4BC-5CF5923FD470";
shapes = (
{
closed = 1;
nodes = (
(348,-10,o),
(426,17,o),
(475,61,c),
(485,134,l),
(429,85,o),
(347,50,o),
(271,50,cs),
(216,50,o),
(175,68,o),
(147,104,cs),
(119,141,o),
(109,189,o),
(118,249,cs),
(126,310,o),
(152,359,o),
(195,396,c),
(238,432,o),
(288,450,o),
(350,450,cs),
(389,450,o),
(429,448,o),
(463,445,cs),
(496,441,o),
(528,439,o),
(558,439,c),
(566,500,l),
(540,500,o),
(511,502,o),
(477,505,c),
(425,508,o),
(385,510,o),
(359,510,cs),
(251,510,o),
(160,465,o),
(104,386,cs),
(76,347,o),
(57,301,o),
(50,249,cs),
(35,148,o),
(67,65,o),
(138,22,cs),
(174,1,o),
(217,-10,o),
(268,-10,cs)
);
},
{
closed = 1;
nodes = (
(496,475,l),
(391,-259,l),
(458,-259,l),
(563,475,l)
);
}
);
width = 625;
}
);
leftKerningGroup = c2;
unicode = 113;
}
{
glyphname = r;
layers = (
{
anchors = (
{
name = m.uni0941_2;
position = "{141, 0}";
},
{
name = t.uni0946_1_3;
position = "{223, 500}";
}
);
layerId = "AE25C586-C738-4B48-9E5B-2AB1177ED30E";
name = "#instance";
shapes = (
{
closed = 1;
nodes = (
(80,0,l),
(178,0,l),
(178,500,l),
(80,500,l)
);
},
{
closed = 1;
nodes = (
(165,279,l),
(214,370,o),
(265,413,o),
(313,413,cs),
(347,413,o),
(373,398,o),
(407,365,c),
(464,439,l),
(420,488,o),
(387,510,o),
(332,510,cs),
(265,510,o),
(220,467,o),
(166,372,c)
);
}
);
width = 474;
},
{
anchors = (
{
name = m.uni0941_2;
position = "{99, 0}";
},
{
name = t.uni0946_1_3;
position = "{252, 500}";
}
);
layerId = "5719F410-C0E5-43AE-88FA-B4FFDEE24CB8";
shapes = (
{
closed = 1;
nodes = (
(22,0,l),
(180,0,l),
(251.429,500,l),
(93.429,500,l)
);
},
{
closed = 1;
nodes = (
(203.143,246,l),
(252.571,319,o),
(302.,357,o),
(340.,357,cs),
(371.,357,o),
(400.714,341,o),
(433.429,304,c),
(532.143,414,l),
(495.143,477,o),
(460.857,510,o),
(402.857,510,cs),
(338.857,510,o),
(294.571,466,o),
(221.143,365,c)
);
}
);
width = 520;
},
{
anchors = (
{
name = m.uni0941_2;
position = "{99, 0}";
},
{
name = t.uni0946_1_3;
position = "{252, 500}";
}
);
layerId = "749AE4FF-5243-4D3F-AC67-AE9DCC0EE297";
shapes = (
{
closed = 1;
nodes = (
(38,0,l),
(136,0,l),
(207.429,500,l),
(109.429,500,l)
);
},
{
closed = 1;
nodes = (
(162.857,279,l),
(224.857,370,o),
(282.,413,o),
(330.,413,cs),
(364.,413,o),
(387.857,398,o),
(417.143,365,c),
(484.714,439,l),
(447.714,488,o),
(417.857,510,o),
(362.857,510,cs),
(295.857,510,o),
(244.714,467,o),
(177.143,372,c)
);
}
);
width = 474;
},
{
anchors = (
{
name = m.uni0941_2;
position = "{99, 0}";
},
{
name = t.uni0946_1_3;
position = "{252, 500}";
}
);
layerId = "9DBD663E-71C9-4E39-B4BC-5CF5923FD470";
shapes = (
{
closed = 1;
nodes = (
(46,0,l),
(114,0,l),
(185.429,500,l),
(117.429,500,l)
);
},
{
closed = 1;
nodes = (
(143.286,296,l),
(211.571,396,o),
(272.,441,o),
(325.,441,cs),
(360.,441,o),
(380.857,426,o),
(409.571,396,c),
(461.571,452,l),
(423.429,493,o),
(395.857,510,o),
(342.857,510,cs),
(274.857,510,o),
(219.857,468,o),
(155.714,376,c)
);
}
);
width = 451;
}
);
leftKerningGroup = m;
rightKerningGroup = r;
unicode = 114;
}
{
glyphname = s;
layers = (
{
anchors = (
{
name = m.uni0941_2;
position = "{197, 0}";
},
{
name = t.uni0946_1_3;
position = "{283, 503}";
}
);
layerId = "5719F410-C0E5-43AE-88FA-B4FFDEE24CB8";
shapes = (
{
closed = 1;
nodes = (
(307.714,383,o),
(366.714,362,o),
(417.857,328,c),
(437.571,466,l),
(408.,490,o),
(337.857,510,o),
(265.857,510,cs),
(185.857,510,o),
(120.857,482,o),
(85.286,436,c),
(67.143,414,o),
(55.429,388,o),
(51.714,362,cs),
(41.286,289,o),
(80.571,242,o),
(156.857,209,cs),
(222.714,180,ls),
(246.286,170,o),
(255.429,157,o),
(253.571,144,cs),
(251.286,128,o),
(233.571,116,o),
(208.571,116,cs),
(178.571,116,o),
(146.571,123,o),
(111.143,134,cs),
(75.857,146,o),
(48.143,162,o),
(25.714,180,c),
(6.,42,l),
(51.714,12,o),
(119.429,-11,o),
(195.429,-11,cs),
(311.429,-11,o),
(398.714,47,o),
(412.143,141,cs),
(421.857,209,o),
(383.857,251,o),
(311.857,286,cs),
(243.714,320,l),
(217.429,332,o),
(207.714,341,o),
(210.,357,cs),
(212.286,373,o),
(231.714,383,o),
(258.714,383,cs)
);
}
);
width = 477;
},
{
anchors = (
{
name = m.uni0941_2;
position = "{197, 0}";
},
{
name = t.uni0946_1_3;
position = "{283, 503}";
}
);
layerId = "749AE4FF-5243-4D3F-AC67-AE9DCC0EE297";
shapes = (
{
closed = 1;
nodes = (
(306.,427,o),
(361.429,402,o),
(399.571,368,c),
(413.571,466,l),
(379.,490,o),
(323.857,510,o),
(257.857,510,cs),
(186.857,510,o),
(128.286,485,o),
(93.571,445,cs),
(75.714,425,o),
(65.286,401,o),
(61.857,377,cs),
(51.571,305,o),
(88.857,265,o),
(157.857,230,cs),
(229.714,194,ls),
(265.143,176,o),
(291.286,156,o),
(287.143,127,cs),
(282.143,92,o),
(252.286,72,o),
(200.286,72,cs),
(168.286,72,o),
(138.286,79,o),
(107.857,90,cs),
(76.571,102,o),
(50.,119,o),
(28.,140,c),
(14.,42,l),
(51.857,13,o),
(117.429,-11,o),
(189.429,-11,cs),
(294.429,-11,o),
(374.,42,o),
(386.,126,cs),
(395.857,195,o),
(354.714,236,o),
(282.857,272,cs),
(210.286,310,ls),
(175.857,328,o),
(156.429,346,o),
(160.571,375,cs),
(165.,406,o),
(197.,427,o),
(248.,427,cs)
);
}
);
width = 461;
},
{
anchors = (
{
name = m.uni0941_2;
position = "{197, 0}";
},
{
name = t.uni0946_1_3;
position = "{283, 503}";
}
);
layerId = "9DBD663E-71C9-4E39-B4BC-5CF5923FD470";
shapes = (
{
closed = 1;
nodes = (
(305.143,449,o),
(358.286,422,o),
(390.429,388,c),
(401.571,466,l),
(365.,490,o),
(316.857,510,o),
(253.857,510,cs),
(187.857,510,o),
(132.571,487,o),
(98.286,450,cs),
(80.429,430,o),
(70.143,407,o),
(66.857,384,cs),
(56.714,313,o),
(92.429,276,o),
(158.429,241,cs),
(233.714,201,ls),
(274.571,179,o),
(309.143,155,o),
(304.,119,cs),
(297.571,74,o),
(262.143,50,o),
(196.143,50,cs),
(163.143,50,o),
(134.143,57,o),
(106.714,68,cs),
(77.429,80,o),
(50.857,97,o),
(29.143,120,c),
(18.,42,l),
(51.857,13,o),
(116.429,-11,o),
(186.429,-11,cs),
(286.429,-11,o),
(361.714,40,o),
(373.,119,cs),
(382.857,188,o),
(339.571,228,o),
(267.857,265,cs),
(193.571,305,ls),
(154.571,326,o),
(130.714,348,o),
(135.857,384,cs),
(141.286,422,o),
(179.143,449,o),
(243.143,449,cs)
);
}
);
width = 453;
}
);
leftKerningGroup = s2;
rightKerningGroup = s;
unicode = 115;
}
{
glyphname = t;
layers = (
{
anchors = (
{
name = m.uni0941_2;
position = "{283, 0}";
},
{
name = t.uni0946_1_3;
position = "{217, 655}";
},
{
name = t.uni0335_2;
position = "{239, 259}";
},
{
name = t.uni031B_3;
position = "{416, 800}";
}
);
layerId = "AE25C586-C738-4B48-9E5B-2AB1177ED30E";
name = "#instance";
shapes = (
{
closed = 1;
nodes = (
(204,414,l),
(381,414,l),
(381,500,l),
(204,500,l),
(204,600,l),
(18,426,l),
(18,414,l),
(106,414,l),
(106,136,ls),
(106,40,o),
(163,-11,o),
(261,-11,cs),
(311,-11,o),
(365,4,o),
(402,25,c),
(402,114,l),
(364,90,o),
(317,75,o),
(277,75,cs),
(228,75,o),
(204,99,o),
(204,152,cs)
);
}
);
width = 420;
},
{
anchors = (
{
name = m.uni0941_2;
position = "{241, 0}";
},
{
name = t.uni0946_1_3;
position = "{269, 655}";
},
{
name = t.uni0335_2;
position = "{234, 259}";
},
{
name = t.uni031B_3;
position = "{488, 800}";
}
);
layerId = "5719F410-C0E5-43AE-88FA-B4FFDEE24CB8";
shapes = (
{
closed = 1;
nodes = (
(274.714,362,l),
(454.714,362,l),
(474.429,500,l),
(294.429,500,l),
(313.286,632,l),
(25.286,394,l),
(20.714,362,l),
(115.714,362,l),
(86.857,160,ls),
(71.571,53,o),
(133.429,-11,o),
(252.429,-11,cs),
(312.429,-11,o),
(381.571,4,o),
(427.,21,c),
(446.429,157,l),
(407.143,141,o),
(353.286,128,o),
(309.286,128,cs),
(263.286,128,o),
(244.143,148,o),
(250.429,192,cs)
);
}
);
width = 477;
},
{
anchors = (
{
name = m.uni0941_2;
position = "{241, 0}";
},
{
name = t.uni0946_1_3;
position = "{269, 655}";
},
{
name = t.uni0335_2;
position = "{234, 259}";
},
{
name = t.uni031B_3;
position = "{488, 800}";
}
);
layerId = "749AE4FF-5243-4D3F-AC67-AE9DCC0EE297";
shapes = (
{
closed = 1;
nodes = (
(221.143,414,l),
(398.143,414,l),
(410.429,500,l),
(233.429,500,l),
(247.714,600,l),
(36.857,426,l),
(35.143,414,l),
(123.143,414,l),
(83.429,136,ls),
(69.714,40,o),
(119.429,-11,o),
(217.429,-11,cs),
(267.429,-11,o),
(323.571,4,o),
(363.571,25,c),
(376.286,114,l),
(334.857,90,o),
(285.714,75,o),
(245.714,75,cs),
(196.714,75,o),
(176.143,99,o),
(183.714,152,cs)
);
}
);
width = 420;
},
{
anchors = (
{
name = m.uni0941_2;
position = "{241, 0}";
},
{
name = t.uni0946_1_3;
position = "{269, 655}";
},
{
name = t.uni0335_2;
position = "{234, 259}";
},
{
name = t.uni031B_3;
position = "{488, 800}";
}
);
layerId = "9DBD663E-71C9-4E39-B4BC-5CF5923FD470";
shapes = (
{
closed = 1;
nodes = (
(194.857,440,l),
(369.857,440,l),
(378.429,500,l),
(203.429,500,l),
(215.429,584,l),
(43.143,442,l),
(42.857,440,l),
(126.857,440,l),
(81.714,124,ls),
(68.857,34,o),
(112.429,-11,o),
(199.429,-11,cs),
(244.429,-11,o),
(294.571,4,o),
(331.857,27,c),
(341.286,93,l),
(299.286,65,o),
(251.857,48,o),
(213.857,48,cs),
(163.857,48,o),
(142.571,74,o),
(150.857,132,cs)
);
}
);
width = 392;
}
);
leftKerningGroup = t2;
rightKerningGroup = t;
unicode = 116;
}
{
glyphname = u;
layers = (
{
anchors = (
{
name = m.uni0941_2;
position = "{308, 0}";
},
{
name = t.uni0946_1_3;
position = "{310, 500}";
},
{
name = m.uni0328_2;
position = "{526, 0}";
},
{
name = t.uni031B_3;
position = "{483, 501}";
}
);
layerId = "AE25C586-C738-4B48-9E5B-2AB1177ED30E";
name = "#instance";
shapes = (
{
closed = 1;
nodes = (
(297,-11,o),
(335,2,o),
(372,26,cs),
(409,51,o),
(436,81,o),
(456,116,c),
(456,194,l),
(410,119,o),
(348,75,o),
(276,75,cs),
(203,75,o),
(167,127,o),
(167,221,cs),
(167,500,l),
(69,500,l),
(69,221,ls),
(69,68,o),
(135,-11,o),
(255,-11,cs)
);
},
{
closed = 1;
nodes = (
(430,85,l),
(430,0,l),
(529,0,l),
(529,500,l),
(430,500,l)
);
}
);
width = 608;
},
{
anchors = (
{
name = m.uni0941_2;
position = "{266, 0}";
},
{
name = t.uni0946_1_3;
position = "{339, 500}";
},
{
name = m.uni0328_2;
position = "{484, 0}";
},
{
name = t.uni031B_3;
position = "{513, 501}";
}
);
layerId = "5719F410-C0E5-43AE-88FA-B4FFDEE24CB8";
shapes = (
{
closed = 1;
nodes = (
(232.429,-11,o),
(271.286,2,o),
(311.714,26,c),
(351.286,51,o),
(380.714,82,o),
(397.571,116,c),
(412.714,222,l),
(379.286,163,o),
(323.143,127,o),
(268.143,127,cs),
(214.143,127,o),
(193.143,162,o),
(201.429,220,cs),
(241.429,500,l),
(82.429,500,l),
(42.429,220,ls),
(20.143,64,o),
(73.429,-11,o),
(195.429,-11,cs)
);
},
{
closed = 1;
nodes = (
(372.143,85,l),
(360,0,l),
(519,0,l),
(590.429,500,l),
(431.429,500,l)
);
}
);
width = 624;
},
{
anchors = (
{
name = m.uni0941_2;
position = "{266, 0}";
},
{
name = t.uni0946_1_3;
position = "{339, 500}";
},
{
name = m.uni0328_2;
position = "{484, 0}";
},
{
name = t.uni031B_3;
position = "{513, 501}";
}
);
layerId = "749AE4FF-5243-4D3F-AC67-AE9DCC0EE297";
shapes = (
{
closed = 1;
nodes = (
(253.429,-11,o),
(293.286,2,o),
(333.714,26,cs),
(374.286,51,o),
(405.571,81,o),
(430.571,116,c),
(441.714,194,l),
(385.,119,o),
(316.714,75,o),
(244.714,75,cs),
(171.714,75,o),
(143.143,127,o),
(156.571,221,cs),
(196.429,500,l),
(98.429,500,l),
(58.571,221,ls),
(36.714,68,o),
(91.429,-11,o),
(211.429,-11,cs)
);
},
{
closed = 1;
nodes = (
(400.143,85,l),
(388,0,l),
(487,0,l),
(558.429,500,l),
(459.429,500,l)
);
}
);
width = 608;
},
{
anchors = (
{
name = m.uni0941_2;
position = "{266, 0}";
},
{
name = t.uni0946_1_3;
position = "{339, 500}";
},
{
name = m.uni0328_2;
position = "{484, 0}";
},
{
name = t.uni031B_3;
position = "{513, 501}";
}
);
layerId = "9DBD663E-71C9-4E39-B4BC-5CF5923FD470";
shapes = (
{
closed = 1;
nodes = (
(263.429,-11,o),
(304.286,2,o),
(344.714,26,cs),
(385.286,51,o),
(418.429,80,o),
(446.571,116,c),
(455.714,180,l),
(387.857,97,o),
(313.,49,o),
(233.,49,cs),
(151.,49,o),
(118.571,109,o),
(134.571,221,cs),
(174.429,500,l),
(106.429,500,l),
(66.571,221,ls),
(45.,70,o),
(100.429,-11,o),
(219.429,-11,cs)
);
},
{
closed = 1;
nodes = (
(414.143,85,l),
(402,0,l),
(471,0,l),
(542.429,500,l),
(473.429,500,l)
);
}
);
width = 600;
}
);
leftKerningGroup = u;
unicode = 117;
}
{
glyphname = v;
layers = (
{
hints = (
{
horizontal = 1;
place = (-10,21);
target = up;
type = BottomGhost;
}
);
layerId = "B21811DC-AF90-4C9E-92F0-FA8919ABC9C4";
name = "#instance";
shapes = (
{
closed = 1;
nodes = (
(464,500,l),
(258,131,l),
(156,500,l),
(52,500,l),
(213,-10,l),
(263,-10,l),
(566,500,l)
);
}
);
width = 577;
},
{
hints = (
{
horizontal = 1;
place = (-10,21);
target = up;
type = BottomGhost;
}
);
layerId = "7A4E2608-894C-42C3-A821-B6FEA079E459";
shapes = (
{
closed = 1;
nodes = (
(417,500,l),
(277,219,l),
(217,500,l),
(45,500,l),
(205,-10,l),
(285,-10,l),
(588,500,l)
);
}
);
width = 593;
},
{
hints = (
{
horizontal = 1;
place = (-10,21);
target = up;
type = BottomGhost;
}
);
layerId = "2FEAAE27-63B5-41AA-B98F-0872FA373B5B";
shapes = (
{
closed = 1;
nodes = (
(464,500,l),
(258,131,l),
(156,500,l),
(52,500,l),
(213,-10,l),
(263,-10,l),
(566,500,l)
);
}
);
width = 577;
},
{
hints = (
{
horizontal = 1;
place = (-10,21);
target = up;
type = BottomGhost;
}
);
layerId = "BBA9C4CC-16BF-4D96-9809-7FD759381829";
shapes = (
{
closed = 1;
nodes = (
(487,500,l),
(248,87,l),
(125,500,l),
(56,500,l),
(217,-10,l),
(252,-10,l),
(555,500,l)
);
}
);
width = 569;
}
);
leftKerningGroup = v2;
rightKerningGroup = v;
unicode = 118;
}
{
glyphname = w;
layers = (
{
anchors = (
{
name = mark0;
position = "{392, 0}";
},
{
name = mark1;
position = "{385, 472}";
}
);
layerId = "F0E59F11-1D58-42A6-80E9-36273FBB34FC";
shapes = (
{
closed = 1;
nodes = (
(625,-11,l),
(540,-11,l),
(464,318,l),
(297,-11,l),
(212,-11,l),
(41,500,l),
(221,500,l),
(288,230,l),
(416,500,l),
(565,500,l),
(617,230,l),
(760,500,l),
(940,500,l)
);
}
);
width = 921;
},
{
anchors = (
{
name = mark0;
position = "{392, 0}";
},
{
name = mark1;
position = "{385, 472}";
}
);
layerId = "3B93B69D-E33D-48F3-A278-6EAB673A7F94";
shapes = (
{
closed = 1;
nodes = (
(617,-11,l),
(564,-11,l),
(467,390,l),
(257,-11,l),
(204,-11,l),
(48,500,l),
(157,500,l),
(253,150,l),
(433,500,l),
(532,500,l),
(613,150,l),
(809,500,l),
(917,500,l)
);
}
);
width = 905;
},
{
anchors = (
{
name = mark0;
position = "{392, 0}";
},
{
name = mark1;
position = "{385, 472}";
}
);
layerId = "0D25A9BA-90DE-440E-BC4F-74EEDE6C6E67";
shapes = (
{
closed = 1;
nodes = (
(613,-11,l),
(576,-11,l),
(469,426,l),
(237,-11,l),
(200,-11,l),
(52,500,l),
(125,500,l),
(236,110,l),
(441,500,l),
(516,500,l),
(611,110,l),
(833,500,l),
(905,500,l)
);
}
);
width = 897;
}
);
leftKerningGroup = _v;
rightKerningGroup = _v;
unicode = 119;
}
{
glyphname = y;
layers = (
{
anchors = (
{
name = mark0;
position = "{319, 0}";
},
{
name = mark1;
position = "{209, 472}";
}
);
layerId = "6377F2BA-02BD-49C5-9B81-A1BD44C27745";
shapes = (
{
closed = 1;
nodes = (
(146,-258,l),
(-23,-258,l),
(277,219,l),
(433,500,l),
(613,500,l)
);
},
{
closed = 1;
nodes = (
(214,0,l),
(42,500,l),
(222,500,l),
(298,219,l),
(267,0,l)
);
}
);
width = 593;
},
{
anchors = (
{
name = mark0;
position = "{319, 0}";
},
{
name = mark1;
position = "{209, 472}";
}
);
layerId = "4D5D236C-3626-44C9-B9AA-2206EC1912DB";
shapes = (
{
closed = 1;
nodes = (
(86,-258,l),
(-23,-258,l),
(232,131,l),
(457,500,l),
(566,500,l)
);
},
{
closed = 1;
nodes = (
(211,32,l),
(49,500,l),
(158,500,l),
(272,147,l),
(248,32,l)
);
}
);
width = 552;
},
{
anchors = (
{
name = mark0;
position = "{319, 0}";
},
{
name = mark1;
position = "{209, 472}";
}
);
layerId = "09BE0123-C991-42EB-87B9-55839D2F6983";
shapes = (
{
closed = 1;
nodes = (
(56,-258,l),
(-23,-258,l),
(209,87,l),
(469,500,l),
(542,500,l)
);
},
{
closed = 1;
nodes = (
(209,48,l),
(53,500,l),
(126,500,l),
(259,111,l),
(238,48,l)
);
}
);
width = 532;
}
);
leftKerningGroup = _y;
rightKerningGroup = _y;
unicode = 121;
}
{
glyphname = z;
layers = (
{
anchors = (
{
name = mark0;
position = "{218, 0}";
},
{
name = mark1;
position = "{207, 472}";
}
);
layerId = "5F1069EF-7233-42B2-A641-1D5303479095";
shapes = (
{
closed = 1;
nodes = (
(319,362,l),
(32,362,l),
(51,500,l),
(559,500,l),
(226,98,l),
(211,138,l),
(508,138,l),
(489,0,l),
(-29,0,l),
(304,401,l)
);
}
);
width = 539;
},
{
anchors = (
{
name = mark0;
position = "{218, 0}";
},
{
name = mark1;
position = "{207, 472}";
}
);
layerId = "8E1BB1C9-5399-4481-B652-0152E5DB95F4";
shapes = (
{
closed = 1;
nodes = (
(383,414,l),
(47,414,l),
(59,500,l),
(519,500,l),
(129,47,l),
(114,86,l),
(461,86,l),
(449,0,l),
(-22,0,l),
(369,452,l)
);
}
);
width = 508;
},
{
anchors = (
{
name = mark0;
position = "{218, 0}";
},
{
name = mark1;
position = "{207, 472}";
}
);
layerId = "DD0681D4-613B-4E2A-9B2E-3AB0BAB5AD9A";
shapes = (
{
closed = 1;
nodes = (
(415,440,l),
(55,440,l),
(63,500,l),
(499,500,l),
(80,22,l),
(66,60,l),
(437,60,l),
(429,0,l),
(-18,0,l),
(401,478,l)
);
}
);
width = 492;
}
);
leftKerningGroup = _z;
unicode = 122;
}
{
glyphname = bar;
layers = (
{
layerId = "5F1069EF-7233-42B2-A641-1D5303479095";
shapes = (
{
closed = 1;
nodes = (
(26,-126,l),
(142,700,l),
(309,700,l),
(193,-126,l)
);
}
);
width = 335;
},
{
layerId = "8E1BB1C9-5399-4481-B652-0152E5DB95F4";
shapes = (
{
closed = 1;
nodes = (
(26,-126,l),
(142,700,l),
(246,700,l),
(130,-126,l)
);
}
);
width = 272;
},
{
layerId = "DD0681D4-613B-4E2A-9B2E-3AB0BAB5AD9A";
shapes = (
{
closed = 1;
nodes = (
(26,-126,l),
(142,700,l),
(215,700,l),
(99,-126,l)
);
}
);
width = 240;
}
);
unicode = 124;
}
{
glyphname = braceright;
layers = (
{
layerId = "5719F410-C0E5-43AE-88FA-B4FFDEE24CB8";
shapes = (
{
closed = 1;
nodes = (
(296.571,179,ls),
(307.857,258,o),
(348.,294,o),
(431.,294,c),
(444.714,390,l),
(361.714,390,o),
(332.571,431,o),
(344.714,516,cs),
(372.429,710,ls),
(385.714,803,o),
(341.143,848,o),
(225.143,848,cs),
(142.143,848,l),
(130.143,764,l),
(182.143,764,ls),
(236.143,764,o),
(252.857,741,o),
(245.714,691,cs),
(223.143,533,ls),
(207.714,425,o),
(233.714,369,o),
(314.286,345,c),
(225.571,312,o),
(184.143,260,o),
(170.857,167,cs),
(145.571,-10,ls),
(138.286,-61,o),
(115.,-84,o),
(61.,-84,cs),
(9.,-84,l),
(-3.,-168,l),
(80.,-168,ls),
(196.,-168,o),
(253.429,-123,o),
(266.571,-31,cs)
);
}
);
width = 473;
},
{
layerId = "749AE4FF-5243-4D3F-AC67-AE9DCC0EE297";
shapes = (
{
closed = 1;
nodes = (
(264.571,179,ls),
(276.571,263,o),
(328.143,302,o),
(400.143,302,c),
(411.571,382,l),
(339.571,382,o),
(299.857,426,o),
(312.714,516,cs),
(340.429,710,ls),
(353.571,802,o),
(310.143,848,o),
(209.143,848,cs),
(142.143,848,l),
(132.429,780,l),
(192.429,780,ls),
(245.429,780,o),
(262.143,757,o),
(255.,707,cs),
(230.143,533,ls),
(214.286,422,o),
(237.571,368,o),
(314.286,345,c),
(229.857,314,o),
(191.429,262,o),
(177.857,167,cs),
(150.286,-26,ls),
(143.,-77,o),
(119.714,-100,o),
(66.714,-100,cs),
(6.714,-100,l),
(-3.,-168,l),
(64.,-168,ls),
(165.,-168,o),
(221.571,-122,o),
(234.571,-31,cs)
);
}
);
width = 441;
},
{
layerId = "9DBD663E-71C9-4E39-B4BC-5CF5923FD470";
shapes = (
{
closed = 1;
nodes = (
(248.571,179,ls),
(260.857,265,o),
(318.714,306,o),
(384.714,306,c),
(395.,378,l),
(329.,378,o),
(283.429,423,o),
(296.714,516,cs),
(324.429,710,ls),
(337.571,802,o),
(294.143,848,o),
(201.143,848,cs),
(142.143,848,l),
(133.571,788,l),
(197.571,788,ls),
(250.571,788,o),
(267.286,765,o),
(260.143,715,cs),
(234.143,533,ls),
(218.,420,o),
(239.429,367,o),
(314.286,345,c),
(232.,315,o),
(195.571,263,o),
(181.857,167,cs),
(153.143,-34,ls),
(145.857,-85,o),
(122.571,-108,o),
(69.571,-108,cs),
(5.571,-108,l),
(-3.,-168,l),
(56.,-168,ls),
(149.,-168,o),
(205.714,-121,o),
(218.571,-31,cs)
);
}
);
width = 425;
}
);
unicode = 125;
}
